<?xml version="1.0" encoding="utf-8" ?>
<svg xmlns="http://www.w3.org/2000/svg" xmlns:xlink="http://www.w3.org/1999/xlink" width="140" height="140">
	<clipPath id="cl_4">
		<rect width="140" height="140"/>
	</clipPath>
	<g clip-path="url(#cl_4)">
		<path transform="translate(17.5 32)" d="M12.8855 12.7427L12.8855 26.6001Q12.8855 28.2759 12.5874 29.5649Q12.2893 30.854 11.6931 31.7805Q11.0969 32.707 10.6699 33.1663Q10.2429 33.6255 9.51782 34.2539Q7.87427 35.6719 5.65063 35.6719Q4.92554 35.6719 4.05542 35.1804Q3.1853 34.689 3.1853 33.8994Q3.1853 33.3999 3.70898 32.9407Q4.23267 32.4814 4.6355 32.4814Q5.0061 32.4814 5.26392 32.6104Q5.52173 32.7393 5.63452 32.8521Q5.74731 32.9648 5.90039 33.2468Q6.05347 33.5288 6.11792 33.5933Q6.55298 34.1895 7.27808 34.1895Q7.93872 34.1895 8.49463 33.7625Q9.05054 33.3354 9.56616 31.7Q10.0818 30.0645 10.0818 27.3252L10.0818 12.7427Q10.0818 10.7607 9.51782 10.2854Q8.95386 9.81006 6.87524 9.74561Q6.74634 9.6167 6.74634 9.21387Q6.74634 8.81104 6.87524 8.6499Q10.1785 8.71436 11.4675 8.71436Q12.1926 8.71436 15.4314 8.6499Q15.5925 8.81104 15.5925 9.20581Q15.5925 9.60059 15.4314 9.74561Q13.8523 9.81006 13.3689 10.3015Q12.8855 10.793 12.8855 12.7427ZM24.7288 20.6543L30.5618 20.6543L27.468 11.6792L27.2585 11.6792L23.8909 20.2192Q23.8425 20.3159 23.8586 20.3965Q23.8748 20.4771 23.9231 20.5254Q23.9714 20.5737 24.0842 20.606Q24.197 20.6382 24.3501 20.6462Q24.5032 20.6543 24.7288 20.6543ZM21.1516 27.3896Q21.1194 27.7119 21.0549 27.9617Q20.9905 28.2114 21.2402 28.3806Q21.49 28.5498 21.635 28.6465Q21.78 28.7432 22.1829 28.8237Q22.5857 28.9043 22.8113 28.9204Q23.0369 28.9365 23.4397 28.9849Q23.5686 29.146 23.5686 29.5408Q23.5686 29.9355 23.4397 30.0645Q20.9905 30 19.218 30Q18.7185 30 16.2693 30.0645Q16.1082 29.9355 16.1082 29.5408Q16.1082 29.146 16.2693 28.9849Q17.5261 28.8882 18.2512 28.4692Q18.9763 28.0503 19.5725 26.6323L27.0652 8.93994Q27.7903 8.93994 28.886 8.2793L35.6858 27.1641Q35.8792 27.7603 36.1611 28.1228Q36.4431 28.4854 36.9346 28.6626Q37.426 28.8398 37.6758 28.8721Q37.9255 28.9043 38.6506 28.9849Q38.8118 29.146 38.8118 29.5408Q38.8118 29.9355 38.6506 30.0645Q36.2014 30 34.8801 30Q32.9949 30 30.5618 30.0645Q30.4329 29.9355 30.4329 29.5408Q30.4329 29.146 30.5618 28.9849Q30.7551 28.9849 31.0693 28.9607Q31.3835 28.9365 31.5527 28.9204Q31.7219 28.9043 31.9878 28.8721Q32.2537 28.8398 32.3826 28.8076Q32.5115 28.7754 32.6887 28.7109Q32.866 28.6465 32.9385 28.5498Q33.011 28.4531 33.0593 28.3162Q33.1077 28.1792 33.0916 28.0181Q33.0754 27.8569 33.011 27.6313L31.0935 22.04L24.1326 22.04Q23.5364 22.04 23.3188 22.1609Q23.1013 22.2817 22.9724 22.604L21.1516 27.3896ZM47.948 9.60059Q45.2087 9.60059 45.2087 11.7114L45.2087 19.2686L46.7878 19.2686Q49.4626 19.2686 50.8967 18.1809Q52.3308 17.0933 52.3308 14.2251Q52.3308 9.60059 47.948 9.60059ZM45.2087 25.9717Q45.2087 27.9536 45.7244 28.429Q46.24 28.9043 48.0769 28.9849Q48.2058 29.146 48.2058 29.5408Q48.2058 29.9355 48.0769 30.0645Q44.7737 30 43.823 30Q42.7595 30 39.5369 30.0645Q39.3757 29.9355 39.3757 29.5408Q39.3757 29.146 39.5369 28.9849Q41.3899 28.9204 41.8975 28.437Q42.405 27.9536 42.405 25.9717L42.405 12.7427Q42.405 10.7607 41.8975 10.2854Q41.3899 9.81006 39.5369 9.74561Q39.3757 9.6167 39.3757 9.21387Q39.3757 8.81104 39.5369 8.6499Q42.8401 8.71436 43.7908 8.71436Q44.4836 8.71436 46.0144 8.60156Q47.5452 8.48877 47.9158 8.48877Q49.8655 8.48877 51.219 8.78687Q52.5725 9.08496 53.6199 10.0679Q55.3762 11.7114 55.3762 14.1929Q55.3762 16.4648 53.9421 17.8989Q52.5081 19.333 50.9773 19.8325L55.1506 26.7612Q55.908 28.0181 56.6008 28.6626Q57.2937 29.3071 58.3088 29.3071Q58.5344 29.7422 58.3411 30.0967Q57.8738 30.3223 56.9553 30.3223Q54.4094 30.3223 52.6047 27.3896L49.0759 21.6533Q48.6731 20.9927 47.8997 20.6946Q47.1262 20.3965 45.2087 20.3965L45.2087 25.9717ZM67.3484 18.0923Q69.3625 18.0923 69.8218 17.6975Q70.281 17.3027 70.3455 15.8364Q70.4744 15.6753 70.8772 15.6753Q71.28 15.6753 71.4412 15.8364Q71.3767 17.8184 71.3767 18.6885Q71.3767 19.2847 71.4412 21.5889Q71.28 21.75 70.8853 21.75Q70.4905 21.75 70.3455 21.5889Q70.281 20.7026 70.1521 20.3159Q70.0232 19.9292 69.3625 19.6311Q68.7019 19.333 67.3484 19.333L64.3513 19.333L64.3513 27.293Q64.3513 28.7109 65.5276 28.7109L70.0232 28.7109Q73.1653 28.7109 74.3416 24.3926Q74.9377 24.2637 75.5017 24.5537Q75.0989 27.1641 74.2771 30.0645Q71.6345 30 70.0554 30L62.9656 30Q60.2908 30.0322 58.6633 30.0645Q58.5344 29.9355 58.5344 29.5408Q58.5344 29.146 58.6633 28.9849Q60.5164 28.9204 61.032 28.437Q61.5476 27.9536 61.5476 25.9717L61.5476 12.7427Q61.5476 10.7607 61.032 10.2854Q60.5164 9.81006 58.6633 9.74561Q58.5344 9.6167 58.5344 9.21387Q58.5344 8.81104 58.6633 8.6499L62.9333 8.71436L71.3445 8.71436Q72.1985 8.71436 72.9558 8.58545Q73.0847 8.58545 73.0847 8.68213Q73.3425 9.81006 73.8259 13.4678Q73.2942 13.7256 72.7302 13.6289Q72.1018 11.647 71.4089 10.8413Q70.7161 10.0356 69.0081 10.0356L65.5276 10.0356Q64.9636 10.0356 64.6575 10.4465Q64.3513 10.8574 64.3513 11.4858L64.3513 18.0923L67.3484 18.0923ZM82.7527 27.2607Q82.7527 28.147 83.4294 28.5417Q84.1062 28.9365 86.3459 28.9365Q88.2312 28.9365 89.6814 28.5579Q91.1316 28.1792 92.3884 27.293Q93.6453 26.4067 94.322 24.7229Q94.9988 23.0391 94.9988 20.6221Q94.9988 18.6079 94.5073 16.7629Q94.0159 14.918 92.9524 13.2986Q91.8889 11.6792 89.9795 10.7285Q88.0701 9.77783 85.5242 9.77783Q82.7527 9.77783 82.7527 11.3892L82.7527 27.2607ZM81.3347 8.71436Q81.8665 8.71436 83.7437 8.68213Q85.6208 8.6499 86.781 8.6499Q91.5344 8.6499 94.8538 11.929Q98.1731 15.208 98.1731 19.8325Q98.1731 22.7329 97.166 24.8357Q96.1589 26.9385 94.4912 28.0261Q92.8235 29.1138 91.0591 29.5891Q89.2947 30.0645 87.3772 30.0645Q85.3953 30.0645 83.5503 30.0322Q81.7053 30 81.3669 30Q80.3035 30 77.0808 30.0645Q76.9197 29.9355 76.9197 29.5408Q76.9197 29.146 77.0808 28.9849Q78.9338 28.9204 79.4414 28.437Q79.949 27.9536 79.949 25.9717L79.949 12.7427Q79.949 10.7607 79.4414 10.2854Q78.9338 9.81006 77.0808 9.74561Q76.9197 9.6167 76.9197 9.21387Q76.9197 8.81104 77.0808 8.6499Q80.384 8.71436 81.3347 8.71436Z"/>
		<path transform="translate(17.5 32)" d="M8.84912 68Q6.17432 68.0322 4.56299 68.0645Q4.40186 67.9355 4.40186 67.5408Q4.40186 67.146 4.56299 66.9849Q6.41602 66.9204 6.92358 66.437Q7.43115 65.9536 7.43115 63.9717L7.43115 50.7427Q7.43115 48.7607 6.92358 48.2854Q6.41602 47.8101 4.56299 47.7456Q4.40186 47.6167 4.40186 47.2139Q4.40186 46.811 4.56299 46.6499Q7.86621 46.7144 8.81689 46.7144Q9.88037 46.7144 13.103 46.6499Q13.2319 46.811 13.2319 47.2058Q13.2319 47.6006 13.103 47.7456Q11.25 47.8101 10.7424 48.2854Q10.2349 48.7607 10.2349 50.7427L10.2349 65.0674Q10.2349 65.8247 10.6458 66.2678Q11.0566 66.7109 11.7817 66.7109L14.1987 66.7109Q16.6157 66.7109 17.8162 65.575Q19.0166 64.439 19.5806 62.3926Q20.1445 62.2959 20.6602 62.5537Q20.3379 65.4219 19.8062 68.0645Q16.7607 68 15.8745 68L8.84912 68ZM34.1309 40.9458Q35.5488 41.6064 36.1772 42.6538L31.4238 44.5713Q30.5054 44.9741 30.0381 44.958Q29.5386 44.958 29.5386 44.4746Q29.5386 44.104 30.0381 43.7817L34.1309 40.9458ZM32.2778 47.4072Q31.0854 47.4072 29.9656 47.9873Q28.8457 48.5674 27.887 49.6873Q26.9282 50.8071 26.332 52.7729Q25.7358 54.7388 25.7358 57.2041Q25.7358 61.7642 28.0481 64.4873Q30.3604 67.2104 33.5669 67.2104Q36.4673 67.2104 38.3123 64.6484Q40.1572 62.0864 40.1572 57.7681Q40.1572 52.918 37.9175 50.1626Q35.6777 47.4072 32.2778 47.4072ZM43.3315 57.1396Q43.3315 61.2646 41.2852 64.165Q39.8994 66.147 37.7483 67.2346Q35.5972 68.3223 32.9062 68.3223Q28.5557 68.3223 25.5667 65.4219Q22.5776 62.5215 22.5776 57.7681Q22.5776 53.4014 24.8335 50.3076Q26.2192 48.4062 28.2576 47.3428Q30.2959 46.2793 32.7129 46.2793Q37.3052 46.2793 40.3184 49.22Q43.3315 52.1606 43.3315 57.1396ZM50.7437 49.7114L50.7437 57.4136Q51.3398 57.5747 53.2573 57.5747Q55.7065 57.5747 56.9392 56.3662Q58.1719 55.1577 58.1719 52.5635Q58.1719 49.6953 56.915 48.6479Q55.6582 47.6006 53.6118 47.6006Q50.7437 47.6006 50.7437 49.7114ZM47.9399 50.7427Q47.9399 48.7607 47.4324 48.2854Q46.9248 47.8101 45.0718 47.7456Q44.9106 47.6167 44.9106 47.2139Q44.9106 46.811 45.0718 46.6499Q48.375 46.7144 49.3257 46.7144Q50.0508 46.7144 51.7668 46.6016Q53.4829 46.4888 53.8535 46.4888Q55.9966 46.4888 57.5435 47.0447Q59.0903 47.6006 59.8477 48.511Q60.605 49.4214 60.9192 50.2593Q61.2334 51.0972 61.2334 51.9673Q61.2334 53.1274 60.8386 54.2312Q60.4438 55.335 59.606 56.3743Q58.7681 57.4136 57.1648 58.05Q55.5615 58.6865 53.4185 58.6865Q51.7749 58.6865 50.7437 58.3643L50.7437 63.9717Q50.7437 65.9214 51.3721 66.3967Q52.0005 66.8721 54.1113 66.9849Q54.2725 67.146 54.2725 67.5408Q54.2725 67.9355 54.1113 68.0645Q50.8081 68 49.3579 68Q48.2944 68 45.0718 68.0645Q44.9106 67.9355 44.9106 67.5408Q44.9106 67.146 45.0718 66.9849Q46.9248 66.9204 47.4324 66.437Q47.9399 65.9536 47.9399 63.9717L47.9399 50.7427ZM71.981 56.0923Q73.9951 56.0923 74.4543 55.6975Q74.9136 55.3027 74.978 53.8364Q75.1069 53.6753 75.5098 53.6753Q75.9126 53.6753 76.0737 53.8364Q76.0093 55.8184 76.0093 56.6885Q76.0093 57.2847 76.0737 59.5889Q75.9126 59.75 75.5178 59.75Q75.123 59.75 74.978 59.5889Q74.9136 58.7026 74.7847 58.3159Q74.6558 57.9292 73.9951 57.6311Q73.3345 57.333 71.981 57.333L68.9839 57.333L68.9839 65.293Q68.9839 66.7109 70.1602 66.7109L74.6558 66.7109Q77.7979 66.7109 78.9741 62.3926Q79.5703 62.2637 80.1343 62.5537Q79.7314 65.1641 78.9097 68.0645Q76.2671 68 74.688 68L67.5981 68Q64.9233 68.0322 63.2959 68.0645Q63.167 67.9355 63.167 67.5408Q63.167 67.146 63.2959 66.9849Q65.1489 66.9204 65.6646 66.437Q66.1802 65.9536 66.1802 63.9717L66.1802 50.7427Q66.1802 48.7607 65.6646 48.2854Q65.1489 47.8101 63.2959 47.7456Q63.167 47.6167 63.167 47.2139Q63.167 46.811 63.2959 46.6499L67.5659 46.7144L75.9771 46.7144Q76.8311 46.7144 77.5884 46.5854Q77.7173 46.5854 77.7173 46.6821Q77.9751 47.8101 78.4585 51.4678Q77.9268 51.7256 77.3628 51.6289Q76.7344 49.647 76.0415 48.8413Q75.3486 48.0356 73.6406 48.0356L70.1602 48.0356Q69.5962 48.0356 69.29 48.4465Q68.9839 48.8574 68.9839 49.4858L68.9839 56.0923L71.981 56.0923ZM99.2607 68.0645Q99.2446 68.0645 95.0874 68L83.0669 68Q82.4385 68 82.4385 67.5005Q82.4385 67.0977 82.6963 66.7432Q85.3389 62.8115 89.2866 57.3169Q93.2344 51.8223 95.5386 48.8896Q95.7964 48.519 95.7964 48.2935Q95.7964 48.0034 95.4741 48.0034L88.5132 48.1323Q86.6924 48.1646 85.6531 49.0266Q84.6138 49.8887 84.082 51.6289Q83.647 51.6289 83.0991 51.4678Q83.6631 48.5352 83.8242 46.4565Q87.0952 46.7144 89.8022 46.7144L97.0854 46.7144Q97.6494 46.7144 98.5115 46.6821Q99.3735 46.6499 99.5024 46.6499Q99.9375 46.6499 99.9214 47.0044Q99.9214 47.4717 99.1318 48.5029Q93.9917 55.1416 86.7568 65.6313Q86.499 66.0986 86.499 66.292Q86.499 66.7915 87.3208 66.7432L93.6855 66.6143Q94.749 66.582 95.5547 66.3323Q96.3604 66.0825 96.8599 65.7844Q97.3594 65.4863 97.8347 64.8096Q98.3101 64.1328 98.5276 63.7058Q98.7451 63.2788 99.1318 62.3926Q99.5669 62.3926 100.163 62.5537Q99.4863 65.3574 99.2607 68.0645Z"/>
	</g>
</svg>
