<?xml version="1.0" encoding="utf-8" ?>
<svg xmlns="http://www.w3.org/2000/svg" xmlns:xlink="http://www.w3.org/1999/xlink" width="140" height="140">
	<clipPath id="cl_4">
		<rect width="140" height="140"/>
	</clipPath>
	<g clip-path="url(#cl_4)">
		<path transform="translate(13.5 9)" d="M54.6855 113.562C54.6108 113.114 54.4614 112.517 54.1626 112.068C54.2747 112.068 54.4241 112.143 54.5361 112.143L54.5361 112.255C55.1338 112.33 55.6567 112.33 56.1423 112.33C56.6279 112.367 57.1509 112.367 57.6738 112.367C58.1968 112.367 58.6824 112.367 59.2053 112.33L60.8489 112.33C60.8115 112.479 60.7742 112.666 60.8115 112.853C60.8115 112.853 60.7368 112.89 60.8115 112.927C61.2598 113.6 61.7827 114.31 62.6045 114.085C63.1274 113.787 63.7251 113.338 63.501 112.554C63.4636 112.33 63.3889 112.143 63.2395 111.919C64.0613 111.844 64.8457 111.695 65.6301 111.545C65.8542 111.508 66.2278 111.396 66.4146 111.471C66.6387 111.471 66.564 111.359 66.7881 111.508L67.0496 111.732C67.311 112.031 67.7593 112.33 68.1328 112.554C68.6184 112.741 68.9919 112.853 69.4775 112.927L70.1873 113.264C69.8511 113.675 69.6643 114.235 69.6643 114.72C69.7017 115.318 70.2993 115.99 71.1584 115.916C71.7561 115.804 72.7273 115.281 72.9141 114.72C72.9141 114.72 72.9514 114.72 72.9514 114.608C72.9141 114.384 72.802 114.235 72.802 114.235C72.5405 113.6 71.7561 112.853 71.1584 112.853L70.8596 112.853C70.6729 112.815 70.4861 112.741 70.3367 112.666C70.1499 112.591 69.9631 112.517 69.7764 112.405C69.3655 112.255 68.8425 112.143 68.5811 111.919C68.3569 111.882 67.4604 111.359 67.5725 111.172C67.6472 111.022 68.8799 110.836 69.104 110.948C69.2161 110.948 69.2908 110.985 69.3655 110.985C69.5149 110.985 69.6643 110.985 69.8511 110.948C70.1499 110.836 70.2993 110.836 70.5234 110.985C70.9717 111.284 71.3826 111.657 71.7561 111.882C72.7273 112.367 73.7358 112.218 74.8191 112.33C75.4167 112.367 75.865 112.143 76.3879 111.882C76.8735 111.657 77.2471 111.396 76.8735 110.948C76.2012 109.977 75.0806 109.678 73.96 109.454L75.1179 108.968C75.1926 108.968 75.5288 108.781 75.6782 108.781L76.2012 109.155C76.8735 109.603 77.5459 109.79 78.3303 109.678C78.7786 109.603 79.9365 109.267 79.4136 108.594C79.2268 108.333 79.04 108.258 78.7786 108.221L77.658 107.922C77.8074 107.81 77.8821 107.735 78.0315 107.735C78.1436 107.698 78.2183 107.773 78.3677 107.735C78.5918 107.698 79.0027 107.399 79.1147 107.212C79.3389 107.063 79.4509 106.839 79.7498 106.876C79.9365 106.876 80.3101 107.287 80.4595 107.399C81.4307 108.146 82.9995 108.296 84.1575 108.034C84.7178 107.773 85.3901 107.549 85.7637 107.138C86.1746 106.876 86.7349 106.353 86.436 105.868C86.2119 105.419 85.4275 105.195 85.054 105.009C84.4189 104.822 83.8586 104.859 83.2236 104.822C83.7839 104.523 84.3069 104 84.9045 103.776C85.166 103.776 85.3901 103.851 85.5769 104C85.9131 104.037 86.1746 104.187 86.5107 104.299C87.071 104.448 87.7061 104.523 88.3037 104.56C88.9387 104.56 89.4617 104.747 89.9846 104.635C90.3208 104.56 91.2173 104.224 90.9558 103.851C90.8064 103.664 90.3955 103.813 90.1714 103.851C89.8726 104 89.6111 104 89.2749 104.037C88.6025 104.037 88.0049 103.851 87.3699 103.776C87.071 103.776 86.7722 103.701 86.436 103.552C86.2493 103.514 85.8384 103.44 85.689 103.29C85.8757 103.029 86.0999 102.842 86.3613 102.655L86.9216 102.319C87.071 102.17 87.2578 102.058 87.4072 101.983C87.6313 101.833 87.594 101.908 87.8181 101.983C89.0134 102.506 90.3208 102.917 91.7402 102.506C92.2632 102.356 93.085 101.983 93.4211 101.572C93.7573 101.236 94.4297 100.713 94.0935 100.115C93.7947 99.667 92.7861 99.4429 92.2632 99.4055C91.5535 99.3308 90.7317 99.7791 90.0967 99.5923C90.2834 99.3682 90.5449 99.032 90.8064 98.8826C90.9558 98.7705 91.1426 98.5464 91.292 98.397C91.4788 98.3596 91.3667 98.3596 91.5908 98.397C92.3752 98.6584 93.0476 98.9946 93.7947 99.032C94.8032 99.2561 95.9612 99.032 96.9697 98.7332C96.9324 98.8826 96.9324 99.032 96.9324 99.2188C96.9697 99.9285 97.53 100.638 98.3518 100.563C99.0242 100.414 99.9207 99.8538 100.182 99.2188C100.182 99.2188 100.219 99.2188 100.219 99.1067C100.182 98.8826 100.07 98.7705 100.07 98.7705C99.7339 98.2102 99.0242 97.4631 98.3518 97.4631C98.053 97.4631 97.7915 97.5752 97.53 97.8367L96.1853 98.2476C95.6624 98.397 95.1394 98.509 94.5791 98.509C93.6826 98.509 92.7488 98.3223 92.0391 97.874C92.1511 97.6873 92.3379 97.3884 92.562 97.2017L93.085 96.6787C93.3838 96.3799 93.4211 96.4919 93.7573 96.6787C94.2803 96.8655 94.8032 96.9402 95.4382 96.8281C96.0732 96.7161 96.4468 96.5293 96.9697 96.2678C97.9783 95.7449 98.8748 95.2966 99.3977 94.4001C99.6592 94.1013 100.182 93.3542 100.033 92.9434C99.9207 92.5325 99.0989 92.5325 98.8748 92.3831C99.2109 92.0095 99.7339 91.8975 100.182 91.5613C100.518 91.3745 101.079 90.8889 101.041 90.478C100.892 89.9924 100.257 89.9551 99.8833 89.9551C99.2109 89.9551 98.8748 90.1418 98.3145 90.2913C98.6506 89.6936 98.9868 89.0959 99.323 88.573C99.4351 88.3489 99.5471 88.1248 99.7712 88.1248C100.107 88.1248 100.518 88.3115 100.854 88.3489C102.423 88.4236 104.44 87.3777 105.337 86.1077C105.823 85.5847 106.047 85.2112 106.233 84.4268C106.271 84.24 106.42 83.717 106.345 83.5676C106.196 83.3435 105.561 83.2314 105.337 83.2314C105.001 83.2314 104.552 83.4556 104.179 83.5303C103.805 83.6423 103.469 83.717 103.096 83.9785C102.423 84.3521 101.975 84.9124 101.377 85.3232C101.49 84.7629 101.751 84.2026 102.05 83.717C102.274 83.3809 102.61 83.3809 103.021 83.3809C103.469 83.3435 103.768 83.3809 104.104 83.2314C104.515 83.0073 104.851 82.7832 105.188 82.4844C105.71 82.0361 106.682 80.9902 105.412 80.8035C104.44 80.6541 103.768 81.3264 102.946 81.8494C102.909 81.6252 103.133 81.3264 103.245 81.1023L103.656 79.9443C103.805 79.7202 103.805 79.7202 104.104 79.6455L104.627 79.4587C105.001 79.4587 105.3 79.4214 105.636 79.3467C106.196 79.1973 106.756 79.0479 107.093 78.5623C107.541 78.1514 107.802 77.479 108.101 76.9934C108.4 76.4705 108.587 75.9475 108.624 75.2751C108.661 75.0884 108.736 74.6401 108.549 74.4907C108.4 74.304 107.952 74.304 107.728 74.3413C107.018 74.416 106.495 74.7896 105.935 75.1257L105.374 75.686C105.188 75.8354 105.15 76.209 104.889 76.3584C104.889 75.9849 105.15 75.6113 105.188 75.1631L105.524 73.8184C105.673 74.4907 106.196 74.2292 106.607 73.9304C107.093 73.6316 107.615 73.2954 108.026 73.0339C108.624 72.3616 109.147 71.7266 109.595 70.9795C109.782 71.5024 110.268 71.8386 110.865 71.7266C111.5 71.6145 112.509 71.0916 112.733 70.4939C112.733 70.4939 112.808 70.4939 112.808 70.3818C112.733 70.1951 112.658 70.0457 112.658 70.0457C112.322 69.448 111.5 68.6636 110.865 68.6636C110.342 68.6636 109.931 69.1118 109.67 69.6721C109.521 69.7842 109.446 69.8962 109.408 70.0457C109.147 70.5686 108.885 71.0916 108.437 71.5771C107.615 72.4736 106.682 73.146 105.524 73.6316L106.159 71.241C106.196 70.8301 106.196 70.3445 106.271 69.9709C106.383 69.5601 106.495 69.7095 106.868 69.6348C107.615 69.5227 108.101 68.9998 108.587 68.5142C109.147 67.9165 109.595 67.2815 109.857 66.5718C110.156 65.8994 110.193 65.1897 110.268 64.4053C110.305 64.2559 110.342 63.9944 110.342 63.8823C110.305 63.7329 110.081 63.5835 110.006 63.4714C109.782 63.1353 109.595 63.1353 109.147 63.322C108.736 63.4714 108.101 63.8823 107.802 64.2559C107.728 64.4426 107.69 64.5173 107.541 64.592C107.354 64.7415 107.242 64.7415 107.205 64.9282C107.018 65.2271 107.018 65.5632 106.756 65.8994C106.682 65.3018 106.607 64.7788 106.682 64.2559C106.831 63.7329 107.205 63.6956 107.615 63.322C108.288 62.687 108.624 61.1929 108.661 60.4084C108.736 60.1096 108.661 59.8108 108.587 59.5493C108.587 59.3999 108.549 59.2505 108.437 59.1384C108.325 59.0264 108.25 59.0264 108.138 59.1384C107.69 59.2505 107.354 59.624 107.093 59.9976C106.532 60.5952 106.607 59.9229 106.57 59.3999L106.57 59.0264C106.495 58.7649 106.57 58.6902 106.756 58.6902C106.906 58.5408 107.205 58.4661 107.354 58.3914C108.213 57.8684 108.587 57.084 109.259 56.3369C109.969 55.5525 110.006 54.4319 109.782 53.3486C109.745 53.1245 109.67 52.751 109.595 52.4895C109.446 52.1533 109.408 52.1533 108.998 52.228C108.437 52.2654 107.952 52.751 107.578 53.0498C107.13 53.3486 106.756 53.6475 106.607 54.1704C106.495 54.656 106.42 55.1416 106.271 55.5525C105.935 55.179 106.009 54.5066 105.897 54.021L105.673 53.1245C105.673 52.9004 105.412 52.2654 105.561 52.116C105.636 51.9666 106.084 51.8545 106.196 51.7424C106.42 51.5557 106.57 51.3689 106.756 51.1074C107.093 50.5845 107.242 49.9121 107.615 49.3892C107.952 48.9036 108.213 48.3806 108.288 47.8203C108.437 47.26 108.624 46.5129 108.587 45.99C109.483 46.1021 110.417 46.1768 111.052 45.467C111.724 44.7947 111.313 43.7114 110.604 43.1885C110.118 42.7029 109.222 42.8896 108.624 43.4126C108.101 43.8982 108.475 44.7573 108.288 45.467C108.213 45.467 108.064 45.6165 108.026 45.9153C107.877 46.5129 107.877 47.3347 107.69 47.9697C107.466 48.53 107.018 49.0156 106.756 49.4639C106.495 49.9868 106.345 50.6592 105.935 51.1074C105.337 51.8545 105.188 51.1074 105.15 50.6592C105.075 50.2483 104.963 49.8748 104.851 49.5759C104.814 49.5012 104.739 49.3518 104.739 49.165L104.739 49.0156C104.814 49.053 104.814 49.053 104.851 49.0156C104.851 49.0156 105.15 48.9783 105.188 48.9783L105.524 48.6794C105.673 48.53 105.86 48.2686 106.047 48.0071C106.42 47.4841 106.868 46.8491 106.943 46.1394C107.055 45.5791 107.018 44.9067 106.906 44.2717C106.831 43.7114 106.495 43.1885 106.42 42.5908C106.383 42.3667 106.607 41.9558 106.271 41.8064C106.047 41.7317 105.748 42.0679 105.561 42.2173C105.15 42.5908 104.665 43.0017 104.44 43.562C104.104 44.1223 104.104 44.7573 104.104 45.4297C104.104 45.7659 103.992 45.99 104.03 46.2515C104.104 46.7371 104.179 47.1106 104.291 47.4468C103.992 47.0732 103.955 46.5876 103.693 46.1021C103.544 45.6538 103.32 45.2056 103.133 44.6826C102.984 44.3464 102.498 43.6741 102.76 43.3379C102.909 43.1511 103.133 43.0017 103.32 42.8896L103.693 42.3667C103.992 41.9932 104.814 39.9761 104.104 39.7893C103.693 39.6772 103.133 39.9761 102.834 40.2002C102.349 40.6111 102.237 41.2834 101.938 41.8064C101.602 41.3582 101.116 40.7605 101.041 40.1628C100.967 39.6772 101.49 39.1169 101.714 38.7061C101.826 38.2205 101.938 37.7349 101.938 37.2493C101.938 36.5022 101.751 35.7178 101.377 35.0454C101.116 34.5225 100.892 34.1116 100.518 33.7754C100.369 33.6633 100.257 33.626 100.257 33.4766C100.257 33.3271 100.406 33.1777 100.406 33.0283C100.518 32.8416 100.593 32.5801 100.257 32.5801C99.8833 32.5801 99.5098 33.4766 99.323 33.8127C99.1736 34.0369 99.0242 34.3357 98.9868 34.6719C98.8748 34.896 98.9868 35.1948 98.7253 35.3442C98.688 35.3069 98.5759 34.896 98.5386 34.896C98.3518 34.8586 98.3892 35.0454 98.3145 35.0454C98.165 35.1575 98.3145 35.3069 98.165 35.3069C98.053 35.3069 97.8662 35.1575 97.8289 35.0454C97.7168 34.7839 98.1277 34.4478 98.2397 34.1489C98.3892 33.8501 98.5386 33.4766 98.6506 33.1404C98.6506 32.6548 98.6506 32.1318 98.5012 31.7583C98.3145 31.198 98.053 31.3101 97.6794 31.6089C96.9324 32.2439 96.8203 32.8042 96.783 33.6633C96.5215 33.4766 95.8491 32.8042 95.8491 32.468C95.8491 32.2439 96.1853 31.7957 96.2974 31.5715C96.3721 31.2727 96.4841 30.9739 96.5215 30.7124C96.7083 29.3303 96.4841 28.135 95.7371 27.1265C95.5129 26.9397 95.4756 26.7529 95.3262 26.5288C95.1768 26.3047 95.2888 26.3047 94.99 26.1926C94.8032 26.1926 94.8032 26.1179 94.6165 26.1926C94.467 26.2673 94.2803 26.7903 94.2056 26.865C93.9814 27.1265 93.8694 27.3506 93.7573 27.6868C93.4211 28.8447 94.2056 30.04 94.5417 31.0859C94.0935 30.7498 93.6826 30.3389 93.2717 29.8533C93.085 29.5544 92.8982 29.4424 93.085 29.0688L93.4211 28.135C93.5706 27.6121 93.5706 26.9397 93.5332 26.4167C93.4585 25.7444 93.5332 24.9973 93.4211 24.3997C93.4211 24.2502 93.3838 23.6899 93.2344 23.0923C93.72 23.0176 93.8694 22.6814 94.5417 22.0464C95.2515 21.4114 94.8032 20.2908 93.9814 19.6931C93.6079 19.1702 92.7114 19.3569 92.1511 19.9546C91.7402 20.3281 91.8149 20.8511 91.8523 21.374C91.8523 21.5234 92.0017 21.7102 92.1511 22.009C92.2258 22.3452 92.4873 22.6814 92.5247 22.8308C92.7488 23.4658 92.8608 24.1382 92.8608 24.8105C92.8982 25.4082 93.0103 26.0059 93.0103 26.6409C92.9355 27.2012 92.8982 27.7988 92.7114 28.3218C92.5994 28.5833 92.562 28.8074 92.2632 28.658C92.0764 28.5833 91.8523 28.2097 91.6655 28.0229C91.4788 27.8362 91.1426 27.7241 90.9932 27.5374C90.8811 27.3506 90.657 26.865 90.6943 26.7903C90.6943 26.5288 90.9932 26.1926 91.0679 26.0059L91.3667 25.072C91.4788 24.4744 91.3667 23.7646 91.1799 23.167C90.8811 22.009 90.2834 21.0378 89.499 20.104L89.2749 19.7678C89.1628 19.6184 89.2002 19.469 88.9761 19.469C88.6399 19.469 88.5652 19.8799 88.4158 20.104C88.0796 20.7764 87.594 21.3367 87.7434 22.0837C87.7434 22.6814 87.9302 23.4658 88.229 24.1008C88.4905 24.5864 88.7893 25.2961 89.1628 25.6697C88.9387 25.6697 88.7893 25.6697 88.6025 25.5576C88.3411 25.2961 88.2664 25.072 88.0049 24.9226C87.594 24.7358 87.1084 24.3997 86.8843 24.0261C86.6228 23.6899 86.7722 23.4658 86.8843 23.0923C86.9216 22.7561 86.959 22.532 86.959 22.1958C86.9216 21.5608 86.7722 20.9631 86.6975 20.2908C86.5854 19.7678 86.5481 19.2822 86.0251 19.0208C85.7637 18.9087 85.689 18.9834 85.4275 19.1702C85.3901 19.3196 85.0913 19.6931 85.054 19.9546C84.8672 20.4402 84.8298 21.2246 84.9045 21.7102L85.054 22.4199C85.0913 22.6067 85.166 22.8682 84.8298 22.6814C84.531 22.6067 84.9045 22.4199 84.8298 22.2705C84.7551 22.1584 84.0454 21.9717 83.9707 21.897L83.1863 21.7476C82.8127 21.6355 82.8501 21.4114 82.9248 21.0752C83.1489 19.8425 82.9995 18.7593 82.626 17.6387C82.1777 16.7048 81.5054 15.6589 80.7583 14.9119C80.3101 14.5757 79.7498 14.1648 79.2268 14.2395C78.5918 14.2395 78.5918 15.0613 78.5918 15.5469C78.5544 16.7048 79.2642 17.7134 79.8618 18.6472C79.9365 18.9087 80.1233 19.1328 80.2727 19.3569C80.3101 19.469 80.7957 19.9919 80.7957 20.1414C80.7957 20.4402 80.5342 20.1787 80.3101 20.1787C80.2354 20.1414 80.0859 20.1414 80.0859 20.104C79.9739 20.104 79.9365 19.9546 79.9365 19.9546L78.4424 19.2822C78.5918 18.946 78.7039 18.6099 78.6665 18.3857C78.5171 17.4893 77.3218 17.1904 76.6494 17.3025C76.2012 17.4519 75.865 17.7134 75.6782 18.0869L75.1926 17.9375C75.342 17.6387 75.4167 17.3772 75.342 17.0784C75.1926 16.2939 73.9973 15.9951 73.2502 16.1072C72.5779 16.2939 72.0176 16.9663 72.2791 17.7507C72.5779 18.3857 73.2876 19.1328 73.9226 19.2449C73.9226 19.2449 73.96 19.2822 74.072 19.2822C74.2588 19.1702 74.4082 19.0208 74.4082 19.0208C74.6323 18.834 74.8191 18.6099 75.0059 18.311C75.1926 18.4231 75.342 18.4231 75.5288 18.4604C75.5288 18.6099 75.5288 18.7593 75.6409 18.946C75.9397 19.5811 76.6868 20.4402 77.2471 20.5149C77.2471 20.5149 77.2471 20.5522 77.3591 20.5522C77.5459 20.4775 77.6953 20.3281 77.6953 20.3281C77.8447 20.1787 78.0688 19.9546 78.2183 19.6558C78.2556 19.6931 78.3303 19.6931 78.3677 19.6931C79.6003 20.3281 81.0571 20.7017 81.8416 21.7476C80.7957 22.009 79.8618 22.2332 78.8906 22.8682C78.4424 23.167 78.2183 23.5405 77.9194 23.9141C77.8447 24.0635 77.5459 24.437 77.5459 24.5864C77.5459 24.7358 77.7327 24.9226 77.8074 25.1094C78.1436 24.9226 78.1436 25.072 78.405 25.2961C78.7412 25.4456 79.0027 25.5576 79.3762 25.5576C80.1233 25.5576 80.9451 25.5576 81.5801 25.2961C82.1777 25.072 82.7754 24.7358 83.2983 24.3623C83.5598 24.1008 83.8213 23.8767 83.9707 23.6152C84.0454 23.4658 84.1575 23.2417 84.2322 23.167C84.4189 23.0176 84.4189 23.0923 84.6431 23.2043C84.8672 23.2791 85.0913 23.4658 85.3528 23.6899L85.054 24.1008C84.8298 24.437 84.6431 24.7358 84.4189 24.8853C83.9707 25.2961 83.3357 25.6323 82.7754 25.8564C82.103 26.1926 81.468 26.2673 80.7583 26.2673C80.4595 26.2673 78.928 26.3047 79.0027 26.7529C79.0027 27.5374 82.3645 26.7529 82.8501 26.6035C83.4851 26.342 84.1575 26.0059 84.7178 25.5576C84.9045 25.4082 85.054 25.1467 85.2407 24.9226C85.4275 24.7358 85.689 24.5491 85.7263 24.2502L85.7263 24.1382L86.0251 24.2502C86.5854 24.5491 87.1084 24.8105 87.594 25.2961C88.1169 25.6697 88.6025 26.0059 89.0881 26.4915C89.6484 26.9771 90.1714 27.6121 90.8064 28.0229C90.2834 28.2097 89.8352 27.9856 89.3496 27.9482C88.9387 27.9482 88.2664 28.135 87.8928 28.2471C87.4446 28.4712 86.959 28.8074 86.6975 29.1436C86.3613 29.405 85.9504 30.0774 85.5769 30.1895C85.4275 30.2268 85.3154 30.0774 85.2034 30.2268C85.0913 30.4136 85.4275 30.7498 85.4275 30.8618C85.8384 31.0859 86.3613 31.3101 86.8843 31.4221C87.8181 31.6462 89.3123 31.5715 90.1714 31.1233C90.5449 30.9365 91.0305 30.7124 91.3293 30.3389C91.5161 30.1895 91.6655 30.0027 91.7402 29.7786C91.927 29.5171 91.8896 29.3303 92.2258 29.5171C92.4126 29.6665 92.7114 30.0027 92.7861 30.1895C93.085 30.5256 93.0103 30.5256 92.5994 30.7124C92.2258 30.8618 91.8523 31.0486 91.5535 31.3848C91.292 31.7583 91.1426 32.1692 91.0305 32.6174C90.8811 33.1404 91.292 33.2898 91.8896 33.2898C92.8982 33.2524 93.72 32.5801 94.2056 31.7209C94.6538 32.2439 95.2888 32.6548 95.6624 33.2898C94.3923 33.2898 93.3464 33.3645 92.2632 33.8501C91.7402 34.0369 91.3667 34.3357 90.9558 34.6719L90.3582 35.3069C90.0967 35.531 90.0967 35.531 89.7979 35.4189C89.7605 35.5684 89.7605 35.8298 89.7979 35.9792C89.8352 36.2407 89.9473 36.3528 90.1714 36.5396C90.6196 36.7637 90.9932 36.8757 91.5161 36.8757C92.5994 36.8757 93.6826 36.5022 94.5417 36.0166C94.9526 35.8298 95.4009 35.531 95.6624 35.3069C95.8118 35.1575 96.2974 34.1863 96.4841 34.2983C96.6335 34.3357 96.8203 34.896 96.9697 35.0454C97.1938 35.3069 97.4927 35.5684 97.6421 35.9792C96.1106 36.5769 94.8779 37.5107 93.2717 37.5854L92.2258 37.5854C91.8896 37.5854 91.5161 37.5107 91.1799 37.5854C90.8438 37.7349 90.9558 38.071 91.292 38.2205C91.5161 38.3699 92.1511 38.2578 92.4873 38.3699C93.8694 38.4446 95.4756 37.9216 96.7083 37.0625C96.9697 36.8757 97.3433 36.5396 97.6421 36.3901C97.9036 36.3154 97.6421 36.166 97.9783 36.3901L98.3145 36.8757C98.3892 36.9504 98.5759 37.2119 98.6506 37.3613C98.688 37.7722 98.4639 37.6228 98.1277 37.5854C97.5674 37.5481 96.8577 37.5854 96.3347 37.8096C96.1853 37.959 96.0732 38.0337 95.9612 38.2205C95.7744 38.4819 95.9985 38.7808 96.1853 39.0796C96.7083 39.5652 97.6421 39.8267 98.3145 39.8267C98.6506 39.8267 98.8748 39.6772 99.0989 39.6025L99.3977 39.4158C99.5471 39.3037 99.6592 39.3037 99.7339 39.4531C99.8459 39.5652 99.9207 39.6399 99.958 39.752C100.219 39.9387 100.406 40.2002 100.556 40.499C100.705 40.7979 100.929 41.0967 100.556 41.0967C100.294 41.134 99.7712 40.7979 99.5471 40.6484C99.1736 40.499 98.8748 40.499 98.5386 40.499C97.1938 40.4617 95.5129 40.6858 94.4297 41.5449C93.7573 42.1426 94.5417 42.4788 94.9526 42.8523C95.5876 43.4126 96.1853 43.8608 97.0444 44.0103C98.5386 44.2344 100.63 44.0103 101.639 42.8149C101.751 43.1511 101.975 43.3379 102.162 43.6741C102.311 44.085 102.461 44.4585 102.647 44.9067C102.984 45.7659 103.32 46.5129 103.619 47.3721C103.096 47.3721 102.647 46.9985 102.162 46.9985C101.788 46.9612 101.079 46.9985 100.742 47.2974C100.518 47.4841 100.556 47.8203 100.742 48.0071C100.929 48.3806 101.079 48.7915 101.415 49.0156C101.751 49.2397 102.125 49.3892 102.423 49.5012C102.984 49.5759 103.469 49.4639 103.955 49.5012C104.142 49.3518 104.291 49.3892 104.291 49.5759L104.44 49.8748C104.44 50.1736 104.478 50.323 104.552 50.5471C104.627 50.958 104.889 51.4436 104.814 51.9292C103.843 50.9207 102.573 50.5098 101.228 50.5098C100.593 50.5098 99.9207 50.5845 99.323 50.7712C98.9868 50.958 98.5386 51.1074 98.165 51.4062L97.9783 51.593C97.8662 51.6304 97.8662 51.7424 97.9783 51.8918C97.8289 52.1533 97.9783 52.116 98.165 52.3774C98.3145 52.4895 98.3145 52.751 98.3892 52.9004C98.5759 53.1245 98.7627 53.2739 99.0242 53.4607C99.323 53.6848 99.7339 53.9089 100.219 54.021C101.153 54.2825 102.237 54.2451 103.133 54.2451C103.619 54.2451 104.179 54.1704 104.627 53.9836C105.001 53.8342 105.188 53.498 105.374 54.021C105.524 54.5066 105.486 55.0295 105.561 55.3657C105.673 55.8887 105.823 56.3743 105.823 56.8972C105.86 57.4202 105.935 57.9431 106.047 58.4287C106.159 59.0264 106.047 59.624 106.196 60.2217C105.673 59.9976 105.337 59.0637 105.038 58.6902C104.627 58.1299 104.179 57.6816 103.656 57.196C103.282 56.8599 100.406 55.3284 100.593 56.6731C100.63 56.8225 100.742 56.8972 100.742 57.084C100.78 57.2334 100.705 57.3828 100.705 57.5322C100.705 57.8684 100.78 58.1299 100.854 58.4287C101.079 59.2131 101.639 59.8855 102.162 60.4458C103.133 61.417 104.702 62.052 106.196 61.9773C106.233 62.3508 106.196 62.8364 106.159 63.322C106.271 63.3967 106.196 63.5088 106.047 63.5461C105.935 63.5461 105.823 63.5461 105.673 63.4714L105.15 63.322C104.291 63.0232 103.619 62.5376 102.76 62.1641C102.087 61.8279 101.415 61.4543 100.854 60.9688C100.444 60.5205 100.107 59.9602 99.6965 59.5493C99.0989 58.9517 98.2397 58.7649 97.8289 59.2878C97.0071 59.8855 96.5962 60.9314 97.3059 61.5291C97.6794 61.9773 98.3518 62.1267 99.0989 62.1267C99.7712 62.1267 100.518 61.9773 101.079 61.9399C101.564 62.2761 102.05 62.5002 102.423 62.7991C103.282 63.322 104.179 63.7329 105.075 63.9197L105.71 64.1064C106.159 64.2185 106.196 64.2185 106.233 64.592C106.271 65.0403 106.271 65.5632 106.196 66.0488C106.084 66.908 106.233 68.0286 105.823 68.7756C105.3 67.7671 105.001 66.5718 104.142 65.75C103.768 65.3018 103.282 65.0403 102.76 64.7415C102.498 64.592 102.311 64.4053 102.087 64.4426C101.9 64.5173 101.826 64.592 101.639 64.5547L101.377 64.2559C100.742 64.8909 101.041 66.0862 101.116 66.9453C101.265 67.9165 101.639 68.9624 102.237 69.7095C102.76 70.4192 103.432 71.241 104.216 71.6892L104.702 71.9133C104.851 72.0254 105.225 72.0254 105.337 72.1748C105.486 72.4363 105.15 73.4075 105.075 73.6689C104.851 73.146 104.515 72.7351 104.142 72.2495C103.805 71.9133 103.469 71.5024 102.984 71.2783C102.498 71.0916 102.237 71.0916 102.162 71.6892C102.125 72.1748 102.237 72.8098 102.349 73.2954C102.498 73.781 102.76 74.2292 103.17 74.6401C103.357 74.7896 103.619 74.9763 103.805 75.0884C103.992 75.1631 104.627 75.3125 104.665 75.4246C104.814 75.7607 104.328 76.7319 104.179 77.0308C103.992 77.5911 103.656 78.0767 103.469 78.7117C103.469 77.5537 103.021 76.321 102.423 75.3499C102.162 74.8643 101.639 74.4907 101.265 74.0798C101.116 73.9304 101.041 73.781 100.78 73.781C100.406 73.7437 100.518 73.9678 100.518 74.2292C100.444 74.6775 100.07 74.9763 100.033 75.4619C99.8833 76.1343 99.6965 76.8066 99.7712 77.4043C99.9207 78.5249 100.406 79.7202 101.153 80.5793C101.303 80.8035 101.49 80.9529 101.639 81.1023C101.9 81.2891 102.237 81.4385 102.311 81.5879C102.423 81.7747 102.311 81.9614 102.237 82.2603L101.788 83.1567C101.751 83.3062 101.639 83.6797 101.452 83.717C101.265 83.8665 101.116 83.6423 100.967 83.4929L99.7712 82.1108C99.0989 80.9902 99.0242 79.7202 98.7627 78.4502C98.7253 78.2261 98.7253 77.8899 98.5012 77.7405C98.3145 77.5911 98.2397 77.7405 98.1277 77.9272C97.9783 78.2634 98.053 78.4128 98.1277 78.749C98.165 79.1226 98.2397 79.4587 98.3518 79.8696C98.688 81.3264 99.0989 82.4844 100.182 83.5676C100.406 83.8291 100.705 84.0532 100.892 84.3521C101.116 84.6882 100.892 84.9871 100.705 85.3232C100.406 85.7715 100.033 86.5186 99.5471 86.9668C99.5845 86.1077 99.5471 85.3606 99.323 84.5388C99.0989 83.8665 99.0242 83.1567 98.4639 82.6338L97.5674 82.0361C97.4927 81.9988 97.1938 81.7747 97.1191 81.7747C96.9697 81.7747 96.9324 81.9988 96.8577 82.1108C96.3721 82.5964 96.1479 83.3809 96.0732 84.1279C95.9238 84.875 95.6624 85.6968 95.8491 86.3691C96.0732 87.1162 96.3347 87.9006 96.783 88.4983C96.9697 88.7971 97.1565 89.0959 97.4927 89.2827C97.7168 89.5442 98.053 89.5442 97.9783 89.9551L97.4927 90.6274C97.1938 90.9636 96.8577 91.1877 96.5215 91.4119C95.6624 90.2913 95.1768 88.9092 94.7659 87.6018L94.5417 86.5933C94.5417 86.2944 94.6165 85.8835 94.4297 85.6968C94.2803 85.51 94.0935 85.5474 93.9441 85.7715C93.7573 86.033 93.8694 86.3691 93.8694 86.7427C94.0935 88.0127 94.5417 89.4321 95.1394 90.5527C95.2888 90.8516 95.5129 91.1877 95.7371 91.4119C95.8118 91.5613 96.1853 92.0095 96.1853 92.2336C96.1853 92.4951 95.625 93.0181 95.4382 93.2048C95.2888 93.3916 94.9526 93.9146 94.7285 93.9146C94.6538 92.7192 94.7285 91.4866 94.2429 90.2913C94.0562 89.8057 93.7573 89.2827 93.4211 88.7971C93.2717 88.6477 93.085 88.4236 92.9355 88.3115C92.5994 88.2368 92.5247 88.4609 92.2632 88.573C92.562 88.9465 92.2632 88.9092 91.927 89.208C91.7029 89.5068 91.5161 89.8057 91.3667 90.1045C91.1799 90.478 90.9558 90.8142 90.8438 91.1877C90.8064 91.5613 90.8811 92.0095 90.8438 92.3831C90.8064 92.7939 90.6943 93.0181 90.8064 93.429C90.8811 93.8025 91.0305 94.1387 91.1799 94.5869C91.5535 95.2966 92.0391 95.7822 92.7114 96.2678C92.3752 96.7161 91.927 97.1643 91.5161 97.5378C91.5161 96.5293 91.7402 95.9316 91.2173 94.9978C91.1799 94.9231 90.9558 94.5869 90.8438 94.5496C90.8064 94.5496 90.5076 94.811 90.3955 94.8857C90.0967 95.1472 89.8352 95.4834 89.7605 95.9316C89.4243 96.7908 89.3123 97.5378 89.499 98.397C89.6111 98.8452 89.8352 99.032 89.499 99.5176C89.1628 99.8538 88.7893 100.115 88.3411 100.377C88.6025 99.5176 88.752 98.5464 88.752 97.6873C88.7893 96.8281 88.4531 96.0811 88.1169 95.2966C87.8928 94.811 87.7061 94.1387 87.1084 94.064C86.7349 93.9519 86.7722 94.2507 86.5854 94.4749C86.3613 94.811 86.0999 95.0725 85.9131 95.4087C85.3154 96.6787 84.9045 98.397 85.2034 99.8538C85.3154 100.227 85.3528 100.713 85.4275 101.049C85.5396 101.423 85.8384 101.721 85.9504 102.095C86.0625 102.319 86.0625 102.319 85.8384 102.469C85.689 102.618 85.5396 102.655 85.4275 102.767C85.166 102.991 84.9045 103.178 84.531 103.29C85.0166 102.693 85.3154 101.796 85.2407 101.049C85.166 100.713 85.166 100.227 84.7551 100.115C84.4189 100.078 83.9707 100.302 83.8213 100.563C83.4851 100.75 83.373 101.086 83.1863 101.385C82.9995 101.647 82.8127 101.796 82.7754 102.17C82.626 102.805 82.2898 104 82.8127 104.486C81.991 104.971 81.2439 105.494 80.3848 105.868C80.4595 105.233 80.9451 104.635 81.1318 104.112C81.468 103.44 81.6548 102.618 81.6174 101.833C81.5801 101.385 81.5054 100.451 81.1318 100.115C80.9824 99.9658 80.7957 99.8538 80.6462 99.8538C80.7209 99.8538 80.2727 100.078 80.2727 100.078L79.7498 100.302C78.5544 100.974 78.0315 102.17 77.4712 103.29C77.1724 103.851 76.9482 104.374 76.8735 105.046C76.7988 105.419 76.7988 105.756 76.8735 106.092C76.8735 106.54 77.135 106.876 77.135 107.287C77.135 107.549 77.2097 107.399 77.0603 107.586C76.9482 107.735 76.7241 107.735 76.5374 107.773C76.2759 107.885 75.9771 108.034 75.6782 108.146C75.5288 108.146 75.4167 108.296 75.3047 108.258C74.9685 108.221 75.1553 108.258 75.1179 108.146C74.9312 107.773 75.0806 107.138 75.0806 106.839C75.1179 105.307 75.4541 104.112 76.2759 102.917C76.3879 102.655 77.2097 101.647 77.0603 101.385C77.0603 101.273 77.0229 101.236 76.9856 101.236C77.0603 100.937 77.0603 100.713 77.0603 100.526C76.9482 99.667 75.6782 99.3308 74.9312 99.4429C74.2588 99.667 73.6611 100.377 73.96 101.124C74.2588 101.759 74.9685 102.618 75.6035 102.655C75.6035 102.655 75.6035 102.693 75.6782 102.693C75.4541 103.29 75.0806 103.776 74.8191 104.374C74.6323 105.046 74.4082 105.905 74.4829 106.727L74.4829 107.735C74.4829 108.034 74.6697 108.333 74.4829 108.594C74.3335 108.781 73.9973 108.819 73.8105 108.893C73.4744 109.005 73.0261 109.267 72.7273 109.304C72.5779 109.342 72.0549 109.304 72.0176 109.117C71.9429 108.968 72.3538 108.482 72.4285 108.333C72.5779 108.146 72.5779 107.81 72.7273 107.549C72.802 107.212 72.9514 106.914 73.0261 106.615C73.1382 106.167 73.3623 105.419 73.2876 104.896C73.2502 104.635 73.1008 104.224 73.0261 104C72.9141 103.776 72.802 103.664 72.6899 103.552C72.3911 103.477 72.4658 103.514 72.2043 103.626C71.0464 104 70.0752 105.083 69.2161 106.167C68.469 107.138 67.9834 108.744 68.3196 110.089C68.3196 110.313 68.4316 110.313 68.2449 110.462C68.1702 110.5 67.9834 110.537 67.9087 110.612C67.4978 110.649 67.1616 110.686 66.7881 110.798C66.6013 110.836 65.929 111.06 65.9663 110.798C65.9663 110.612 66.4519 110.201 66.564 110.089C66.9001 109.603 67.0496 108.819 67.0869 108.221C67.0869 107.922 66.9375 107.586 66.6013 107.623C66.3772 107.698 66.0784 108.034 65.8542 108.146C65.2939 108.408 64.771 108.781 64.4348 109.304C64.248 109.603 64.0986 109.79 64.0239 110.014C63.9119 110.35 63.9866 110.724 63.9119 110.985C63.8372 111.284 63.9866 111.172 63.6504 111.284C63.501 111.359 63.1648 111.359 62.978 111.396L62.4551 111.471C62.1189 111.396 61.7827 111.396 61.4839 111.545C61.1851 111.62 60.9236 111.657 60.7368 111.657L60.6621 111.657C60.6248 111.657 60.5874 111.657 60.5127 111.695L60.4753 111.695C60.1392 111.695 59.7656 111.695 59.4294 111.732C59.3174 111.732 59.2427 111.807 59.1306 111.807C58.5703 111.807 58.01 111.844 57.375 111.807L57.0388 111.807C56.9268 111.807 56.8894 111.732 56.8147 111.732C56.4038 111.695 56.0303 111.695 55.6567 111.695C55.6194 111.657 55.6194 111.657 55.5447 111.657L55.5073 111.657C55.2085 111.657 54.8723 111.62 54.5361 111.545L53.2661 111.396C53.0793 111.359 52.7432 111.359 52.5938 111.284C52.2576 111.172 52.407 111.284 52.2949 110.985C52.2576 110.724 52.2949 110.35 52.2202 110.014C52.1082 109.79 51.9587 109.603 51.772 109.304C51.4358 108.781 50.9128 108.408 50.3899 108.146C50.1658 108.034 49.8669 107.698 49.6428 107.623C49.3066 107.586 49.1572 107.922 49.1572 108.221C49.1946 108.819 49.344 109.603 49.6802 110.089C49.7549 110.201 50.2405 110.612 50.2405 110.798C50.3152 111.06 49.6428 110.836 49.4561 110.798C49.0452 110.686 48.709 110.649 48.3354 110.612C48.2607 110.537 48.0366 110.5 47.9993 110.462C47.8125 110.313 47.9246 110.313 47.9246 110.089C48.2607 108.744 47.7751 107.138 46.9907 106.167C46.1316 105.083 45.1978 104 44.0398 103.626C43.741 103.514 43.853 103.477 43.5542 103.552C43.4048 103.664 43.3301 103.776 43.218 104C43.1433 104.224 42.9939 104.635 42.9192 104.896C42.8818 105.419 43.0686 106.167 43.218 106.615C43.2554 106.914 43.4048 107.212 43.5168 107.549C43.6663 107.81 43.6663 108.146 43.7783 108.333C43.8904 108.482 44.2639 108.968 44.2266 109.117C44.1892 109.304 43.6663 109.342 43.5168 109.304C43.218 109.267 42.7324 109.005 42.3962 108.893C42.2095 108.819 41.8733 108.781 41.7239 108.594C41.5371 108.333 41.7239 108.034 41.7239 107.735L41.7239 106.727C41.8359 105.905 41.6118 105.046 41.3877 104.374C41.1636 103.776 40.79 103.29 40.5286 102.693C40.6033 102.655 40.6406 102.655 40.6406 102.655C41.2756 102.618 41.9854 101.759 42.2842 101.124C42.5457 100.377 41.9854 99.667 41.313 99.4429C40.5286 99.3308 39.2959 99.667 39.1465 100.526C39.1465 100.713 39.1465 100.937 39.2585 101.236C39.2212 101.236 39.1465 101.273 39.1465 101.385C38.9971 101.647 39.8188 102.655 39.9683 102.917C40.79 104.112 41.1262 105.307 41.1636 106.839C41.1636 107.138 41.313 107.773 41.1262 108.146C41.0889 108.258 41.2756 108.221 40.9395 108.258C40.8274 108.296 40.678 108.146 40.5286 108.146C40.2671 108.034 39.9683 107.885 39.6694 107.773C39.4827 107.735 39.2959 107.735 39.1465 107.586C38.9971 107.399 39.1091 107.549 39.1091 107.287C39.1091 106.876 39.3333 106.54 39.3333 106.092C39.4453 105.756 39.4453 105.419 39.3333 105.046C39.2959 104.374 39.0718 103.851 38.7729 103.29C38.2126 102.17 37.6897 100.974 36.4944 100.302L35.9714 100.078C35.9714 100.078 35.5232 99.8538 35.5605 99.8538C35.4111 99.8538 35.2244 99.9658 35.1123 100.115C34.7014 100.451 34.6641 101.385 34.6267 101.833C34.552 102.618 34.7761 103.44 35.1123 104.112C35.2991 104.635 35.7473 105.233 35.8594 105.868C35.0002 105.494 34.2158 104.971 33.4314 104.486C33.9543 104 33.6182 102.805 33.4688 102.17C33.4314 101.796 33.2446 101.647 33.0205 101.385C32.8337 101.086 32.759 100.75 32.4229 100.563C32.2734 100.302 31.7878 100.078 31.4517 100.115C31.0781 100.227 31.0781 100.713 30.9661 101.049C30.9287 101.796 31.2275 102.693 31.7131 103.29C31.3022 103.178 31.0781 102.991 30.7793 102.767C30.7046 102.655 30.5552 102.618 30.4058 102.469C30.1816 102.319 30.1816 102.319 30.2563 102.095C30.4058 101.721 30.7046 101.423 30.7793 101.049C30.8914 100.713 30.9287 100.227 31.0408 99.8538C31.3022 98.397 30.9287 96.6787 30.3311 95.4087C30.1069 95.0725 29.8828 94.811 29.6587 94.4749C29.4346 94.2507 29.5093 93.9519 29.1357 94.064C28.5381 94.1387 28.3513 94.811 28.1272 95.2966C27.791 96.0811 27.4548 96.8281 27.4922 97.6873C27.4922 98.5464 27.6416 99.5176 27.8657 100.377C27.4548 100.115 27.0439 99.8538 26.7451 99.5176C26.4089 99.032 26.6331 98.8452 26.7451 98.397C26.9319 97.5378 26.8198 96.7908 26.4836 95.9316C26.4089 95.4834 26.1475 95.1472 25.8113 94.8857C25.7366 94.811 25.4377 94.5496 25.4004 94.5496C25.2883 94.5869 25.0642 94.9231 24.9895 94.9978C24.4666 95.9316 24.728 96.5293 24.728 97.5378C24.2798 97.1643 23.8689 96.7161 23.5327 96.2678C24.2051 95.7822 24.6533 95.2966 25.0642 94.5869C25.2136 94.1387 25.3257 93.8025 25.4377 93.429C25.5498 93.0181 25.4377 92.7939 25.4004 92.3831C25.3257 92.0095 25.4377 91.5613 25.4004 91.1877C25.2883 90.8142 25.0642 90.478 24.8774 90.1045C24.728 89.8057 24.5413 89.5068 24.2798 89.208C23.9436 88.9092 23.6821 88.9465 23.9436 88.573C23.7195 88.4609 23.6074 88.2368 23.2712 88.3115C23.1592 88.4236 22.9351 88.6477 22.823 88.7971C22.4868 89.2827 22.188 89.8057 22.0012 90.2913C21.5156 91.4866 21.553 92.7192 21.5156 93.9146C21.2915 93.9146 20.9553 93.3916 20.8059 93.2048C20.6191 93.0181 20.0215 92.4951 20.0215 92.2336C20.0215 92.0095 20.4324 91.5613 20.5071 91.4119C20.6938 91.1877 20.9553 90.8516 21.0674 90.5527C21.7024 89.4321 22.1506 88.0127 22.3748 86.7427C22.3748 86.3691 22.4868 86.033 22.2627 85.7715C22.1506 85.5474 21.9639 85.51 21.8145 85.6968C21.6277 85.8835 21.7024 86.2944 21.7024 86.5933L21.4783 87.6018C21.03 88.9092 20.5444 90.2913 19.6853 91.4119C19.3491 91.1877 19.0129 90.9636 18.7515 90.6274L18.2659 89.9551C18.1538 89.5442 18.49 89.5442 18.7515 89.2827C19.0876 89.0959 19.2744 88.7971 19.4612 88.4983C19.8721 87.9006 20.1709 87.1162 20.3577 86.3691C20.5444 85.6968 20.3203 84.875 20.1709 84.1279C20.0962 83.3809 19.8347 82.5964 19.3491 82.1108C19.3118 81.9988 19.2744 81.7747 19.125 81.7747C19.0129 81.7747 18.7515 81.9988 18.6394 82.0361L17.7803 82.6338C17.22 83.1567 17.1079 83.8665 16.9211 84.5388C16.697 85.3606 16.6223 86.1077 16.697 86.9668C16.2114 86.5186 15.8379 85.7715 15.5391 85.3232C15.3523 84.9871 15.0908 84.6882 15.3523 84.3521C15.5391 84.0532 15.8379 83.8291 16.062 83.5676C17.1079 82.4844 17.5562 81.3264 17.8923 79.8696C17.967 79.4587 18.0791 79.1226 18.1165 78.749C18.1538 78.4128 18.2659 78.2634 18.1165 77.9272C17.967 77.7405 17.9297 77.5911 17.7429 77.7405C17.4814 77.8899 17.4814 78.2261 17.4441 78.4502C17.22 79.7202 17.1079 80.9902 16.4355 82.1108L15.2402 83.4929C15.0908 83.6423 14.9788 83.8665 14.792 83.717C14.5679 83.6797 14.4932 83.3062 14.4558 83.1567L14.0076 82.2603C13.8955 81.9614 13.8208 81.7747 13.8955 81.5879C14.0076 81.4385 14.3438 81.2891 14.5679 81.1023C14.7173 80.9529 14.9041 80.8035 15.0535 80.5793C15.8379 79.7202 16.2861 78.5249 16.4355 77.4043C16.5476 76.8066 16.3608 76.1343 16.2114 75.4619C16.1741 74.9763 15.7632 74.6775 15.7258 74.2292C15.7258 73.9678 15.8379 73.7437 15.427 73.781C15.2029 73.781 15.0908 73.9304 14.9788 74.0798C14.5679 74.4907 14.0449 74.8643 13.8208 75.3499C13.1858 76.321 12.7749 77.5537 12.7749 78.7117C12.5881 78.0767 12.252 77.5911 12.0652 77.0308C11.9158 76.7319 11.4302 75.7607 11.5796 75.4246C11.6169 75.3125 12.252 75.1631 12.4387 75.0884C12.6255 74.9763 12.8496 74.7896 13.0364 74.6401C13.4846 74.2292 13.7087 73.781 13.8582 73.2954C14.0076 72.8098 14.1196 72.1748 14.0449 71.6892C14.0076 71.0916 13.7087 71.0916 13.2605 71.2783C12.7749 71.5024 12.4387 71.9133 12.1025 72.2495C11.729 72.7351 11.3928 73.146 11.1313 73.6689C11.094 73.4075 10.7578 72.4363 10.9072 72.1748C10.9819 72.0254 11.3928 72.0254 11.5049 71.9133L11.9905 71.6892C12.8123 71.241 13.4846 70.4192 14.0076 69.7095C14.5679 68.9624 14.9788 67.9165 15.0908 66.9453C15.2029 66.0862 15.5017 64.8909 14.8667 64.2559L14.5679 64.5547C14.3811 64.592 14.3438 64.5173 14.157 64.4426C13.8955 64.4053 13.7087 64.592 13.4846 64.7415C12.9617 65.0403 12.4761 65.3018 12.1025 65.75C11.2434 66.5718 10.9446 67.7671 10.4216 68.7756C10.0107 68.0286 10.1228 66.908 10.0481 66.0488C9.93604 65.5632 9.93604 65.0403 10.0107 64.592C10.0481 64.2185 10.0854 64.2185 10.5337 64.1064L11.1313 63.9197C12.0652 63.7329 12.9617 63.322 13.8208 62.7991C14.1943 62.5002 14.6799 62.2761 15.1655 61.9399C15.7258 61.9773 16.4355 62.1267 17.1079 62.1267C17.8176 62.1267 18.5647 61.9773 18.9382 61.5291C19.6479 60.9314 19.2371 59.8855 18.4153 59.2878C17.967 58.7649 17.1079 58.9517 16.5476 59.5493C16.062 59.9602 15.7632 60.5205 15.3896 60.9688C14.792 61.4543 14.157 61.8279 13.4846 62.1641C12.6255 62.5376 11.9531 63.0232 11.094 63.322L10.571 63.4714C10.4216 63.5461 10.2722 63.5461 10.1975 63.5461C10.0481 63.5088 9.93604 63.3967 10.0854 63.322C10.0481 62.8364 10.0107 62.3508 10.0481 61.9773C11.5049 62.052 13.1111 61.417 14.0449 60.4458C14.5679 59.8855 15.1655 59.2131 15.3896 58.4287C15.427 58.1299 15.5391 57.8684 15.5391 57.5322C15.5391 57.3828 15.427 57.2334 15.5017 57.084C15.5017 56.8972 15.5764 56.8225 15.6511 56.6731C15.8379 55.3284 12.9617 56.8599 12.5881 57.196C12.0652 57.6816 11.6169 58.1299 11.2061 58.6902C10.9072 59.0637 10.571 59.9976 10.0481 60.2217C10.1975 59.624 10.0854 59.0264 10.1975 58.4287C10.2722 57.9431 10.3843 57.4202 10.4216 56.8972C10.4216 56.3743 10.571 55.8887 10.6458 55.3657C10.7578 55.0295 10.7205 54.5066 10.8699 54.021C11.0566 53.498 11.2434 53.8342 11.6169 53.9836C12.0652 54.1704 12.6255 54.2451 13.1111 54.2451C14.0076 54.2451 15.0535 54.2825 16.0247 54.021C16.5103 53.9089 16.9211 53.6848 17.22 53.4607C17.4441 53.2739 17.6309 53.1245 17.8176 52.9004C17.9297 52.751 17.9297 52.4895 18.0791 52.3774C18.2659 52.116 18.4153 52.1533 18.2659 51.8918C18.3779 51.7424 18.3779 51.6304 18.2659 51.593L18.0791 51.4062C17.7056 51.1074 17.2573 50.958 16.9211 50.7712C16.2861 50.5845 15.6511 50.5098 15.0161 50.5098C13.6714 50.5098 12.4014 50.9207 11.4302 51.9292C11.3181 51.4436 11.6169 50.958 11.6543 50.5471C11.7664 50.323 11.8037 50.1736 11.8037 49.8748L11.9531 49.5759C11.9531 49.3892 12.1025 49.3518 12.2893 49.5012C12.7749 49.4639 13.2605 49.5759 13.8208 49.5012C14.1196 49.3892 14.4932 49.2397 14.8293 49.0156C15.1655 48.7915 15.3149 48.3806 15.5017 48.0071C15.6885 47.8203 15.7258 47.4841 15.5017 47.2974C15.1655 46.9985 14.4558 46.9612 14.0449 46.9985C13.5967 46.9985 13.1484 47.3721 12.6255 47.3721C12.9243 46.5129 13.2605 45.7659 13.5967 44.9067C13.7834 44.4585 13.8955 44.085 14.0449 43.6741C14.2317 43.3379 14.4932 43.1511 14.5679 42.8149C15.5764 44.0103 17.7056 44.2344 19.1624 44.0103C20.0215 43.8608 20.6565 43.4126 21.2915 42.8523C21.7024 42.4788 22.4868 42.1426 21.8145 41.5449C20.6938 40.6858 19.0129 40.4617 17.7056 40.499C17.3694 40.499 17.0706 40.499 16.697 40.6484C16.4355 40.7979 15.9126 41.134 15.6885 41.0967C15.3149 41.0967 15.5391 40.7979 15.6885 40.499C15.8379 40.2002 16.0247 39.9387 16.2488 39.752C16.2861 39.6399 16.3982 39.5652 16.5103 39.4531C16.585 39.3037 16.697 39.3037 16.8464 39.4158L17.1079 39.6025C17.3694 39.6772 17.5935 39.8267 17.9297 39.8267C18.6021 39.8267 19.4985 39.5652 20.0215 39.0796C20.2083 38.7808 20.4697 38.4819 20.283 38.2205C20.1709 38.0337 20.0215 37.959 19.8721 37.8096C19.3491 37.5854 18.6394 37.5481 18.1165 37.5854C17.7803 37.6228 17.5562 37.7722 17.5935 37.3613C17.6309 37.2119 17.8176 36.9504 17.9297 36.8757L18.2659 36.3901C18.6021 36.166 18.3032 36.3154 18.6021 36.3901C18.9009 36.5396 19.2744 36.8757 19.4985 37.0625C20.7686 37.9216 22.3748 38.4446 23.7568 38.3699C24.093 38.2578 24.728 38.3699 24.9521 38.2205C25.2883 38.071 25.4004 37.7349 25.0642 37.5854C24.728 37.5107 24.3545 37.5854 24.0183 37.5854L22.9351 37.5854C21.3662 37.5107 20.1335 36.5769 18.6021 35.9792C18.7515 35.5684 19.0129 35.3069 19.2744 35.0454C19.4238 34.896 19.6106 34.3357 19.76 34.2983C19.9468 34.1863 20.4324 35.1575 20.5444 35.3069C20.8433 35.531 21.2915 35.8298 21.7024 36.0166C22.5615 36.5022 23.6074 36.8757 24.728 36.8757C25.251 36.8757 25.6245 36.7637 26.0728 36.5396C26.2969 36.3528 26.4089 36.2407 26.4463 35.9792C26.4836 35.8298 26.4836 35.5684 26.4463 35.4189C26.1475 35.531 26.1475 35.531 25.8486 35.3069L25.2883 34.6719C24.8774 34.3357 24.4666 34.0369 23.9436 33.8501C22.8977 33.3645 21.8518 33.2898 20.5444 33.2898C20.9553 32.6548 21.553 32.2439 22.0386 31.7209C22.5242 32.5801 23.3459 33.2524 24.3545 33.2898C24.9521 33.2898 25.3257 33.1404 25.2136 32.6174C25.1016 32.1692 24.9521 31.7583 24.6533 31.3848C24.3918 31.0486 24.0183 30.8618 23.6074 30.7124C23.2339 30.5256 23.1592 30.5256 23.4207 30.1895C23.5327 30.0027 23.7942 29.6665 24.0183 29.5171C24.3545 29.3303 24.2798 29.5171 24.4666 29.7786C24.5786 30.0027 24.728 30.1895 24.9148 30.3389C25.2136 30.7124 25.6619 30.9365 26.0728 31.1233C26.9319 31.5715 28.3887 31.6462 29.3599 31.4221C29.8828 31.3101 30.4058 31.0859 30.7793 30.8618C30.7793 30.7498 31.1155 30.4136 31.0408 30.2268C30.9287 30.0774 30.7793 30.2268 30.6299 30.1895C30.2563 30.0774 29.8828 29.405 29.5466 29.1436C29.2478 28.8074 28.7996 28.4712 28.3513 28.2471C27.9778 28.135 27.3054 27.9482 26.8572 27.9482C26.4089 27.9856 25.9607 28.2097 25.4377 28.0229C26.0728 27.6121 26.5957 26.9771 27.156 26.4915C27.6416 26.0059 28.1272 25.6697 28.6501 25.2961C29.1357 24.8105 29.6587 24.5491 30.219 24.2502L30.5178 24.1382L30.5178 24.2502C30.5552 24.5491 30.7793 24.7358 30.9661 24.9226C31.1902 25.1467 31.3022 25.4082 31.5264 25.5576C32.0867 26.0059 32.759 26.342 33.3567 26.6035C33.8423 26.7529 37.2415 27.5374 37.2415 26.7529C37.2788 26.3047 35.7473 26.2673 35.4858 26.2673C34.7761 26.2673 34.1411 26.1926 33.4688 25.8564C32.9084 25.6323 32.2734 25.2961 31.7878 24.8853C31.6011 24.7358 31.4143 24.437 31.1902 24.1008L30.8914 23.6899C31.1155 23.4658 31.377 23.2791 31.6011 23.2043C31.7878 23.0923 31.7878 23.0176 31.9746 23.167C32.0867 23.2417 32.1614 23.4658 32.2734 23.6152C32.4229 23.8767 32.647 24.1008 32.9458 24.3623C33.4688 24.7358 34.0291 25.072 34.6641 25.2961C35.2991 25.5576 36.0835 25.5576 36.8679 25.5576C37.2415 25.5576 37.5029 25.4456 37.8018 25.2961C38.1006 25.072 38.1006 24.9226 38.4368 25.1094C38.4741 24.9226 38.6982 24.7358 38.6982 24.5864C38.6982 24.437 38.3994 24.0635 38.2874 23.9141C38.0259 23.5405 37.7644 23.167 37.3535 22.8682C36.3823 22.2332 35.4111 22.009 34.3652 21.7476C35.187 20.7017 36.6064 20.3281 37.8765 19.6931C37.9138 19.6931 37.9138 19.6931 37.9512 19.6558C38.1379 19.9546 38.3994 20.1787 38.5488 20.3281C38.5488 20.3281 38.6982 20.4775 38.885 20.5522C38.9597 20.5522 38.9597 20.5149 38.9597 20.5149C39.5574 20.4402 40.3044 19.5811 40.6033 18.946C40.6406 18.7593 40.678 18.6099 40.6406 18.4604C40.8274 18.4231 41.0142 18.4231 41.2009 18.311C41.3877 18.6099 41.6118 18.834 41.8359 19.0208C41.8359 19.0208 41.9854 19.1702 42.1721 19.2822C42.2842 19.2822 42.3215 19.2449 42.3215 19.2449C42.9192 19.1328 43.6663 18.3857 43.9277 17.7507C44.2266 16.9663 43.6663 16.2939 42.9939 16.1072C42.2095 15.9951 41.0142 16.2939 40.8647 17.0784C40.8274 17.3772 40.8647 17.6387 40.9768 17.9375L40.5286 18.0869C40.3418 17.7134 39.9683 17.4519 39.5947 17.3025C38.9224 17.1904 37.7271 17.4893 37.5776 18.3857C37.5029 18.6099 37.5776 18.946 37.7644 19.2822L36.3076 19.9546C36.3076 19.9546 36.2329 20.104 36.1582 20.104C36.1582 20.1414 36.0088 20.1414 35.8967 20.1787C35.71 20.1787 35.4111 20.4402 35.4111 20.1414C35.4111 19.9919 35.8967 19.469 35.9714 19.3569C36.0835 19.1328 36.3076 18.9087 36.3823 18.6472C36.9426 17.7134 37.6897 16.7048 37.615 15.5469C37.615 15.0613 37.615 14.2395 37.0173 14.2395C36.4944 14.1648 35.8967 14.5757 35.4858 14.9119C34.7014 15.6589 34.0291 16.7048 33.6182 17.6387C33.2446 18.7593 33.0952 19.8425 33.3193 21.0752C33.3567 21.4114 33.4314 21.6355 33.0205 21.7476L32.2734 21.897C32.1614 21.9717 31.4517 22.1584 31.4143 22.2705C31.3022 22.4199 31.7131 22.6067 31.4143 22.6814C31.0781 22.8682 31.1155 22.6067 31.1902 22.4199L31.3022 21.7102C31.4143 21.2246 31.377 20.4402 31.1902 19.9546C31.1155 19.6931 30.854 19.3196 30.7793 19.1702C30.5552 18.9834 30.4431 18.9087 30.219 19.0208C29.696 19.2822 29.6587 19.7678 29.5466 20.2908C29.4346 20.9631 29.3225 21.5608 29.2478 22.1958C29.2478 22.532 29.3225 22.7561 29.3599 23.0923C29.4346 23.4658 29.584 23.6899 29.3599 24.0261C29.1357 24.3997 28.6501 24.7358 28.2019 24.9226C27.9778 25.072 27.8657 25.2961 27.6416 25.5576C27.4548 25.6697 27.3054 25.6697 27.0439 25.6697C27.4548 25.2961 27.7163 24.5864 28.0151 24.1008C28.314 23.4658 28.5007 22.6814 28.5007 22.0837C28.6501 21.3367 28.1646 20.7764 27.8284 20.104C27.679 19.8799 27.6042 19.469 27.2681 19.469C27.0066 19.469 27.0439 19.6184 26.9692 19.7678L26.7451 20.104C25.9607 21.0378 25.3257 22.009 25.0642 23.167C24.8774 23.7646 24.7654 24.4744 24.8774 25.072L25.1389 26.0059C25.251 26.1926 25.5498 26.5288 25.5498 26.7903C25.5872 26.865 25.3257 27.3506 25.251 27.5374C25.1016 27.7241 24.7654 27.8362 24.5786 28.0229C24.3918 28.2097 24.1304 28.5833 23.9436 28.658C23.6821 28.8074 23.6074 28.5833 23.5327 28.3218C23.3459 27.7988 23.2712 27.2012 23.2339 26.6409C23.2339 26.0059 23.3459 25.4082 23.3833 24.8105C23.3833 24.1382 23.458 23.4658 23.7195 22.8308C23.7568 22.6814 24.0183 22.3452 24.0557 22.009C24.2424 21.7102 24.3918 21.5234 24.3918 21.374C24.4292 20.8511 24.4666 20.3281 24.093 19.9546C23.5327 19.3569 22.5989 19.1702 22.2253 19.6931C21.4036 20.2908 20.9927 21.4114 21.7024 22.0464C22.3374 22.6814 22.4868 23.0176 22.9351 23.0923C22.8604 23.6899 22.823 24.2502 22.823 24.3997C22.7109 24.9973 22.7483 25.7444 22.7109 26.4167C22.6736 26.9397 22.6736 27.6121 22.823 28.135L23.1592 29.0688C23.3459 29.4424 23.1592 29.5544 22.9351 29.8533C22.5615 30.3389 22.1506 30.7498 21.7024 31.0859C22.0386 30.04 22.823 28.8447 22.4868 27.6868C22.3748 27.3506 22.2253 27.1265 22.0386 26.865C21.9639 26.7903 21.7397 26.2673 21.6277 26.1926C21.4036 26.1179 21.4036 26.1926 21.2168 26.1926C20.9553 26.3047 21.03 26.3047 20.8806 26.5288C20.7686 26.7529 20.6938 26.9397 20.5071 27.1265C19.76 28.135 19.4985 29.3303 19.6853 30.7124C19.76 30.9739 19.8347 31.2727 19.9468 31.5715C20.0215 31.7957 20.3577 32.2439 20.3577 32.468C20.3577 32.8042 19.6853 33.4766 19.4612 33.6633C19.4238 32.8042 19.3118 32.2439 18.5647 31.6089C18.1538 31.3101 17.9297 31.198 17.7429 31.7583C17.5935 32.1318 17.5935 32.6548 17.5935 33.1404C17.7056 33.4766 17.8176 33.8501 17.967 34.1489C18.1165 34.4478 18.49 34.7839 18.4153 35.0454C18.3779 35.1575 18.1538 35.3069 18.0791 35.3069C17.9297 35.3069 18.0791 35.1575 17.9297 35.0454C17.8176 35.0454 17.8923 34.8586 17.7056 34.896C17.6309 34.896 17.5562 35.3069 17.4814 35.3442C17.2573 35.1948 17.3694 34.896 17.2573 34.6719C17.22 34.3357 17.0706 34.0369 16.9211 33.8127C16.7344 33.4766 16.3608 32.5801 15.9873 32.5801C15.6511 32.5801 15.7258 32.8416 15.8379 33.0283C15.8379 33.1777 15.9873 33.3271 15.9873 33.4766C15.9873 33.626 15.8752 33.6633 15.7258 33.7754C15.3523 34.1116 15.0908 34.5225 14.8667 35.0454C14.4932 35.7178 14.3064 36.5022 14.3064 37.2493C14.3064 37.7349 14.3811 38.2205 14.5305 38.7061C14.7173 39.1169 15.2402 39.6772 15.2029 40.1628C15.0908 40.7605 14.6426 41.3582 14.3064 41.8064C14.0076 41.2834 13.8582 40.6111 13.3726 40.2002C13.1111 39.9761 12.5134 39.6772 12.1399 39.7893C11.4302 39.9761 12.252 41.9932 12.5134 42.3667L12.9243 42.8896C13.1111 43.0017 13.3352 43.1511 13.4846 43.3379C13.7087 43.6741 13.2605 44.3464 13.1111 44.6826C12.9243 45.2056 12.6628 45.6538 12.5134 46.1021C12.2893 46.5876 12.252 47.0732 11.9531 47.4468C12.0652 47.1106 12.1399 46.7371 12.1772 46.2515C12.252 45.99 12.1399 45.7659 12.1399 45.4297C12.1399 44.7573 12.1399 44.1223 11.8037 43.562C11.5796 43.0017 11.094 42.5908 10.6458 42.2173C10.459 42.0679 10.1975 41.7317 9.93604 41.8064C9.59985 41.9558 9.86133 42.3667 9.78662 42.5908C9.74927 43.1885 9.41309 43.7114 9.33838 44.2717C9.22632 44.9067 9.18896 45.5791 9.26367 46.1394C9.37573 46.8491 9.78662 47.4841 10.1975 48.0071C10.3843 48.2686 10.571 48.53 10.7205 48.6794L11.0566 48.9783C11.094 48.9783 11.3928 49.0156 11.3928 49.0156C11.4302 49.053 11.4302 49.053 11.4675 49.0156L11.4675 49.165C11.4675 49.3518 11.4302 49.5012 11.3928 49.5759C11.2808 49.8748 11.1313 50.2483 11.094 50.6592C11.0566 51.1074 10.9072 51.8545 10.2722 51.1074C9.89868 50.6592 9.74927 49.9868 9.45044 49.4639C9.22632 49.0156 8.74072 48.53 8.55396 47.9697C8.36719 47.3347 8.36719 46.5129 8.21777 45.9153C8.18042 45.6165 8.03101 45.467 7.91895 45.467C7.73218 44.7573 8.14307 43.8982 7.62012 43.4126C7.02246 42.8896 6.12598 42.7029 5.64038 43.1885C4.93066 43.7114 4.48242 44.7947 5.15479 45.467C5.78979 46.1768 6.68628 46.1021 7.62012 45.99C7.54541 46.5129 7.80688 47.26 7.91895 47.8203C8.03101 48.3806 8.25513 48.9036 8.59131 49.3892C9.0022 49.9121 9.11426 50.5845 9.45044 51.1074C9.67456 51.3689 9.78662 51.5557 10.0481 51.7424C10.1228 51.8545 10.6084 51.9666 10.6458 52.116C10.7952 52.2654 10.571 52.9004 10.571 53.1245L10.3096 54.021C10.2349 54.5066 10.2722 55.179 9.93604 55.5525C9.78662 55.1416 9.74927 54.656 9.59985 54.1704C9.45044 53.6475 9.0769 53.3486 8.66602 53.0498C8.25513 52.751 7.80688 52.2654 7.20923 52.228C6.83569 52.1533 6.79834 52.1533 6.64893 52.4895C6.53687 52.751 6.49951 53.1245 6.46216 53.3486C6.20068 54.4319 6.27539 55.5525 6.98511 56.3369C7.65747 57.084 8.03101 57.8684 8.89014 58.3914C9.03955 58.4661 9.33838 58.5408 9.45044 58.6902C9.67456 58.6902 9.74927 58.7649 9.67456 59.0264L9.67456 59.3999C9.59985 59.9229 9.71191 60.5952 9.11426 59.9976C8.89014 59.624 8.55396 59.2505 8.06836 59.1384C7.99365 59.0264 7.88159 59.0264 7.80688 59.1384C7.69482 59.2505 7.65747 59.3999 7.65747 59.5493C7.54541 59.8108 7.50806 60.1096 7.54541 60.4084C7.62012 61.1929 7.91895 62.687 8.59131 63.322C9.03955 63.6956 9.41309 63.7329 9.5625 64.2559C9.59985 64.7788 9.5625 65.3018 9.45044 65.8994C9.22632 65.5632 9.22632 65.2271 9.03955 64.9282C9.0022 64.7415 8.89014 64.7415 8.70337 64.592C8.55396 64.5173 8.5166 64.4426 8.40454 64.2559C8.14307 63.8823 7.50806 63.4714 7.05981 63.322C6.64893 63.1353 6.46216 63.1353 6.20068 63.4714C6.16333 63.5835 5.93921 63.7329 5.8645 63.8823C5.8645 63.9944 5.93921 64.2559 5.97656 64.4053C6.01392 65.1897 6.08862 65.8994 6.3501 66.5718C6.64893 67.2815 7.05981 67.9165 7.65747 68.5142C8.14307 68.9998 8.59131 69.5227 9.37573 69.6348C9.74927 69.7095 9.86133 69.5601 9.93604 69.9709C10.0481 70.3445 10.0481 70.8301 10.0854 71.241L10.7205 73.6316C9.5625 73.146 8.59131 72.4736 7.80688 71.5771C7.35864 71.0916 7.05981 70.5686 6.83569 70.0457C6.72363 69.8962 6.64893 69.7842 6.53687 69.7095C6.31274 69.1118 5.8645 68.6636 5.34155 68.6636C4.7439 68.6636 3.92212 69.448 3.58594 70.0457C3.58594 70.0457 3.47388 70.1951 3.43652 70.3818C3.43652 70.4939 3.47388 70.4939 3.47388 70.4939C3.73535 71.0916 4.7439 71.6145 5.34155 71.7266C5.97656 71.8386 6.4248 71.5024 6.64893 70.9795C7.02246 71.7266 7.54541 72.3616 8.21777 73.0339C8.59131 73.2954 9.11426 73.6316 9.59985 73.9304C10.0481 74.2292 10.571 74.4907 10.7205 73.8184L11.0566 75.1631C11.094 75.6113 11.3181 75.9849 11.3181 76.3584C11.094 76.209 11.0566 75.8354 10.8699 75.686L10.2722 75.1257C9.74927 74.7896 9.22632 74.416 8.5166 74.3413C8.25513 74.304 7.84424 74.304 7.69482 74.4907C7.50806 74.6401 7.54541 75.0884 7.62012 75.2751C7.65747 75.9475 7.84424 76.4705 8.14307 76.9934C8.40454 77.479 8.70337 78.1514 9.11426 78.5623C9.45044 79.0479 10.0481 79.1973 10.6084 79.3467C10.9446 79.4214 11.2434 79.4587 11.6169 79.4587L12.1399 79.6455C12.4387 79.7202 12.4387 79.7202 12.5881 79.9443L12.999 81.1023C13.1111 81.3264 13.3352 81.6252 13.2979 81.8494C12.4761 81.3264 11.8037 80.6541 10.7952 80.8035C9.5625 80.9902 10.5337 82.0361 11.0566 82.4844C11.3928 82.7832 11.729 83.0073 12.1399 83.2314C12.4761 83.3809 12.7749 83.3435 13.1858 83.3809C13.634 83.3809 13.9702 83.3809 14.1943 83.717C14.4932 84.2026 14.7173 84.7629 14.8667 85.3232C14.2317 84.9124 13.8208 84.3521 13.1484 83.9785C12.7749 83.717 12.4387 83.6423 12.0652 83.5303C11.6543 83.4556 11.2434 83.2314 10.9072 83.2314C10.6458 83.2314 10.0481 83.3435 9.89868 83.5676C9.78662 83.717 9.93604 84.24 10.0107 84.4268C10.1975 85.2112 10.4216 85.5847 10.9072 86.1077C11.8037 87.3777 13.8208 88.4236 15.3896 88.3489C15.7258 88.3115 16.0994 88.1248 16.4355 88.1248C16.697 88.1248 16.7717 88.3489 16.9211 88.573C17.2573 89.0959 17.5935 89.6936 17.9297 90.2913C17.3694 90.1418 17.0332 89.9551 16.3608 89.9551C15.9873 89.9551 15.3523 89.9924 15.2029 90.478C15.1655 90.8889 15.7258 91.3745 16.062 91.5613C16.5103 91.8975 17.0332 92.0095 17.3694 92.3831C17.1079 92.5325 16.2861 92.5325 16.2114 92.9434C16.062 93.3542 16.585 94.1013 16.8464 94.4001C17.3694 95.2966 18.2659 95.7449 19.2744 96.2678C19.7974 96.5293 20.1709 96.7161 20.8059 96.8281C21.4036 96.9402 21.9639 96.8655 22.4868 96.6787C22.823 96.4919 22.8604 96.3799 23.1592 96.6787L23.6821 97.2017C23.9062 97.3884 24.093 97.6873 24.2051 97.874C23.458 98.3223 22.5615 98.509 21.665 98.509C21.0674 98.509 20.5444 98.397 20.0215 98.2476L18.6768 97.8367C18.4526 97.5752 18.1538 97.4631 17.8923 97.4631C17.22 97.4631 16.5103 98.2102 16.1741 98.7705C16.1741 98.7705 16.062 98.8826 16.0247 99.1067C16.0247 99.2188 16.062 99.2188 16.062 99.2188C16.2861 99.8538 17.22 100.414 17.8923 100.563C18.6768 100.638 19.2744 99.9285 19.3118 99.2188C19.3118 99.032 19.2744 98.8826 19.2371 98.7332C20.2083 99.032 21.3662 99.2561 22.4121 99.032C23.1965 98.9946 23.8689 98.6584 24.616 98.397C24.8774 98.3596 24.7654 98.3596 24.9521 98.397C25.1016 98.5464 25.2883 98.7705 25.4377 98.8826C25.6619 99.032 25.9607 99.3682 26.1475 99.5923C25.4751 99.7791 24.6533 99.3308 23.9436 99.4055C23.4207 99.4429 22.4121 99.667 22.1506 100.115C21.8145 100.713 22.4868 101.236 22.823 101.572C23.1592 101.983 23.9436 102.356 24.4666 102.506C25.9233 102.917 27.1934 102.506 28.3887 101.983C28.6501 101.908 28.5754 101.833 28.8369 101.983C28.9863 102.058 29.1731 102.17 29.3225 102.319L29.8828 102.655C30.1069 102.842 30.3684 103.029 30.5552 103.29C30.4058 103.44 29.9949 103.514 29.7708 103.552C29.4346 103.701 29.1731 103.776 28.8743 103.776C28.2019 103.851 27.6416 104.037 26.9692 104.037C26.6331 104 26.3342 104 26.0728 103.851C25.8113 103.813 25.4377 103.664 25.2883 103.851C24.9895 104.224 25.9233 104.56 26.2595 104.635C26.7825 104.747 27.3054 104.56 27.9404 104.56C28.5381 104.523 29.1731 104.448 29.7334 104.299C30.0696 104.187 30.3311 104.037 30.6299 104C30.854 103.851 31.0781 103.776 31.3022 103.776C31.9373 104 32.4602 104.523 32.9832 104.822C32.3855 104.859 31.7878 104.822 31.1902 105.009C30.7793 105.195 30.0322 105.419 29.7708 105.868C29.5093 106.353 30.0696 106.876 30.4431 107.138C30.854 107.549 31.5264 107.773 32.0867 108.034C33.2446 108.296 34.8135 108.146 35.7473 107.399C35.8967 107.287 36.3076 106.876 36.4944 106.876C36.7559 106.839 36.9053 107.063 37.092 107.212C37.2415 107.399 37.615 107.698 37.8765 107.735C38.0259 107.773 38.1006 107.698 38.2126 107.735C38.3621 107.735 38.4368 107.81 38.5862 107.922L37.4282 108.221C37.2041 108.258 37.0173 108.333 36.8306 108.594C36.3076 109.267 37.4282 109.603 37.9138 109.678C38.6982 109.79 39.3333 109.603 40.0056 109.155L40.5286 108.781C40.678 108.781 41.0142 108.968 41.1262 108.968L42.2842 109.454C41.1636 109.678 40.0056 109.977 39.3333 110.948C38.9597 111.396 39.3333 111.657 39.8188 111.882C40.3418 112.143 40.8274 112.367 41.3877 112.33C42.5083 112.218 43.5168 112.367 44.4507 111.882C44.8616 111.657 45.2725 111.284 45.7207 110.985C45.9448 110.836 46.0942 110.836 46.3931 110.948C46.5798 110.985 46.7292 110.985 46.8413 110.985C46.9534 110.985 46.9907 110.948 47.1401 110.948C47.3269 110.836 48.5596 111.022 48.6716 111.172C48.7837 111.359 47.8499 111.882 47.6631 111.919C47.3643 112.143 46.8413 112.255 46.4678 112.405C46.281 112.517 46.0942 112.591 45.9075 112.666C45.7581 112.741 45.5713 112.815 45.3845 112.853L45.0857 112.853C44.4507 112.853 43.7036 113.6 43.4048 114.235C43.4048 114.235 43.3301 114.384 43.2554 114.608C43.2554 114.72 43.3301 114.72 43.3301 114.72C43.5168 115.281 44.4507 115.804 45.0857 115.916C45.9448 115.99 46.5051 115.318 46.5798 114.72C46.5798 114.235 46.3184 113.675 45.9448 113.264L46.7666 112.927C47.2522 112.853 47.6257 112.741 48.1113 112.554C48.4849 112.33 48.8958 112.031 49.1946 111.732L49.4561 111.508C49.6802 111.359 49.5681 111.471 49.8296 111.471C50.0164 111.396 50.3899 111.508 50.5767 111.545C51.249 111.695 51.9214 111.807 52.5938 111.882C52.3696 112.068 52.1455 112.33 52.0708 112.554C51.5105 113.936 54.0879 114.945 54.7976 113.712L54.6855 113.562ZM59.1306 116.7C59.5789 116.289 59.4294 115.206 59.0559 114.72C58.533 113.861 57.3376 114.384 56.5532 114.608C56.3291 114.907 56.1423 115.281 56.217 115.729C56.217 116.177 56.5159 116.327 56.8894 116.625C57.3376 117.036 57.5244 117.298 58.0847 117.186C58.4209 117.036 59.0186 116.85 59.1306 116.7Z"/>
		<path transform="translate(70 50)" d="M0 -10.3057L-4.26624 -8.07183L-4.22908 -8.07183C-4.39368 -7.94506 -4.5 -7.74419 -4.5 -7.51808C-4.5 -7.13462 -4.19421 -6.82377 -3.81701 -6.82377L3.81701 -6.82377C4.19421 -6.82377 4.5 -7.13462 4.5 -7.51808C4.5 -7.74419 4.39368 -7.94506 4.22908 -8.07183L4.26623 -8.07183L0 -10.3057ZM-3.22581 -6.50114L-2.11542 -6.50114L-2.11542 -1.85229L-3.22581 -1.85229L-3.22581 -6.50114ZM-0.471964 -6.50114L-1.58235 -6.50114L-1.58235 -1.85229L-0.471964 -1.85229L-0.471964 -6.50114ZM0.266532 -6.50114L1.37692 -6.50114L1.37692 -1.85229L0.266532 -1.85229L0.266532 -6.50114ZM3.22581 -6.50114L2.11542 -6.50114L2.11542 -1.85229L3.22581 -1.85229L3.22581 -6.50114ZM-3.29056 -1.351C-3.67029 -1.351 -3.98067 -1.0491 -4.00207 -0.668519C-4.28936 -0.5865 -4.5 -0.318257 -4.5 0C-4.5 0.383456 -4.19421 0.694309 -3.81701 0.694309L3.81701 0.694309C4.19421 0.694309 4.5 0.383456 4.5 0C4.5 -0.318257 4.28936 -0.5865 4.00207 -0.668519C3.98067 -1.0491 3.67029 -1.351 3.29056 -1.351L-3.29056 -1.351Z" fill-rule="evenodd"/>
		<path transform="translate(44.5 53.5)" d="M9.92139 5.09082L9.08643 5.09082L9.08643 6.90137Q9.08643 7.44189 9.22485 7.57153Q9.36328 7.70117 9.86865 7.72314Q9.9126 7.76709 9.9126 7.87476Q9.9126 7.98242 9.86865 8.01758Q8.96777 8 8.7085 8Q8.41846 8 7.53516 8.01758Q7.5 7.98242 7.5 7.87476Q7.5 7.76709 7.53516 7.72314Q8.04053 7.70557 8.18115 7.57373Q8.32178 7.44189 8.32178 6.90137L8.32178 3.29346Q8.32178 2.75293 8.18115 2.62329Q8.04053 2.49365 7.53516 2.47607Q7.5 2.44092 7.5 2.33105Q7.5 2.22119 7.53516 2.17725L8.69971 2.19482L10.998 2.19482Q11.2354 2.19482 11.4199 2.15967Q11.4507 2.15967 11.4551 2.18604Q11.5518 2.70459 11.6484 3.49121Q11.5298 3.53516 11.3716 3.53516Q11.2617 3.18359 11.1365 2.99463Q11.0112 2.80566 10.7322 2.68042Q10.4531 2.55518 9.99609 2.55518L9.40723 2.55518Q9.08203 2.55518 9.08643 2.86279L9.08643 4.75244L9.92139 4.75244Q10.4707 4.75244 10.5959 4.64478Q10.7212 4.53711 10.7432 4.13721Q10.7783 4.09326 10.886 4.09326Q10.9937 4.09326 11.0376 4.13721Q11.02 4.67773 11.02 4.91504Q11.02 5.07764 11.0376 5.70605Q10.9937 5.75 10.886 5.75Q10.7783 5.75 10.7432 5.70605Q10.7256 5.46436 10.6882 5.35889Q10.6509 5.25342 10.4707 5.17212Q10.2905 5.09082 9.92139 5.09082ZM14.373 5.90381L13.6611 6.09277Q12.8042 6.30811 12.8086 7.08154Q12.8086 7.32324 12.9734 7.52319Q13.1382 7.72314 13.4546 7.72314Q13.771 7.72314 14.2456 7.33203Q14.373 7.24414 14.373 7.09912L14.373 5.90381ZM14.373 7.56934L14.3555 7.56934L14.1753 7.70996Q13.8765 7.94287 13.6875 8.01538Q13.4985 8.08789 13.1953 8.08789Q12.6812 8.08789 12.3713 7.85498Q12.0615 7.62207 12.0615 7.1167Q12.0615 6.66846 12.4702 6.32568Q12.8789 5.98291 13.5469 5.81152L14.3203 5.62256Q14.373 5.60498 14.373 5.51709Q14.373 4.34814 13.6436 4.34814Q13.3447 4.34814 13.1206 4.44263Q12.8965 4.53711 12.8965 4.72607Q12.8965 4.85352 12.9141 4.90186Q12.9404 4.95459 12.9404 5.06445Q12.9404 5.16553 12.8328 5.2644Q12.7251 5.36328 12.5449 5.36328Q12.2285 5.36328 12.2329 5.04688Q12.2329 4.67773 12.7009 4.36353Q13.1689 4.04932 13.7183 4.04932Q15.0762 4.04932 15.0762 5.56982L15.0762 6.91016Q15.0762 7.16943 15.0894 7.30566Q15.1025 7.44189 15.1882 7.55835Q15.2739 7.6748 15.4365 7.6748Q15.5464 7.6748 15.6255 7.60449Q15.7046 7.53418 15.7134 7.53418Q15.7397 7.53418 15.7859 7.58691Q15.832 7.63965 15.832 7.68359Q15.832 7.70996 15.7375 7.80444Q15.6431 7.89893 15.4541 7.99341Q15.2651 8.08789 15.0674 8.08789Q14.5269 8.09229 14.373 7.56934ZM17.502 4.77881Q18.1611 4.04932 18.9785 4.04932Q19.4927 4.04932 19.7256 4.35693Q19.9673 4.68213 19.9673 5.56104L19.9673 6.90137Q19.9673 7.43311 20.0706 7.55835Q20.1738 7.68359 20.5693 7.72314Q20.6045 7.7583 20.6045 7.86597Q20.6045 7.97363 20.5693 8.01758Q19.7959 8 19.6157 8Q19.4531 8 18.6973 8.01758Q18.6621 7.98242 18.6621 7.87476Q18.6621 7.76709 18.6973 7.72314Q19.0664 7.68799 19.1609 7.56055Q19.2554 7.43311 19.2554 6.90137L19.2554 5.53467Q19.2554 5.05566 19.1499 4.84033Q18.9785 4.51514 18.6709 4.51514Q18.1216 4.51514 17.5723 5.04688Q17.4185 5.21826 17.4185 5.4248L17.4185 6.90137Q17.4185 7.43311 17.5085 7.55835Q17.5986 7.68359 17.959 7.72314Q18.0029 7.76709 18.0051 7.87476Q18.0073 7.98242 17.959 8.01758Q17.2031 8 17.0713 8Q16.8208 8 16.0781 8.01758Q16.043 7.98242 16.043 7.87476Q16.043 7.76709 16.0781 7.72314Q16.5 7.68799 16.6055 7.56494Q16.7109 7.44189 16.7109 6.90137L16.7109 5.14795Q16.7109 4.77002 16.6077 4.67114Q16.5044 4.57227 16.1221 4.53711Q16.0693 4.3833 16.1045 4.28223Q16.8076 4.19434 17.2383 4.02295Q17.3086 4.02295 17.3481 4.09326Q17.4185 4.25586 17.4185 4.77881Q17.4229 4.88867 17.502 4.77881ZM23.1621 5.9917L21.2197 5.9917Q21.0835 5.9917 21.0835 5.82031Q21.0835 5.69287 21.156 5.57202Q21.2285 5.45117 21.3076 5.45117L23.2808 5.45117Q23.4082 5.45117 23.4038 5.63135Q23.4038 5.71924 23.3225 5.85547Q23.2412 5.9917 23.1621 5.9917ZM25.3198 4.77881Q25.3198 4.88867 25.3813 4.80078Q25.3945 4.7876 25.4033 4.77881Q26.0977 4.04932 26.77 4.04932Q27.1128 4.04932 27.3589 4.23608Q27.605 4.42285 27.6709 4.7085Q27.6929 4.79639 27.7676 4.71289Q27.9917 4.47559 28.2598 4.32178Q28.5278 4.16797 28.7695 4.10864Q29.0112 4.04932 29.2529 4.04932Q29.8022 4.04932 29.9912 4.41846Q30.1802 4.7876 30.1802 5.48193L30.1802 6.90137Q30.1802 7.44189 30.2747 7.56714Q30.3691 7.69238 30.7559 7.72314Q30.791 7.7583 30.791 7.86597Q30.791 7.97363 30.7559 8.01758Q29.9824 8 29.8286 8Q29.666 8 28.9102 8.01758Q28.875 7.97363 28.875 7.86597Q28.875 7.7583 28.9102 7.72314Q29.2793 7.69678 29.3738 7.56494Q29.4683 7.43311 29.4683 6.90137L29.4683 5.31934Q29.4683 4.88867 29.3342 4.7019Q29.2002 4.51514 28.9321 4.51514Q28.2861 4.51514 27.7412 5.11279Q27.75 5.22266 27.75 5.47314L27.75 6.90137Q27.75 7.44189 27.8401 7.56714Q27.9302 7.69238 28.2817 7.72314Q28.3169 7.7583 28.3169 7.87036Q28.3169 7.98242 28.2817 8.01758Q27.5083 8 27.3984 8Q27.2358 8 26.48 8.01758Q26.4448 7.98242 26.4448 7.87476Q26.4448 7.76709 26.48 7.72314Q26.8579 7.69678 26.948 7.56934Q27.0381 7.44189 27.0381 6.90137L27.0381 5.33691Q27.0381 4.51953 26.4448 4.51514Q26.0142 4.51514 25.4736 5.04688Q25.3198 5.20947 25.3198 5.4248L25.3198 6.90137Q25.3198 7.2793 25.366 7.4375Q25.4121 7.5957 25.5088 7.64624Q25.6055 7.69678 25.8604 7.72314Q25.8999 7.7627 25.8999 7.87036Q25.8999 7.97803 25.8604 8.01758Q25.1045 8 24.9683 8Q24.7354 8 23.9971 8.01758Q23.9619 7.98242 23.9619 7.87476Q23.9619 7.76709 23.9971 7.72314Q24.3926 7.69678 24.5024 7.56494Q24.6123 7.43311 24.6123 6.90137L24.6123 5.14795Q24.6123 4.77002 24.5068 4.67114Q24.4014 4.57227 24.0234 4.53711Q23.9707 4.3833 24.0059 4.28223Q24.709 4.19434 25.1396 4.02295Q25.21 4.02295 25.2495 4.09326Q25.3198 4.25586 25.3198 4.77881ZM33.5068 5.90381L32.7949 6.09277Q31.938 6.30811 31.9424 7.08154Q31.9424 7.32324 32.1072 7.52319Q32.272 7.72314 32.5884 7.72314Q32.9048 7.72314 33.3794 7.33203Q33.5068 7.24414 33.5068 7.09912L33.5068 5.90381ZM33.5068 7.56934L33.4893 7.56934L33.3091 7.70996Q33.0103 7.94287 32.8213 8.01538Q32.6323 8.08789 32.3291 8.08789Q31.8149 8.08789 31.5051 7.85498Q31.1953 7.62207 31.1953 7.1167Q31.1953 6.66846 31.604 6.32568Q32.0127 5.98291 32.6807 5.81152L33.4541 5.62256Q33.5068 5.60498 33.5068 5.51709Q33.5068 4.34814 32.7773 4.34814Q32.4785 4.34814 32.2544 4.44263Q32.0303 4.53711 32.0303 4.72607Q32.0303 4.85352 32.0479 4.90186Q32.0742 4.95459 32.0742 5.06445Q32.0742 5.16553 31.9666 5.2644Q31.8589 5.36328 31.6787 5.36328Q31.3623 5.36328 31.3667 5.04688Q31.3667 4.67773 31.8347 4.36353Q32.3027 4.04932 32.8521 4.04932Q34.21 4.04932 34.21 5.56982L34.21 6.91016Q34.21 7.16943 34.2231 7.30566Q34.2363 7.44189 34.322 7.55835Q34.4077 7.6748 34.5703 7.6748Q34.6802 7.6748 34.7593 7.60449Q34.8384 7.53418 34.8472 7.53418Q34.8735 7.53418 34.9197 7.58691Q34.9658 7.63965 34.9658 7.68359Q34.9658 7.70996 34.8713 7.80444Q34.7769 7.89893 34.5879 7.99341Q34.3989 8.08789 34.2012 8.08789Q33.6606 8.09229 33.5068 7.56934ZM38.0859 6.88379L38.0859 5.17432Q38.0859 4.96777 38.0574 4.88208Q38.0288 4.79639 37.9321 4.68652Q37.6553 4.36133 37.2026 4.36572Q36.6621 4.36572 36.3633 4.81396Q36.104 5.18311 36.104 6.00928Q36.104 6.80029 36.4006 7.23315Q36.6973 7.66602 37.0928 7.66602Q37.4443 7.66602 37.9409 7.23535Q38.0859 7.10791 38.0859 6.88379ZM37.9849 7.54736Q37.3257 8.08789 36.8599 8.08789Q36.1479 8.08789 35.7393 7.55835Q35.3306 7.02881 35.3306 6.17188Q35.3306 5.20947 35.9502 4.58984Q36.5171 4.04932 37.2993 4.04932Q37.4355 4.04932 37.5981 4.08887Q37.7607 4.12842 37.8772 4.16577Q37.9937 4.20312 38.0024 4.20312Q38.0815 4.20312 38.0859 4.11963L38.0859 2.96826Q38.0859 2.67822 38.0706 2.5354Q38.0552 2.39258 37.9563 2.32446Q37.8574 2.25635 37.8047 2.25195Q37.752 2.24756 37.5059 2.22998Q37.4048 2.12891 37.4531 1.96191Q38.2529 1.90039 38.7144 1.71582Q38.833 1.71582 38.833 1.80811Q38.7979 2.16846 38.7935 2.75293L38.7935 6.83105Q38.7935 7.18262 38.9165 7.31665Q39.0396 7.45068 39.4526 7.48584Q39.4966 7.52979 39.4966 7.61108Q39.4966 7.69238 39.4526 7.73193Q38.6968 7.81982 38.3628 8.08789Q38.2617 8.11426 38.1914 8.08789Q38.0903 7.77148 38.0947 7.56055Q38.0947 7.53857 38.0837 7.52759Q38.0728 7.5166 38.0552 7.5166Q38.0376 7.5166 38.02 7.52539Q38.0024 7.53418 37.9849 7.54736ZM40.6479 5.45996L42.2783 5.43359Q42.4146 5.43359 42.4102 5.31055Q42.4102 4.79639 42.1904 4.58105Q41.9707 4.36572 41.6631 4.36572Q41.5444 4.36572 41.4302 4.39648Q41.3159 4.42725 41.1489 4.52612Q40.9819 4.625 40.8457 4.8667Q40.7095 5.1084 40.6479 5.45996ZM43.0078 7.16504Q43.1616 7.17383 43.1968 7.30566Q42.5947 8.08789 41.6631 8.08789Q40.771 8.08789 40.2876 7.51221Q39.8657 7.02441 39.8657 6.18066Q39.8657 5.22705 40.437 4.64697Q41.0083 4.06689 41.6631 4.06689Q43.1836 4.06689 43.1836 5.63135Q43.1836 5.78516 43.0166 5.78516L40.6216 5.76758Q40.6216 6.52344 40.9072 7.00244Q41.3027 7.64844 41.8916 7.64844Q42.2695 7.64844 42.509 7.54077Q42.7485 7.43311 43.0078 7.16504Z"/>
		<path transform="translate(44.5 53.5)" d="M13.6875 15.0205Q13.5425 15.2007 13.5469 15.416L13.5469 17.0552Q13.5469 17.2222 13.5645 17.3079Q13.582 17.3936 13.6216 17.4485Q13.6611 17.5034 13.7622 17.5957Q13.8721 17.6924 14.0588 17.7385Q14.2456 17.7847 14.3994 17.7847Q14.7598 17.7847 15.0212 17.6353Q15.2827 17.4858 15.4167 17.231Q15.5508 16.9761 15.6101 16.7058Q15.6694 16.4355 15.6694 16.1279Q15.6694 15.3896 15.3596 14.926Q15.0498 14.4624 14.5972 14.4624Q14.4082 14.4624 14.1379 14.6294Q13.8677 14.7964 13.6875 15.0205ZM13.5469 14.6865Q13.5469 14.7305 13.5732 14.7415Q13.5996 14.7524 13.6172 14.7261Q14.1929 14.0493 14.8521 14.0493Q15.5288 14.0493 15.9858 14.5986Q16.4429 15.1479 16.4429 15.8862Q16.4429 16.9409 15.7793 17.5869Q15.2476 18.0923 14.4521 18.0879Q14.0127 18.0879 13.6699 17.9517Q13.5996 17.9165 13.5732 17.9253Q13.5469 17.9341 13.5469 18.0176L13.5469 18.9888Q13.5469 19.5293 13.6677 19.6567Q13.7886 19.7842 14.2852 19.8105Q14.3291 19.8545 14.3291 19.9622Q14.3291 20.0698 14.2852 20.105Q13.5117 20.0874 13.1953 20.0874Q12.9448 20.0874 12.1846 20.105Q12.1494 20.0698 12.1494 19.9622Q12.1494 19.8545 12.1846 19.8105Q12.6064 19.793 12.7207 19.6611Q12.835 19.5293 12.835 18.9888L12.835 15.1479Q12.835 14.77 12.7317 14.6711Q12.6284 14.5723 12.2505 14.5371Q12.1978 14.3833 12.2329 14.2822Q12.936 14.1943 13.3667 14.0229Q13.437 14.0229 13.4722 14.0933Q13.5469 14.2559 13.5469 14.6865ZM19.4619 15.9038L18.75 16.0928Q17.8931 16.3081 17.8975 17.0815Q17.8975 17.3232 18.0623 17.5232Q18.2271 17.7231 18.5435 17.7231Q18.8599 17.7231 19.3345 17.332Q19.4619 17.2441 19.4619 17.0991L19.4619 15.9038ZM19.4619 17.5693L19.4443 17.5693L19.2642 17.71Q18.9653 17.9429 18.7764 18.0154Q18.5874 18.0879 18.2842 18.0879Q17.77 18.0879 17.4602 17.855Q17.1504 17.6221 17.1504 17.1167Q17.1504 16.6685 17.5591 16.3257Q17.9678 15.9829 18.6357 15.8115L19.4092 15.6226Q19.4619 15.605 19.4619 15.5171Q19.4619 14.3481 18.7324 14.3481Q18.4336 14.3481 18.2095 14.4426Q17.9854 14.5371 17.9854 14.7261Q17.9854 14.8535 18.0029 14.9019Q18.0293 14.9546 18.0293 15.0645Q18.0293 15.1655 17.9216 15.2644Q17.814 15.3633 17.6338 15.3633Q17.3174 15.3633 17.3218 15.0469Q17.3218 14.6777 17.7898 14.3635Q18.2578 14.0493 18.8071 14.0493Q20.165 14.0493 20.165 15.5698L20.165 16.9102Q20.165 17.1694 20.1782 17.3057Q20.1914 17.4419 20.2771 17.5583Q20.3628 17.6748 20.5254 17.6748Q20.6353 17.6748 20.7144 17.6045Q20.7935 17.5342 20.8022 17.5342Q20.8286 17.5342 20.8748 17.5869Q20.9209 17.6396 20.9209 17.6836Q20.9209 17.71 20.8264 17.8044Q20.7319 17.8989 20.543 17.9934Q20.354 18.0879 20.1562 18.0879Q19.6157 18.0923 19.4619 17.5693ZM23.8037 15.4907Q23.8037 14.9326 23.5796 14.6294Q23.3555 14.3262 22.9336 14.3262Q22.2129 14.3262 22.2129 15.2842Q22.2129 15.5347 22.2393 15.7192Q22.2656 15.9038 22.3469 16.0972Q22.4282 16.2905 22.604 16.3938Q22.7798 16.4971 23.0479 16.4971Q23.8037 16.4971 23.8037 15.4907ZM22.1206 18.0879Q21.8438 18.4219 21.8438 18.936Q21.8438 19.3403 22.2217 19.5754Q22.5996 19.8105 22.9248 19.8105Q23.3467 19.8105 23.7422 19.7007Q24.1377 19.5908 24.4124 19.3579Q24.687 19.125 24.687 18.8174Q24.687 18.646 24.5881 18.5295Q24.4893 18.4131 24.23 18.2593Q23.9531 18.1055 23.1401 18.1099Q23.0962 18.1099 22.8699 18.123Q22.6436 18.1362 22.481 18.1362Q22.2832 18.1318 22.1206 18.0879ZM24.9287 14.5151Q24.7573 14.5151 24.6782 14.3569Q24.6079 14.2471 24.498 14.2471Q24.4189 14.2471 24.3047 14.3196Q24.1904 14.3921 24.1377 14.4624Q24.5244 14.8579 24.5244 15.3984Q24.5244 16.0269 24.0784 16.4004Q23.6323 16.7739 23.0039 16.7739Q22.5073 16.7739 22.1865 16.585Q22.0239 16.8091 22.0239 17.1079Q22.0239 17.3672 22.1953 17.4946Q22.3667 17.6221 22.5996 17.6221L22.8677 17.6045Q23.228 17.5605 23.4741 17.5605Q24.4277 17.5605 24.7881 17.855Q25.1836 18.1802 25.1836 18.5845Q25.1836 19.0503 24.8013 19.4172Q24.4189 19.7842 23.8455 19.9622Q23.272 20.1401 22.6523 20.1401Q22.0503 20.1401 21.6372 19.8984Q21.2241 19.6567 21.2241 19.1162Q21.2241 18.4702 21.958 18.0264Q21.5449 17.8198 21.5449 17.332Q21.5449 17.0903 21.6526 16.8333Q21.7603 16.5762 21.9404 16.4268Q21.4746 15.9785 21.4746 15.416Q21.4746 14.814 21.9338 14.4316Q22.3931 14.0493 23.0127 14.0493Q23.5708 14.0493 23.9487 14.2998Q24.1113 14.0845 24.3816 13.9636Q24.6519 13.8428 24.8496 13.8428Q25.0298 13.8428 25.1462 13.9373Q25.2627 14.0317 25.2627 14.1768Q25.2627 14.313 25.1594 14.4141Q25.0562 14.5151 24.9287 14.5151ZM26.4141 15.46L28.0444 15.4336Q28.1807 15.4336 28.1763 15.3105Q28.1763 14.7964 27.9565 14.5811Q27.7368 14.3657 27.4292 14.3657Q27.3105 14.3657 27.1963 14.3965Q27.082 14.4272 26.915 14.5261Q26.748 14.625 26.6118 14.8667Q26.4756 15.1084 26.4141 15.46ZM28.7739 17.165Q28.9277 17.1738 28.9629 17.3057Q28.3608 18.0879 27.4292 18.0879Q26.5371 18.0879 26.0537 17.5122Q25.6318 17.0244 25.6318 16.1807Q25.6318 15.2271 26.2031 14.647Q26.7744 14.0669 27.4292 14.0669Q28.9497 14.0669 28.9497 15.6313Q28.9497 15.7852 28.7827 15.7852L26.3877 15.7676Q26.3877 16.5234 26.6733 17.0024Q27.0688 17.6484 27.6577 17.6484Q28.0356 17.6484 28.2751 17.5408Q28.5146 17.4331 28.7739 17.165ZM32.3774 12.6079Q32.3774 12.4453 32.5312 12.3113Q32.6851 12.1772 32.8477 12.1772Q33.019 12.1772 33.1487 12.3267Q33.2783 12.4761 33.2783 12.6431Q33.2783 12.7969 33.1355 12.9375Q32.9927 13.0781 32.8125 13.0781Q32.6499 13.0781 32.5137 12.9287Q32.3774 12.7793 32.3774 12.6079ZM33.1992 16.9014Q33.1992 17.4419 33.3069 17.5671Q33.4146 17.6924 33.8452 17.7231Q33.8892 17.7671 33.8892 17.8748Q33.8892 17.9824 33.8452 18.0176Q33.0718 18 32.8477 18Q32.5972 18 31.8369 18.0176Q31.8018 17.9824 31.8018 17.8748Q31.8018 17.7671 31.8369 17.7231Q32.2676 17.688 32.3774 17.5649Q32.4873 17.4419 32.4873 16.9014L32.4873 15.1479Q32.4873 14.77 32.384 14.6711Q32.2808 14.5723 31.9028 14.5371Q31.8501 14.3833 31.8853 14.2822Q32.7202 14.1724 33.1157 14.0229Q33.2344 14.0229 33.2344 14.0845Q33.2344 14.1064 33.23 14.1482Q33.2256 14.1899 33.2212 14.3152Q33.2168 14.4404 33.2102 14.5569Q33.2036 14.6733 33.2014 14.8271Q33.1992 14.981 33.1992 15.1084L33.1992 16.9014ZM35.6646 14.7788Q36.3237 14.0493 37.1411 14.0493Q37.6553 14.0493 37.8882 14.3569Q38.1299 14.6821 38.1299 15.561L38.1299 16.9014Q38.1299 17.4331 38.2332 17.5583Q38.3364 17.6836 38.7319 17.7231Q38.7671 17.7583 38.7671 17.866Q38.7671 17.9736 38.7319 18.0176Q37.9585 18 37.7783 18Q37.6157 18 36.8599 18.0176Q36.8247 17.9824 36.8247 17.8748Q36.8247 17.7671 36.8599 17.7231Q37.229 17.688 37.3235 17.5605Q37.418 17.4331 37.418 16.9014L37.418 15.5347Q37.418 15.0557 37.3125 14.8403Q37.1411 14.5151 36.8335 14.5151Q36.2842 14.5151 35.7349 15.0469Q35.5811 15.2183 35.5811 15.4248L35.5811 16.9014Q35.5811 17.4331 35.6711 17.5583Q35.7612 17.6836 36.1216 17.7231Q36.1655 17.7671 36.1677 17.8748Q36.1699 17.9824 36.1216 18.0176Q35.3657 18 35.2339 18Q34.9834 18 34.2407 18.0176Q34.2056 17.9824 34.2056 17.8748Q34.2056 17.7671 34.2407 17.7231Q34.6626 17.688 34.7681 17.5649Q34.8735 17.4419 34.8735 16.9014L34.8735 15.1479Q34.8735 14.77 34.7703 14.6711Q34.667 14.5723 34.2847 14.5371Q34.2319 14.3833 34.2671 14.2822Q34.9702 14.1943 35.4009 14.0229Q35.4712 14.0229 35.5107 14.0933Q35.5811 14.2559 35.5811 14.7788Q35.5854 14.8887 35.6646 14.7788Z"/>
		<path transform="translate(44.5 53.5)" d="M11.1519 25.4248L11.1519 26.9014Q11.1519 27.2837 11.198 27.4441Q11.2441 27.6045 11.3408 27.6528Q11.4375 27.7012 11.688 27.7231Q11.7275 27.7627 11.7297 27.8704Q11.7319 27.978 11.688 28.0176Q10.9321 28 10.8003 28Q10.5542 28 9.81152 28.0176Q9.77197 27.978 9.77197 27.8704Q9.77197 27.7627 9.81152 27.7231Q10.0356 27.7056 10.1345 27.6836Q10.2334 27.6616 10.3169 27.5759Q10.4004 27.4902 10.4202 27.3408Q10.4399 27.1914 10.4399 26.9014L10.4399 22.9683Q10.4399 22.6782 10.4268 22.5354Q10.4136 22.3926 10.3147 22.3245Q10.2158 22.2563 10.1609 22.252Q10.106 22.2476 9.86426 22.23Q9.76318 22.1289 9.81152 21.9619Q10.6113 21.9004 11.0728 21.7158Q11.1914 21.7158 11.187 21.8081Q11.1519 22.1685 11.1519 22.7529L11.1431 24.7788Q11.1519 24.8755 11.231 24.7788Q11.8901 24.0493 12.7646 24.0493Q13.2788 24.0493 13.5117 24.3569Q13.7534 24.6733 13.7534 25.561L13.7534 26.9014Q13.7534 27.4331 13.8567 27.5583Q13.96 27.6836 14.3555 27.7231Q14.3906 27.7583 14.3906 27.866Q14.3906 27.9736 14.3555 28.0176Q13.582 28 13.4019 28Q13.2393 28 12.4834 28.0176Q12.4482 27.9824 12.4482 27.8748Q12.4482 27.7671 12.4834 27.7231Q12.8525 27.688 12.947 27.5605Q13.0415 27.4331 13.0415 26.9014L13.0415 25.5347Q13.0415 25.0557 12.936 24.8403Q12.7734 24.5151 12.457 24.5151Q11.8462 24.5151 11.3057 25.0469Q11.1519 25.2139 11.1519 25.4248ZM14.8564 26.1543Q14.8564 25.2622 15.353 24.6777Q15.8892 24.0493 16.7637 24.0493Q17.4097 24.0493 17.8557 24.3679Q18.3018 24.6865 18.4775 25.1282Q18.6533 25.5698 18.6533 26.0752Q18.6533 27.0156 18.0688 27.5869Q17.5547 28.0923 16.7461 28.0879Q15.8452 28.0879 15.3508 27.5034Q14.8564 26.9189 14.8564 26.1543ZM16.6274 24.3657Q15.6299 24.3657 15.6299 25.9478Q15.6299 26.2378 15.698 26.5344Q15.7661 26.8311 15.9001 27.1189Q16.0342 27.4067 16.2869 27.5913Q16.5396 27.7759 16.8735 27.7759Q17.269 27.7759 17.5745 27.4507Q17.8799 27.1255 17.8799 26.3608Q17.8799 25.3984 17.5459 24.8821Q17.2119 24.3657 16.6274 24.3657ZM20.6792 24.7788Q21.3384 24.0493 22.1558 24.0493Q22.6699 24.0493 22.9028 24.3569Q23.1445 24.6821 23.1445 25.561L23.1445 26.9014Q23.1445 27.4331 23.2478 27.5583Q23.3511 27.6836 23.7466 27.7231Q23.7817 27.7583 23.7817 27.866Q23.7817 27.9736 23.7466 28.0176Q22.9731 28 22.793 28Q22.6304 28 21.8745 28.0176Q21.8394 27.9824 21.8394 27.8748Q21.8394 27.7671 21.8745 27.7231Q22.2437 27.688 22.3381 27.5605Q22.4326 27.4331 22.4326 26.9014L22.4326 25.5347Q22.4326 25.0557 22.3271 24.8403Q22.1558 24.5151 21.8481 24.5151Q21.2988 24.5151 20.7495 25.0469Q20.5957 25.2183 20.5957 25.4248L20.5957 26.9014Q20.5957 27.4331 20.6858 27.5583Q20.7759 27.6836 21.1362 27.7231Q21.1802 27.7671 21.1824 27.8748Q21.1846 27.9824 21.1362 28.0176Q20.3804 28 20.2485 28Q19.998 28 19.2554 28.0176Q19.2202 27.9824 19.2202 27.8748Q19.2202 27.7671 19.2554 27.7231Q19.6772 27.688 19.7827 27.5649Q19.8882 27.4419 19.8882 26.9014L19.8882 25.1479Q19.8882 24.77 19.7849 24.6711Q19.6816 24.5723 19.2993 24.5371Q19.2466 24.3833 19.2817 24.2822Q19.9849 24.1943 20.4155 24.0229Q20.4858 24.0229 20.5254 24.0933Q20.5957 24.2559 20.5957 24.7788Q20.6001 24.8887 20.6792 24.7788ZM24.2695 26.1543Q24.2695 25.2622 24.7661 24.6777Q25.3022 24.0493 26.1768 24.0493Q26.8228 24.0493 27.2688 24.3679Q27.7148 24.6865 27.8906 25.1282Q28.0664 25.5698 28.0664 26.0752Q28.0664 27.0156 27.4819 27.5869Q26.9678 28.0923 26.1592 28.0879Q25.2583 28.0879 24.7639 27.5034Q24.2695 26.9189 24.2695 26.1543ZM26.0405 24.3657Q25.043 24.3657 25.043 25.9478Q25.043 26.2378 25.1111 26.5344Q25.1792 26.8311 25.3132 27.1189Q25.4473 27.4067 25.7 27.5913Q25.9526 27.7759 26.2866 27.7759Q26.6821 27.7759 26.9875 27.4507Q27.293 27.1255 27.293 26.3608Q27.293 25.3984 26.959 24.8821Q26.625 24.3657 26.0405 24.3657ZM30.0483 24.7788Q30.0483 24.8228 30.0615 24.8403Q30.0747 24.8579 30.1187 24.7964Q30.2988 24.4888 30.5647 24.269Q30.8306 24.0493 31.1162 24.0493Q31.3755 24.0493 31.5161 24.1877Q31.6567 24.3262 31.6567 24.48Q31.6567 24.6514 31.5271 24.792Q31.3975 24.9326 31.2349 24.9326Q31.1733 24.9326 31.1096 24.8997Q31.0459 24.8667 31.0151 24.8359Q30.9844 24.8052 30.9338 24.7458Q30.8833 24.6865 30.8657 24.6689Q30.8042 24.6074 30.6768 24.6074Q30.5669 24.6074 30.2637 25.0469Q30.0483 25.3721 30.0483 25.6489L30.0483 26.9014Q30.0483 27.4419 30.1692 27.5627Q30.29 27.6836 30.7866 27.7231Q30.8306 27.7671 30.8306 27.8748Q30.8306 27.9824 30.7866 28.0176Q30.0132 28 29.6968 28Q29.4287 28 28.6685 28.0176Q28.6333 27.9824 28.6333 27.8748Q28.6333 27.7671 28.6685 27.7231Q29.1079 27.6968 29.2222 27.5693Q29.3364 27.4419 29.3364 26.9014L29.3364 25.1479Q29.3364 24.77 29.2332 24.6711Q29.1299 24.5723 28.752 24.5371Q28.6992 24.3833 28.7344 24.2822Q29.4375 24.1943 29.8682 24.0229Q29.9385 24.0229 29.9736 24.0933Q30.0483 24.2559 30.0483 24.7788ZM34.3989 26.1543Q34.3989 25.2622 34.8955 24.6777Q35.4316 24.0493 36.3062 24.0493Q36.9521 24.0493 37.3982 24.3679Q37.8442 24.6865 38.02 25.1282Q38.1958 25.5698 38.1958 26.0752Q38.1958 27.0156 37.6113 27.5869Q37.0972 28.0923 36.2886 28.0879Q35.3877 28.0879 34.8933 27.5034Q34.3989 26.9189 34.3989 26.1543ZM36.1699 24.3657Q35.1724 24.3657 35.1724 25.9478Q35.1724 26.2378 35.2405 26.5344Q35.3086 26.8311 35.4426 27.1189Q35.5767 27.4067 35.8293 27.5913Q36.082 27.7759 36.416 27.7759Q36.8115 27.7759 37.1169 27.4507Q37.4224 27.1255 37.4224 26.3608Q37.4224 25.3984 37.0884 24.8821Q36.7544 24.3657 36.1699 24.3657ZM40.1382 26.9014Q40.1382 27.4419 40.2568 27.5671Q40.3755 27.6924 40.8501 27.7231Q40.8853 27.7671 40.8853 27.8748Q40.8853 27.9824 40.8501 28.0176Q40.0767 28 39.791 28Q39.6021 28 38.8418 28.0176Q38.7979 27.9824 38.7979 27.8748Q38.7979 27.7671 38.8418 27.7231Q39.2285 27.6968 39.3296 27.5693Q39.4307 27.4419 39.4307 26.9014L39.4307 24.4888L38.8066 24.4888Q38.7627 24.4888 38.7627 24.436L38.7627 24.3174Q38.7627 24.1372 38.9692 24.1372L39.4307 24.1372L39.4307 23.7769Q39.4307 22.7969 39.9119 22.2563Q40.3931 21.7158 41.0215 21.7158Q41.562 21.7158 41.8301 21.9092Q42.1201 22.1245 42.1201 22.3662Q42.1201 22.5024 41.9949 22.6189Q41.8696 22.7354 41.751 22.7354Q41.5181 22.7354 41.3906 22.4453Q41.3027 22.2124 41.1797 22.1179Q41.0566 22.0234 40.8501 22.0234Q40.1382 22.0234 40.1382 23.6274L40.1382 24.1372L41.1138 24.1372Q41.1841 24.1372 41.1841 24.1943L41.1841 24.3745Q41.1841 24.4932 40.9775 24.4888L40.1382 24.4888L40.1382 26.9014Z"/>
		<path transform="translate(44.5 53.5)" d="M9.09302 33.2935L9.09302 37.0728Q9.09302 37.5298 9.01172 37.8813Q8.93042 38.2329 8.76782 38.4856Q8.60522 38.7383 8.48877 38.8635Q8.37231 38.9888 8.17456 39.1602Q7.72632 39.5469 7.11987 39.5469Q6.92212 39.5469 6.68481 39.4128Q6.44751 39.2788 6.44751 39.0635Q6.44751 38.9272 6.59033 38.802Q6.73315 38.6768 6.84302 38.6768Q6.94409 38.6768 7.0144 38.7119Q7.08472 38.7471 7.11548 38.7778Q7.14624 38.8086 7.18799 38.8855Q7.22974 38.9624 7.24731 38.98Q7.36597 39.1426 7.56372 39.1426Q7.7439 39.1426 7.89551 39.0261Q8.04712 38.9097 8.18774 38.4636Q8.32837 38.0176 8.32837 37.2705L8.32837 33.2935Q8.32837 32.7529 8.17456 32.6233Q8.02075 32.4937 7.45386 32.4761Q7.4187 32.4409 7.4187 32.3311Q7.4187 32.2212 7.45386 32.1772Q8.35474 32.1948 8.7063 32.1948Q8.90405 32.1948 9.78735 32.1772Q9.8313 32.2212 9.8313 32.3289Q9.8313 32.4365 9.78735 32.4761Q9.35669 32.4937 9.22485 32.6277Q9.09302 32.7617 9.09302 33.2935ZM10.3235 36.1543Q10.3235 35.2622 10.8201 34.6777Q11.3562 34.0493 12.2307 34.0493Q12.8767 34.0493 13.3228 34.3679Q13.7688 34.6865 13.9446 35.1282Q14.1204 35.5698 14.1204 36.0752Q14.1204 37.0156 13.5359 37.5869Q13.0217 38.0923 12.2131 38.0879Q11.3123 38.0879 10.8179 37.5034Q10.3235 36.9189 10.3235 36.1543ZM12.0945 34.3657Q11.0969 34.3657 11.0969 35.9478Q11.0969 36.2378 11.165 36.5344Q11.2332 36.8311 11.3672 37.1189Q11.5012 37.4067 11.7539 37.5913Q12.0066 37.7759 12.3406 37.7759Q12.7361 37.7759 13.0415 37.4507Q13.3469 37.1255 13.3469 36.3608Q13.3469 35.3984 13.0129 34.8821Q12.679 34.3657 12.0945 34.3657ZM16.1023 34.7788Q16.1023 34.8228 16.1155 34.8403Q16.1287 34.8579 16.1726 34.7964Q16.3528 34.4888 16.6187 34.269Q16.8845 34.0493 17.1702 34.0493Q17.4294 34.0493 17.5701 34.1877Q17.7107 34.3262 17.7107 34.48Q17.7107 34.6514 17.5811 34.792Q17.4514 34.9326 17.2888 34.9326Q17.2273 34.9326 17.1636 34.8997Q17.0999 34.8667 17.0691 34.8359Q17.0383 34.8052 16.9878 34.7458Q16.9373 34.6865 16.9197 34.6689Q16.8582 34.6074 16.7307 34.6074Q16.6208 34.6074 16.3176 35.0469Q16.1023 35.3721 16.1023 35.6489L16.1023 36.9014Q16.1023 37.4419 16.2231 37.5627Q16.344 37.6836 16.8406 37.7231Q16.8845 37.7671 16.8845 37.8748Q16.8845 37.9824 16.8406 38.0176Q16.0671 38 15.7507 38Q15.4827 38 14.7224 38.0176Q14.6873 37.9824 14.6873 37.8748Q14.6873 37.7671 14.7224 37.7231Q15.1619 37.6968 15.2761 37.5693Q15.3904 37.4419 15.3904 36.9014L15.3904 35.1479Q15.3904 34.77 15.2871 34.6711Q15.1838 34.5723 14.8059 34.5371Q14.7532 34.3833 14.7883 34.2822Q15.4915 34.1943 15.9221 34.0229Q15.9924 34.0229 16.0276 34.0933Q16.1023 34.2559 16.1023 34.7788ZM20.7209 35.4907Q20.7209 34.9326 20.4968 34.6294Q20.2727 34.3262 19.8508 34.3262Q19.1301 34.3262 19.1301 35.2842Q19.1301 35.5347 19.1565 35.7192Q19.1829 35.9038 19.2642 36.0972Q19.3455 36.2905 19.5212 36.3938Q19.697 36.4971 19.9651 36.4971Q20.7209 36.4971 20.7209 35.4907ZM19.0378 38.0879Q18.761 38.4219 18.761 38.936Q18.761 39.3403 19.1389 39.5754Q19.5168 39.8105 19.842 39.8105Q20.2639 39.8105 20.6594 39.7007Q21.0549 39.5908 21.3296 39.3579Q21.6042 39.125 21.6042 38.8174Q21.6042 38.646 21.5054 38.5295Q21.4065 38.4131 21.1472 38.2593Q20.8704 38.1055 20.0574 38.1099Q20.0134 38.1099 19.7871 38.123Q19.5608 38.1362 19.3982 38.1362Q19.2004 38.1318 19.0378 38.0879ZM21.8459 34.5151Q21.6746 34.5151 21.5955 34.3569Q21.5251 34.2471 21.4153 34.2471Q21.3362 34.2471 21.2219 34.3196Q21.1077 34.3921 21.0549 34.4624Q21.4417 34.8579 21.4417 35.3984Q21.4417 36.0269 20.9956 36.4004Q20.5496 36.7739 19.9211 36.7739Q19.4246 36.7739 19.1038 36.585Q18.9412 36.8091 18.9412 37.1079Q18.9412 37.3672 19.1125 37.4946Q19.2839 37.6221 19.5168 37.6221L19.7849 37.6045Q20.1453 37.5605 20.3914 37.5605Q21.345 37.5605 21.7053 37.855Q22.1008 38.1802 22.1008 38.5845Q22.1008 39.0503 21.7185 39.4172Q21.3362 39.7842 20.7627 39.9622Q20.1892 40.1401 19.5696 40.1401Q18.9675 40.1401 18.5544 39.8984Q18.1414 39.6567 18.1414 39.1162Q18.1414 38.4702 18.8752 38.0264Q18.4622 37.8198 18.4622 37.332Q18.4622 37.0903 18.5698 36.8333Q18.6775 36.5762 18.8577 36.4268Q18.3918 35.9785 18.3918 35.416Q18.3918 34.814 18.8511 34.4316Q19.3103 34.0493 19.9299 34.0493Q20.488 34.0493 20.866 34.2998Q21.0286 34.0845 21.2988 33.9636Q21.5691 33.8428 21.7668 33.8428Q21.947 33.8428 22.0635 33.9373Q22.1799 34.0317 22.1799 34.1768Q22.1799 34.313 22.0767 34.4141Q21.9734 34.5151 21.8459 34.5151ZM23.3313 35.46L24.9617 35.4336Q25.0979 35.4336 25.0935 35.3105Q25.0935 34.7964 24.8738 34.5811Q24.6541 34.3657 24.3464 34.3657Q24.2278 34.3657 24.1135 34.3965Q23.9993 34.4272 23.8323 34.5261Q23.6653 34.625 23.5291 34.8667Q23.3928 35.1084 23.3313 35.46ZM25.6912 37.165Q25.845 37.1738 25.8801 37.3057Q25.2781 38.0879 24.3464 38.0879Q23.4543 38.0879 22.9709 37.5122Q22.5491 37.0244 22.5491 36.1807Q22.5491 35.2271 23.1204 34.647Q23.6917 34.0669 24.3464 34.0669Q25.8669 34.0669 25.8669 35.6313Q25.8669 35.7852 25.7 35.7852L23.3049 35.7676Q23.3049 36.5234 23.5906 37.0024Q23.9861 37.6484 24.575 37.6484Q24.9529 37.6484 25.1924 37.5408Q25.4319 37.4331 25.6912 37.165ZM29.8088 38Q29.0793 38.0088 28.6399 38.0176Q28.5959 37.9824 28.5959 37.8748Q28.5959 37.7671 28.6399 37.7231Q29.1453 37.7056 29.2837 37.5737Q29.4221 37.4419 29.4221 36.9014L29.4221 33.2935Q29.4221 32.7529 29.2837 32.6233Q29.1453 32.4937 28.6399 32.4761Q28.5959 32.4409 28.5959 32.3311Q28.5959 32.2212 28.6399 32.1772Q29.5408 32.1948 29.8 32.1948Q30.0901 32.1948 30.969 32.1772Q31.0042 32.2212 31.0042 32.3289Q31.0042 32.4365 30.969 32.4761Q30.4636 32.4937 30.3252 32.6233Q30.1868 32.7529 30.1868 33.2935L30.1868 37.2002Q30.1868 37.4067 30.2988 37.5276Q30.4109 37.6484 30.6086 37.6484L31.2678 37.6484Q31.927 37.6484 32.2544 37.3386Q32.5818 37.0288 32.7356 36.4707Q32.8894 36.4443 33.03 36.5146Q32.9421 37.2969 32.7971 38.0176Q31.9666 38 31.7249 38L29.8088 38ZM35.1702 38.0879Q34.5505 38.0879 34.2803 37.7429Q34.01 37.3979 34.01 36.8662L34.01 35.1392Q34.01 34.7173 33.8979 34.5811Q33.7859 34.4448 33.4519 34.4185Q33.4167 34.3833 33.4167 34.2756Q33.4167 34.168 33.4519 34.1196Q34.1199 34.1372 34.3704 34.1372Q34.5945 34.1372 34.6868 34.1196Q34.7571 34.1196 34.7571 34.1768Q34.7219 34.8359 34.7219 35.104L34.7219 36.7388Q34.7219 37.2705 34.9417 37.4683Q35.1614 37.666 35.4426 37.666Q35.8469 37.666 36.3435 37.2354Q36.4885 37.1079 36.4841 36.8838L36.4841 35.1479Q36.4841 34.7173 36.3765 34.5767Q36.2688 34.436 35.926 34.4185Q35.8821 34.3833 35.8821 34.2756Q35.8821 34.168 35.926 34.1196Q36.594 34.1372 36.8445 34.1372Q37.0686 34.1372 37.1609 34.1196Q37.2312 34.1196 37.2312 34.1768Q37.196 34.8359 37.196 35.104L37.196 36.8311Q37.196 37.1826 37.3191 37.3167Q37.4421 37.4507 37.8552 37.4858Q37.8992 37.5298 37.8992 37.6111Q37.8992 37.6924 37.8552 37.7319Q37.0994 37.8198 36.7654 38.0879Q36.6643 38.1143 36.594 38.0879Q36.4929 37.7627 36.4929 37.5605Q36.4929 37.4595 36.3875 37.5518Q35.7283 38.0879 35.1702 38.0879ZM38.8044 32.6079Q38.8044 32.4453 38.9583 32.3113Q39.1121 32.1772 39.2747 32.1772Q39.446 32.1772 39.5757 32.3267Q39.7053 32.4761 39.7053 32.6431Q39.7053 32.7969 39.5625 32.9375Q39.4197 33.0781 39.2395 33.0781Q39.0769 33.0781 38.9407 32.9287Q38.8044 32.7793 38.8044 32.6079ZM39.6262 36.9014Q39.6262 37.4419 39.7339 37.5671Q39.8416 37.6924 40.2722 37.7231Q40.3162 37.7671 40.3162 37.8748Q40.3162 37.9824 40.2722 38.0176Q39.4988 38 39.2747 38Q39.0242 38 38.2639 38.0176Q38.2288 37.9824 38.2288 37.8748Q38.2288 37.7671 38.2639 37.7231Q38.6946 37.688 38.8044 37.5649Q38.9143 37.4419 38.9143 36.9014L38.9143 35.1479Q38.9143 34.77 38.811 34.6711Q38.7078 34.5723 38.3298 34.5371Q38.2771 34.3833 38.3123 34.2822Q39.1472 34.1724 39.5427 34.0229Q39.6614 34.0229 39.6614 34.0845Q39.6614 34.1064 39.657 34.1482Q39.6526 34.1899 39.6482 34.3152Q39.6438 34.4404 39.6372 34.5569Q39.6306 34.6733 39.6284 34.8271Q39.6262 34.981 39.6262 35.1084L39.6262 36.9014ZM40.8655 36.7563Q40.9094 36.7124 41.0061 36.7124Q41.1028 36.7124 41.1467 36.7476Q41.3005 37.3848 41.4983 37.5781Q41.696 37.7935 42.1355 37.7935Q42.4255 37.7935 42.6628 37.6309Q42.9001 37.4683 42.9001 37.165Q42.9001 36.8662 42.7156 36.686Q42.531 36.5059 41.9817 36.2817Q41.4412 36.0576 41.217 35.7961Q40.9929 35.5347 40.9929 35.0557Q40.9929 34.6338 41.3708 34.3416Q41.7488 34.0493 42.2629 34.0493Q42.4695 34.0493 42.6848 34.0801Q42.9001 34.1108 43.1396 34.1614Q43.3792 34.2119 43.4407 34.2207Q43.4407 34.3394 43.4143 34.6667Q43.3879 34.9941 43.3879 35.1743Q43.344 35.2183 43.2429 35.2183Q43.1418 35.2183 43.0979 35.1831Q43.054 34.915 42.9507 34.7349Q42.8474 34.5547 42.7068 34.4778Q42.5662 34.4009 42.4629 34.3745Q42.3596 34.3481 42.2629 34.3481Q42.0212 34.3481 41.8257 34.5042Q41.6301 34.6602 41.6301 34.9238Q41.6301 35.0688 41.6785 35.1831Q41.7268 35.2974 41.7861 35.3699Q41.8455 35.4424 41.9861 35.5193Q42.1267 35.5962 42.2234 35.6357Q42.3201 35.6753 42.531 35.7588Q43.5857 36.1587 43.5857 36.9541Q43.5857 37.2705 43.4363 37.5056Q43.2869 37.7407 43.054 37.8616Q42.821 37.9824 42.5947 38.0352Q42.3684 38.0879 42.1531 38.0879Q41.7136 38.0879 41.3357 37.9912Q41.2742 37.9736 41.1555 37.9736Q41.0676 37.9736 40.9314 38Q40.927 37.5298 40.8655 36.7563Z"/>
		<path transform="translate(44.5 53.5)" d="M14.6785 42.8716L14.6785 44.7041L15.3464 44.7041Q16.6252 44.7041 16.6252 43.6714Q16.6252 43.0518 16.2737 42.7683Q15.9221 42.4849 15.4607 42.4849Q15.074 42.4849 14.9092 42.5244Q14.7444 42.564 14.7114 42.6321Q14.6785 42.7002 14.6785 42.8716ZM14.6785 45.0117L14.6785 47.1167Q14.6785 47.7188 15.4255 47.7231Q16.3704 47.7231 16.7087 47.4023Q17.0471 47.0815 17.0471 46.5146Q17.0471 45.8555 16.6099 45.4336Q16.1726 45.0117 15.2981 45.0117L14.6785 45.0117ZM14.2917 42.1948Q14.4895 42.1948 14.8762 42.186Q15.2629 42.1772 15.4167 42.1772Q17.3503 42.1772 17.3503 43.5615Q17.3503 43.9131 17.1042 44.2383Q16.8582 44.5635 16.4978 44.7437L16.4978 44.7612Q17.1262 44.9414 17.5042 45.3369Q17.8821 45.7324 17.8821 46.3433Q17.8821 46.6597 17.7744 46.9387Q17.6667 47.2178 17.425 47.4705Q17.1833 47.7231 16.7197 47.8704Q16.2561 48.0176 15.6145 48.0176Q15.1663 48.0176 14.8059 48.0088Q14.4456 48 14.3005 48Q14.0105 48 13.1316 48.0176Q13.0876 47.9824 13.0876 47.8748Q13.0876 47.7671 13.1316 47.7231Q13.637 47.7056 13.7754 47.5737Q13.9138 47.4419 13.9138 46.9014L13.9138 43.2935Q13.9138 42.7529 13.7754 42.6233Q13.637 42.4937 13.1316 42.4761Q13.0876 42.4409 13.0876 42.3311Q13.0876 42.2212 13.1316 42.1772Q14.0325 42.1948 14.2917 42.1948ZM18.6204 46.1543Q18.6204 45.2622 19.1169 44.6777Q19.6531 44.0493 20.5276 44.0493Q21.1736 44.0493 21.6196 44.3679Q22.0657 44.6865 22.2415 45.1282Q22.4172 45.5698 22.4172 46.0752Q22.4172 47.0156 21.8328 47.5869Q21.3186 48.0923 20.51 48.0879Q19.6091 48.0879 19.1147 47.5034Q18.6204 46.9189 18.6204 46.1543ZM20.3914 44.3657Q19.3938 44.3657 19.3938 45.9478Q19.3938 46.2378 19.4619 46.5344Q19.53 46.8311 19.6641 47.1189Q19.7981 47.4067 20.0508 47.5913Q20.3035 47.7759 20.6375 47.7759Q21.033 47.7759 21.3384 47.4507Q21.6438 47.1255 21.6438 46.3608Q21.6438 45.3984 21.3098 44.8821Q20.9758 44.3657 20.3914 44.3657ZM24.3992 44.7788Q24.3992 44.8228 24.4124 44.8403Q24.4255 44.8579 24.4695 44.7964Q24.6497 44.4888 24.9155 44.269Q25.1814 44.0493 25.467 44.0493Q25.7263 44.0493 25.8669 44.1877Q26.0076 44.3262 26.0076 44.48Q26.0076 44.6514 25.8779 44.792Q25.7483 44.9326 25.5857 44.9326Q25.5242 44.9326 25.4604 44.8997Q25.3967 44.8667 25.366 44.8359Q25.3352 44.8052 25.2847 44.7458Q25.2341 44.6865 25.2166 44.6689Q25.155 44.6074 25.0276 44.6074Q24.9177 44.6074 24.6145 45.0469Q24.3992 45.3721 24.3992 45.6489L24.3992 46.9014Q24.3992 47.4419 24.52 47.5627Q24.6409 47.6836 25.1375 47.7231Q25.1814 47.7671 25.1814 47.8748Q25.1814 47.9824 25.1375 48.0176Q24.364 48 24.0476 48Q23.7795 48 23.0193 48.0176Q22.9841 47.9824 22.9841 47.8748Q22.9841 47.7671 23.0193 47.7231Q23.4587 47.6968 23.573 47.5693Q23.6873 47.4419 23.6873 46.9014L23.6873 45.1479Q23.6873 44.77 23.584 44.6711Q23.4807 44.5723 23.1028 44.5371Q23.05 44.3833 23.0852 44.2822Q23.7883 44.1943 24.219 44.0229Q24.2893 44.0229 24.3245 44.0933Q24.3992 44.2559 24.3992 44.7788ZM29.0178 45.4907Q29.0178 44.9326 28.7937 44.6294Q28.5696 44.3262 28.1477 44.3262Q27.427 44.3262 27.427 45.2842Q27.427 45.5347 27.4534 45.7192Q27.4797 45.9038 27.561 46.0972Q27.6423 46.2905 27.8181 46.3938Q27.9939 46.4971 28.262 46.4971Q29.0178 46.4971 29.0178 45.4907ZM27.3347 48.0879Q27.0579 48.4219 27.0579 48.936Q27.0579 49.3403 27.4358 49.5754Q27.8137 49.8105 28.1389 49.8105Q28.5608 49.8105 28.9563 49.7007Q29.3518 49.5908 29.6265 49.3579Q29.9011 49.125 29.9011 48.8174Q29.9011 48.646 29.8022 48.5295Q29.7034 48.4131 29.4441 48.2593Q29.1672 48.1055 28.3542 48.1099Q28.3103 48.1099 28.084 48.123Q27.8577 48.1362 27.6951 48.1362Q27.4973 48.1318 27.3347 48.0879ZM30.1428 44.5151Q29.9714 44.5151 29.8923 44.3569Q29.822 44.2471 29.7122 44.2471Q29.6331 44.2471 29.5188 44.3196Q29.4045 44.3921 29.3518 44.4624Q29.7385 44.8579 29.7385 45.3984Q29.7385 46.0269 29.2925 46.4004Q28.8464 46.7739 28.218 46.7739Q27.7214 46.7739 27.4006 46.585Q27.238 46.8091 27.238 47.1079Q27.238 47.3672 27.4094 47.4946Q27.5808 47.6221 27.8137 47.6221L28.0818 47.6045Q28.4421 47.5605 28.6882 47.5605Q29.6418 47.5605 30.0022 47.855Q30.3977 48.1802 30.3977 48.5845Q30.3977 49.0503 30.0154 49.4172Q29.6331 49.7842 29.0596 49.9622Q28.4861 50.1401 27.8665 50.1401Q27.2644 50.1401 26.8513 49.8984Q26.4382 49.6567 26.4382 49.1162Q26.4382 48.4702 27.1721 48.0264Q26.759 47.8198 26.759 47.332Q26.759 47.0903 26.8667 46.8333Q26.9744 46.5762 27.1545 46.4268Q26.6887 45.9785 26.6887 45.416Q26.6887 44.814 27.1479 44.4316Q27.6072 44.0493 28.2268 44.0493Q28.7849 44.0493 29.1628 44.2998Q29.3254 44.0845 29.5957 43.9636Q29.866 43.8428 30.0637 43.8428Q30.2439 43.8428 30.3604 43.9373Q30.4768 44.0317 30.4768 44.1768Q30.4768 44.313 30.3735 44.4141Q30.2703 44.5151 30.1428 44.5151ZM31.6282 45.46L33.2585 45.4336Q33.3948 45.4336 33.3904 45.3105Q33.3904 44.7964 33.1707 44.5811Q32.9509 44.3657 32.6433 44.3657Q32.5247 44.3657 32.4104 44.3965Q32.2961 44.4272 32.1292 44.5261Q31.9622 44.625 31.8259 44.8667Q31.6897 45.1084 31.6282 45.46ZM33.988 47.165Q34.1418 47.1738 34.177 47.3057Q33.575 48.0879 32.6433 48.0879Q31.7512 48.0879 31.2678 47.5122Q30.8459 47.0244 30.8459 46.1807Q30.8459 45.2271 31.4172 44.647Q31.9885 44.0669 32.6433 44.0669Q34.1638 44.0669 34.1638 45.6313Q34.1638 45.7852 33.9968 45.7852L31.6018 45.7676Q31.6018 46.5234 31.8875 47.0024Q32.283 47.6484 32.8718 47.6484Q33.2498 47.6484 33.4893 47.5408Q33.7288 47.4331 33.988 47.165ZM34.9636 46.7563Q35.0076 46.7124 35.1042 46.7124Q35.2009 46.7124 35.2449 46.7476Q35.3987 47.3848 35.5964 47.5781Q35.7942 47.7935 36.2336 47.7935Q36.5237 47.7935 36.761 47.6309Q36.9983 47.4683 36.9983 47.165Q36.9983 46.8662 36.8137 46.686Q36.6292 46.5059 36.0798 46.2817Q35.5393 46.0576 35.3152 45.7961Q35.0911 45.5347 35.0911 45.0557Q35.0911 44.6338 35.469 44.3416Q35.8469 44.0493 36.3611 44.0493Q36.5676 44.0493 36.783 44.0801Q36.9983 44.1108 37.2378 44.1614Q37.4773 44.2119 37.5388 44.2207Q37.5388 44.3394 37.5125 44.6667Q37.4861 44.9941 37.4861 45.1743Q37.4421 45.2183 37.3411 45.2183Q37.24 45.2183 37.196 45.1831Q37.1521 44.915 37.0488 44.7349Q36.9456 44.5547 36.8049 44.4778Q36.6643 44.4009 36.561 44.3745Q36.4578 44.3481 36.3611 44.3481Q36.1194 44.3481 35.9238 44.5042Q35.7283 44.6602 35.7283 44.9238Q35.7283 45.0688 35.7766 45.1831Q35.825 45.2974 35.8843 45.3699Q35.9436 45.4424 36.0842 45.5193Q36.2249 45.5962 36.3215 45.6357Q36.4182 45.6753 36.6292 45.7588Q37.6838 46.1587 37.6838 46.9541Q37.6838 47.2705 37.5344 47.5056Q37.385 47.7407 37.1521 47.8616Q36.9192 47.9824 36.6929 48.0352Q36.4666 48.0879 36.2512 48.0879Q35.8118 48.0879 35.4338 47.9912Q35.3723 47.9736 35.2537 47.9736Q35.1658 47.9736 35.0295 48Q35.0251 47.5298 34.9636 46.7563Z"/>
	</g>
</svg>
