<?xml version="1.0" encoding="utf-8" ?>
<svg xmlns="http://www.w3.org/2000/svg" xmlns:xlink="http://www.w3.org/1999/xlink" width="40" height="40">
	<clipPath id="cl_3">
		<rect width="40" height="40"/>
	</clipPath>
	<g clip-path="url(#cl_3)">
		<path fill="#010101" transform="translate(20 30)" d="M-8.92665 0L-8.92665 0Q-8.92665 -0.0674883 -8.92003 -0.134652Q-8.91342 -0.201815 -8.90025 -0.268007Q-8.88709 -0.334198 -8.86749 -0.398781Q-8.8479 -0.463363 -8.82208 -0.525714Q-8.79625 -0.588065 -8.76444 -0.647584Q-8.73263 -0.707104 -8.69513 -0.763218Q-8.65764 -0.819333 -8.61482 -0.871502Q-8.57201 -0.923671 -8.52429 -0.971393Q-8.47656 -1.01911 -8.4244 -1.06193Q-8.37223 -1.10474 -8.31611 -1.14224Q-8.26 -1.17973 -8.20048 -1.21155Q-8.14096 -1.24336 -8.07861 -1.26919Q-8.01626 -1.29501 -7.95167 -1.3146Q-7.88709 -1.33419 -7.8209 -1.34736Q-7.75471 -1.36053 -7.68754 -1.36714Q-7.62038 -1.37376 -7.55289 -1.37376L7.55289 -1.37376Q7.62038 -1.37376 7.68755 -1.36714Q7.75471 -1.36053 7.8209 -1.34736Q7.88709 -1.33419 7.95167 -1.3146Q8.01626 -1.29501 8.07861 -1.26919Q8.14096 -1.24336 8.20048 -1.21155Q8.26 -1.17973 8.31611 -1.14224Q8.37223 -1.10474 8.42439 -1.06193Q8.47656 -1.01911 8.52429 -0.971393Q8.57201 -0.923671 8.61482 -0.871502Q8.65764 -0.819333 8.69513 -0.763218Q8.73263 -0.707104 8.76444 -0.647584Q8.79625 -0.588065 8.82208 -0.525714Q8.8479 -0.463363 8.86749 -0.398781Q8.88709 -0.334198 8.90025 -0.268007Q8.91342 -0.201815 8.92003 -0.134652Q8.92665 -0.0674883 8.92665 0L8.92665 0Q8.92665 0.0674883 8.92003 0.134652Q8.91342 0.201815 8.90025 0.268007Q8.88709 0.334198 8.86749 0.398781Q8.8479 0.463363 8.82208 0.525714Q8.79625 0.588065 8.76444 0.647584Q8.73263 0.707104 8.69513 0.763218Q8.65764 0.819333 8.61482 0.871502Q8.57201 0.923671 8.52429 0.971393Q8.47656 1.01911 8.4244 1.06193Q8.37223 1.10474 8.31611 1.14224Q8.26 1.17973 8.20048 1.21155Q8.14096 1.24336 8.07861 1.26919Q8.01626 1.29501 7.95167 1.3146Q7.88709 1.33419 7.8209 1.34736Q7.75471 1.36053 7.68754 1.36714Q7.62038 1.37376 7.55289 1.37376L-7.55289 1.37376Q-7.62038 1.37376 -7.68755 1.36714Q-7.75471 1.36053 -7.8209 1.34736Q-7.88709 1.33419 -7.95167 1.3146Q-8.01626 1.29501 -8.07861 1.26919Q-8.14096 1.24336 -8.20048 1.21155Q-8.26 1.17973 -8.31611 1.14224Q-8.37223 1.10474 -8.42439 1.06193Q-8.47656 1.01911 -8.52429 0.971393Q-8.57201 0.923671 -8.61482 0.871502Q-8.65764 0.819333 -8.69513 0.763218Q-8.73263 0.707104 -8.76444 0.647584Q-8.79625 0.588065 -8.82208 0.525714Q-8.8479 0.463363 -8.86749 0.398781Q-8.88709 0.334198 -8.90025 0.268007Q-8.91342 0.201815 -8.92003 0.134652Q-8.92665 0.0674883 -8.92665 0Z"/>
		<path fill="#010101" transform="translate(20 29)" d="M-7.94124 0L-7.94124 0Q-7.94124 -0.0704226 -7.93433 -0.140506Q-7.92743 -0.21059 -7.91369 -0.279659Q-7.89995 -0.348729 -7.87951 -0.416119Q-7.85907 -0.483509 -7.83212 -0.548571Q-7.80517 -0.613633 -7.77197 -0.67574Q-7.73877 -0.737847 -7.69965 -0.796402Q-7.66052 -0.854956 -7.61585 -0.909393Q-7.57117 -0.963831 -7.52138 -1.01363Q-7.47158 -1.06342 -7.41714 -1.1081Q-7.36271 -1.15277 -7.30415 -1.1919Q-7.2456 -1.23102 -7.18349 -1.26422Q-7.12138 -1.29742 -7.05632 -1.32437Q-6.99126 -1.35132 -6.92387 -1.37176Q-6.85648 -1.3922 -6.78741 -1.40594Q-6.71834 -1.41968 -6.64826 -1.42658Q-6.57817 -1.43349 -6.50775 -1.43349L6.50775 -1.43349Q6.57817 -1.43349 6.64826 -1.42658Q6.71834 -1.41968 6.78741 -1.40594Q6.85648 -1.3922 6.92387 -1.37176Q6.99126 -1.35132 7.05632 -1.32437Q7.12138 -1.29742 7.18349 -1.26422Q7.2456 -1.23102 7.30415 -1.1919Q7.36271 -1.15277 7.41714 -1.1081Q7.47158 -1.06342 7.52138 -1.01363Q7.57117 -0.963831 7.61585 -0.909393Q7.66053 -0.854956 7.69965 -0.796402Q7.73877 -0.737848 7.77197 -0.67574Q7.80517 -0.613633 7.83212 -0.548571Q7.85907 -0.483509 7.87951 -0.416119Q7.89995 -0.348729 7.91369 -0.279659Q7.92743 -0.21059 7.93433 -0.140506Q7.94124 -0.0704226 7.94124 0L7.94124 0Q7.94124 0.0704226 7.93433 0.140506Q7.92743 0.21059 7.91369 0.279659Q7.89995 0.348729 7.87951 0.416119Q7.85907 0.483509 7.83212 0.548571Q7.80517 0.613633 7.77197 0.67574Q7.73877 0.737847 7.69965 0.796402Q7.66052 0.854956 7.61585 0.909393Q7.57117 0.963831 7.52138 1.01363Q7.47158 1.06342 7.41714 1.1081Q7.36271 1.15277 7.30415 1.1919Q7.2456 1.23102 7.18349 1.26422Q7.12138 1.29742 7.05632 1.32437Q6.99126 1.35132 6.92387 1.37176Q6.85648 1.3922 6.78741 1.40594Q6.71834 1.41968 6.64826 1.42658Q6.57817 1.43349 6.50775 1.43349L-6.50775 1.43349Q-6.57817 1.43349 -6.64826 1.42658Q-6.71834 1.41968 -6.78741 1.40594Q-6.85648 1.3922 -6.92387 1.37176Q-6.99126 1.35132 -7.05632 1.32437Q-7.12138 1.29742 -7.18349 1.26422Q-7.2456 1.23102 -7.30415 1.1919Q-7.36271 1.15277 -7.41714 1.1081Q-7.47158 1.06342 -7.52138 1.01363Q-7.57117 0.963831 -7.61585 0.909393Q-7.66053 0.854956 -7.69965 0.796402Q-7.73877 0.737848 -7.77197 0.67574Q-7.80517 0.613633 -7.83212 0.548571Q-7.85907 0.483509 -7.87951 0.416119Q-7.89995 0.348729 -7.91369 0.279659Q-7.92743 0.21059 -7.93433 0.140506Q-7.94124 0.0704226 -7.94124 0Z"/>
		<rect fill="#010101" transform="translate(14 22)" x="-1.1013404" y="-4.5990977" width="2.2026808" height="9.1981955"/>
		<rect fill="#010101" transform="translate(18 22)" x="-1.1013404" y="-4.5990977" width="2.2026808" height="9.1981955"/>
		<rect fill="#010101" transform="translate(22 22)" x="-1.1013404" y="-4.5990977" width="2.2026808" height="9.1981955"/>
		<rect fill="#010101" transform="translate(26 22)" x="-1.1013404" y="-4.5990977" width="2.2026808" height="9.1981955"/>
		<path fill="#010101" transform="translate(20 11)" d="M-4.54262e-07 -2.5L-9 2.5L9 2.5L-4.54262e-07 -2.5Z"/>
		<rect fill="#010101" transform="translate(20 15)" x="-9" y="-1.5" width="18" height="3"/>
	</g>
</svg>
