<?xml version="1.0" encoding="utf-8" ?>
<svg xmlns="http://www.w3.org/2000/svg" xmlns:xlink="http://www.w3.org/1999/xlink" width="240" height="240">
	<clipPath id="cl_3">
		<rect width="240" height="240"/>
	</clipPath>
	<g clip-path="url(#cl_3)">
		<path fill="#010101" transform="translate(120 199)" d="M-77 4.5L-77 -4.5Q-77 -4.67184 -76.9916 -4.84347Q-76.9831 -5.01511 -76.9663 -5.18612Q-76.9494 -5.35713 -76.9242 -5.52711Q-76.899 -5.69709 -76.8655 -5.86563Q-76.832 -6.03417 -76.7902 -6.20086Q-76.7485 -6.36755 -76.6986 -6.53199Q-76.6487 -6.69643 -76.5908 -6.85823Q-76.5329 -7.02002 -76.4671 -7.17878Q-76.4014 -7.33754 -76.3279 -7.49289Q-76.2544 -7.64823 -76.1734 -7.79978Q-76.0924 -7.95133 -76.0041 -8.09872Q-75.9157 -8.24611 -75.8203 -8.38899Q-75.7248 -8.53187 -75.6224 -8.6699Q-75.5201 -8.80792 -75.4111 -8.94075Q-75.3021 -9.07359 -75.1867 -9.20091Q-75.0713 -9.32824 -74.9497 -9.44975Q-74.8282 -9.57126 -74.7009 -9.68666Q-74.5736 -9.80206 -74.4408 -9.91107Q-74.3079 -10.0201 -74.1699 -10.1225Q-74.0319 -10.2248 -73.889 -10.3203Q-73.7461 -10.4158 -73.5987 -10.5041Q-73.4513 -10.5924 -73.2998 -10.6734Q-73.1482 -10.7545 -72.9929 -10.8279Q-72.8375 -10.9014 -72.6788 -10.9672Q-72.52 -11.0329 -72.3582 -11.0908Q-72.1964 -11.1487 -72.032 -11.1986Q-71.8675 -11.2485 -71.7009 -11.2902Q-71.5342 -11.332 -71.3656 -11.3655Q-71.1971 -11.399 -71.0271 -11.4242Q-70.8571 -11.4494 -70.6861 -11.4663Q-70.5151 -11.4831 -70.3435 -11.4916Q-70.1718 -11.5 -70 -11.5L70 -11.5Q70.1718 -11.5 70.3435 -11.4916Q70.5151 -11.4831 70.6861 -11.4663Q70.8571 -11.4494 71.0271 -11.4242Q71.1971 -11.399 71.3656 -11.3655Q71.5342 -11.332 71.7009 -11.2902Q71.8675 -11.2485 72.032 -11.1986Q72.1964 -11.1487 72.3582 -11.0908Q72.52 -11.0329 72.6788 -10.9672Q72.8375 -10.9014 72.9929 -10.8279Q73.1482 -10.7545 73.2998 -10.6734Q73.4513 -10.5924 73.5987 -10.5041Q73.7461 -10.4158 73.889 -10.3203Q74.0319 -10.2248 74.1699 -10.1225Q74.3079 -10.0201 74.4408 -9.91107Q74.5736 -9.80206 74.7009 -9.68666Q74.8282 -9.57126 74.9497 -9.44975Q75.0713 -9.32824 75.1867 -9.20091Q75.3021 -9.07359 75.4111 -8.94075Q75.5201 -8.80792 75.6224 -8.6699Q75.7248 -8.53187 75.8203 -8.38899Q75.9157 -8.24611 76.0041 -8.09872Q76.0924 -7.95133 76.1734 -7.79978Q76.2544 -7.64823 76.3279 -7.49289Q76.4014 -7.33754 76.4671 -7.17878Q76.5329 -7.02002 76.5908 -6.85823Q76.6487 -6.69643 76.6986 -6.53199Q76.7485 -6.36755 76.7902 -6.20086Q76.832 -6.03417 76.8655 -5.86563Q76.899 -5.69709 76.9242 -5.52711Q76.9494 -5.35713 76.9663 -5.18612Q76.9831 -5.01511 76.9916 -4.84347Q77 -4.67184 77 -4.5L77 4.5Q77 4.67184 76.9916 4.84347Q76.9831 5.01511 76.9663 5.18612Q76.9494 5.35713 76.9242 5.52711Q76.899 5.69709 76.8655 5.86563Q76.832 6.03417 76.7902 6.20086Q76.7485 6.36755 76.6986 6.53199Q76.6487 6.69643 76.5908 6.85823Q76.5329 7.02002 76.4671 7.17878Q76.4014 7.33754 76.3279 7.49289Q76.2544 7.64823 76.1734 7.79978Q76.0924 7.95133 76.0041 8.09872Q75.9157 8.24611 75.8203 8.38899Q75.7248 8.53187 75.6224 8.6699Q75.5201 8.80792 75.4111 8.94075Q75.3021 9.07359 75.1867 9.20091Q75.0713 9.32824 74.9497 9.44975Q74.8282 9.57126 74.7009 9.68666Q74.5736 9.80206 74.4408 9.91107Q74.3079 10.0201 74.1699 10.1225Q74.0319 10.2248 73.889 10.3203Q73.7461 10.4158 73.5987 10.5041Q73.4513 10.5924 73.2998 10.6734Q73.1482 10.7545 72.9929 10.8279Q72.8375 10.9014 72.6788 10.9672Q72.52 11.0329 72.3582 11.0908Q72.1964 11.1487 72.032 11.1986Q71.8675 11.2485 71.7009 11.2902Q71.5342 11.332 71.3656 11.3655Q71.1971 11.399 71.0271 11.4242Q70.8571 11.4494 70.6861 11.4663Q70.5151 11.4831 70.3435 11.4916Q70.1718 11.5 70 11.5L-70 11.5Q-70.1718 11.5 -70.3435 11.4916Q-70.5151 11.4831 -70.6861 11.4663Q-70.8571 11.4494 -71.0271 11.4242Q-71.1971 11.399 -71.3656 11.3655Q-71.5342 11.332 -71.7009 11.2902Q-71.8675 11.2485 -72.032 11.1986Q-72.1964 11.1487 -72.3582 11.0908Q-72.52 11.0329 -72.6788 10.9672Q-72.8375 10.9014 -72.9929 10.8279Q-73.1482 10.7545 -73.2998 10.6734Q-73.4513 10.5924 -73.5987 10.5041Q-73.7461 10.4158 -73.889 10.3203Q-74.0319 10.2248 -74.1699 10.1225Q-74.3079 10.0201 -74.4408 9.91107Q-74.5736 9.80206 -74.7009 9.68666Q-74.8282 9.57126 -74.9497 9.44975Q-75.0713 9.32824 -75.1867 9.20091Q-75.3021 9.07359 -75.4111 8.94075Q-75.5201 8.80792 -75.6224 8.6699Q-75.7248 8.53187 -75.8203 8.38899Q-75.9157 8.24611 -76.0041 8.09872Q-76.0924 7.95133 -76.1734 7.79978Q-76.2544 7.64823 -76.3279 7.49289Q-76.4014 7.33754 -76.4671 7.17878Q-76.5329 7.02002 -76.5908 6.85823Q-76.6487 6.69643 -76.6986 6.53199Q-76.7485 6.36755 -76.7902 6.20086Q-76.832 6.03417 -76.8655 5.86563Q-76.899 5.69709 -76.9242 5.52711Q-76.9494 5.35713 -76.9663 5.18612Q-76.9831 5.01511 -76.9916 4.84347Q-77 4.67184 -77 4.5Z"/>
		<path fill="#010101" transform="translate(120 188)" d="M-68.5 8L-68.5 -8Q-68.5 -8.19651 -68.4807 -8.39207Q-68.4615 -8.58763 -68.4231 -8.78036Q-68.3848 -8.97309 -68.3277 -9.16114Q-68.2707 -9.34918 -68.1955 -9.53073Q-68.1203 -9.71228 -68.0277 -9.88559Q-67.9351 -10.0589 -67.8259 -10.2223Q-67.7167 -10.3857 -67.592 -10.5376Q-67.4674 -10.6895 -67.3284 -10.8284Q-67.1895 -10.9674 -67.0376 -11.092Q-66.8857 -11.2167 -66.7223 -11.3259Q-66.5589 -11.4351 -66.3856 -11.5277Q-66.2123 -11.6203 -66.0307 -11.6955Q-65.8492 -11.7707 -65.6611 -11.8278Q-65.4731 -11.8848 -65.2804 -11.9231Q-65.0876 -11.9615 -64.8921 -11.9807Q-64.6965 -12 -64.5 -12L64.5 -12Q64.6965 -12 64.8921 -11.9807Q65.0876 -11.9615 65.2804 -11.9231Q65.4731 -11.8848 65.6611 -11.8278Q65.8492 -11.7707 66.0307 -11.6955Q66.2123 -11.6203 66.3856 -11.5277Q66.5589 -11.4351 66.7223 -11.3259Q66.8857 -11.2167 67.0376 -11.092Q67.1895 -10.9674 67.3284 -10.8284Q67.4674 -10.6895 67.592 -10.5376Q67.7167 -10.3857 67.8259 -10.2223Q67.9351 -10.0589 68.0277 -9.88559Q68.1203 -9.71228 68.1955 -9.53073Q68.2707 -9.34918 68.3277 -9.16114Q68.3848 -8.97309 68.4231 -8.78036Q68.4615 -8.58763 68.4807 -8.39207Q68.5 -8.19651 68.5 -8L68.5 8Q68.5 8.19651 68.4807 8.39207Q68.4615 8.58763 68.4231 8.78036Q68.3848 8.97309 68.3277 9.16114Q68.2707 9.34918 68.1955 9.53073Q68.1203 9.71228 68.0277 9.88559Q67.9351 10.0589 67.8259 10.2223Q67.7167 10.3857 67.592 10.5376Q67.4674 10.6895 67.3284 10.8284Q67.1895 10.9674 67.0376 11.092Q66.8857 11.2167 66.7223 11.3259Q66.5589 11.4351 66.3856 11.5277Q66.2123 11.6203 66.0307 11.6955Q65.8492 11.7707 65.6611 11.8278Q65.4731 11.8848 65.2804 11.9231Q65.0876 11.9615 64.8921 11.9807Q64.6965 12 64.5 12L-64.5 12Q-64.6965 12 -64.8921 11.9807Q-65.0876 11.9615 -65.2804 11.9231Q-65.4731 11.8848 -65.6611 11.8278Q-65.8492 11.7707 -66.0307 11.6955Q-66.2123 11.6203 -66.3856 11.5277Q-66.5589 11.4351 -66.7223 11.3259Q-66.8857 11.2167 -67.0376 11.092Q-67.1895 10.9674 -67.3284 10.8284Q-67.4674 10.6895 -67.592 10.5376Q-67.7167 10.3857 -67.8259 10.2223Q-67.9351 10.0589 -68.0277 9.88559Q-68.1203 9.71228 -68.1955 9.53073Q-68.2707 9.34918 -68.3277 9.16114Q-68.3848 8.97309 -68.4231 8.78036Q-68.4615 8.58763 -68.4807 8.39207Q-68.5 8.19651 -68.5 8Z"/>
		<rect fill="#010101" transform="translate(74 130)" x="-9.5" y="-38.5" width="19" height="77"/>
		<rect fill="#010101" transform="translate(103 130)" x="-9.5" y="-38.5" width="19" height="77"/>
		<rect fill="#010101" transform="translate(135 130)" x="-9.5" y="-38.5" width="19" height="77"/>
		<rect fill="#010101" transform="translate(167 130)" x="-9.5" y="-38.5" width="19" height="77"/>
		<path fill="#010101" transform="translate(120 47)" d="M-3.68457e-06 -18L-73 18L73 18L-3.68457e-06 -18Z"/>
		<path fill="#010101" transform="translate(120 76)" d="M-77 4.5L-77 -4.5Q-77 -4.67184 -76.9916 -4.84347Q-76.9831 -5.01511 -76.9663 -5.18612Q-76.9494 -5.35713 -76.9242 -5.52711Q-76.899 -5.69709 -76.8655 -5.86563Q-76.832 -6.03417 -76.7902 -6.20086Q-76.7485 -6.36755 -76.6986 -6.53199Q-76.6487 -6.69643 -76.5908 -6.85823Q-76.5329 -7.02002 -76.4671 -7.17878Q-76.4014 -7.33754 -76.3279 -7.49289Q-76.2544 -7.64823 -76.1734 -7.79978Q-76.0924 -7.95133 -76.0041 -8.09872Q-75.9157 -8.24611 -75.8203 -8.38899Q-75.7248 -8.53187 -75.6224 -8.6699Q-75.5201 -8.80792 -75.4111 -8.94075Q-75.3021 -9.07359 -75.1867 -9.20091Q-75.0713 -9.32824 -74.9497 -9.44975Q-74.8282 -9.57126 -74.7009 -9.68666Q-74.5736 -9.80206 -74.4408 -9.91107Q-74.3079 -10.0201 -74.1699 -10.1225Q-74.0319 -10.2248 -73.889 -10.3203Q-73.7461 -10.4158 -73.5987 -10.5041Q-73.4513 -10.5924 -73.2998 -10.6734Q-73.1482 -10.7545 -72.9929 -10.8279Q-72.8375 -10.9014 -72.6788 -10.9672Q-72.52 -11.0329 -72.3582 -11.0908Q-72.1964 -11.1487 -72.032 -11.1986Q-71.8675 -11.2485 -71.7009 -11.2902Q-71.5342 -11.332 -71.3656 -11.3655Q-71.1971 -11.399 -71.0271 -11.4242Q-70.8571 -11.4494 -70.6861 -11.4663Q-70.5151 -11.4831 -70.3435 -11.4916Q-70.1718 -11.5 -70 -11.5L70 -11.5Q70.1718 -11.5 70.3435 -11.4916Q70.5151 -11.4831 70.6861 -11.4663Q70.8571 -11.4494 71.0271 -11.4242Q71.1971 -11.399 71.3656 -11.3655Q71.5342 -11.332 71.7009 -11.2902Q71.8675 -11.2485 72.032 -11.1986Q72.1964 -11.1487 72.3582 -11.0908Q72.52 -11.0329 72.6788 -10.9672Q72.8375 -10.9014 72.9929 -10.8279Q73.1482 -10.7545 73.2998 -10.6734Q73.4513 -10.5924 73.5987 -10.5041Q73.7461 -10.4158 73.889 -10.3203Q74.0319 -10.2248 74.1699 -10.1225Q74.3079 -10.0201 74.4408 -9.91107Q74.5736 -9.80206 74.7009 -9.68666Q74.8282 -9.57126 74.9497 -9.44975Q75.0713 -9.32824 75.1867 -9.20091Q75.3021 -9.07359 75.4111 -8.94075Q75.5201 -8.80792 75.6224 -8.6699Q75.7248 -8.53187 75.8203 -8.38899Q75.9157 -8.24611 76.0041 -8.09872Q76.0924 -7.95133 76.1734 -7.79978Q76.2544 -7.64823 76.3279 -7.49289Q76.4014 -7.33754 76.4671 -7.17878Q76.5329 -7.02002 76.5908 -6.85823Q76.6487 -6.69643 76.6986 -6.53199Q76.7485 -6.36755 76.7902 -6.20086Q76.832 -6.03417 76.8655 -5.86563Q76.899 -5.69709 76.9242 -5.52711Q76.9494 -5.35713 76.9663 -5.18612Q76.9831 -5.01511 76.9916 -4.84347Q77 -4.67184 77 -4.5L77 4.5Q77 4.67184 76.9916 4.84347Q76.9831 5.01511 76.9663 5.18612Q76.9494 5.35713 76.9242 5.52711Q76.899 5.69709 76.8655 5.86563Q76.832 6.03417 76.7902 6.20086Q76.7485 6.36755 76.6986 6.53199Q76.6487 6.69643 76.5908 6.85823Q76.5329 7.02002 76.4671 7.17878Q76.4014 7.33754 76.3279 7.49289Q76.2544 7.64823 76.1734 7.79978Q76.0924 7.95133 76.0041 8.09872Q75.9157 8.24611 75.8203 8.38899Q75.7248 8.53187 75.6224 8.6699Q75.5201 8.80792 75.4111 8.94075Q75.3021 9.07359 75.1867 9.20091Q75.0713 9.32824 74.9497 9.44975Q74.8282 9.57126 74.7009 9.68666Q74.5736 9.80206 74.4408 9.91107Q74.3079 10.0201 74.1699 10.1225Q74.0319 10.2248 73.889 10.3203Q73.7461 10.4158 73.5987 10.5041Q73.4513 10.5924 73.2998 10.6734Q73.1482 10.7545 72.9929 10.8279Q72.8375 10.9014 72.6788 10.9672Q72.52 11.0329 72.3582 11.0908Q72.1964 11.1487 72.032 11.1986Q71.8675 11.2485 71.7009 11.2902Q71.5342 11.332 71.3656 11.3655Q71.1971 11.399 71.0271 11.4242Q70.8571 11.4494 70.6861 11.4663Q70.5151 11.4831 70.3435 11.4916Q70.1718 11.5 70 11.5L-70 11.5Q-70.1718 11.5 -70.3435 11.4916Q-70.5151 11.4831 -70.6861 11.4663Q-70.8571 11.4494 -71.0271 11.4242Q-71.1971 11.399 -71.3656 11.3655Q-71.5342 11.332 -71.7009 11.2902Q-71.8675 11.2485 -72.032 11.1986Q-72.1964 11.1487 -72.3582 11.0908Q-72.52 11.0329 -72.6788 10.9672Q-72.8375 10.9014 -72.9929 10.8279Q-73.1482 10.7545 -73.2998 10.6734Q-73.4513 10.5924 -73.5987 10.5041Q-73.7461 10.4158 -73.889 10.3203Q-74.0319 10.2248 -74.1699 10.1225Q-74.3079 10.0201 -74.4408 9.91107Q-74.5736 9.80206 -74.7009 9.68666Q-74.8282 9.57126 -74.9497 9.44975Q-75.0713 9.32824 -75.1867 9.20091Q-75.3021 9.07359 -75.4111 8.94075Q-75.5201 8.80792 -75.6224 8.6699Q-75.7248 8.53187 -75.8203 8.38899Q-75.9157 8.24611 -76.0041 8.09872Q-76.0924 7.95133 -76.1734 7.79978Q-76.2544 7.64823 -76.3279 7.49289Q-76.4014 7.33754 -76.4671 7.17878Q-76.5329 7.02002 -76.5908 6.85823Q-76.6487 6.69643 -76.6986 6.53199Q-76.7485 6.36755 -76.7902 6.20086Q-76.832 6.03417 -76.8655 5.86563Q-76.899 5.69709 -76.9242 5.52711Q-76.9494 5.35713 -76.9663 5.18612Q-76.9831 5.01511 -76.9916 4.84347Q-77 4.67184 -77 4.5Z"/>
	</g>
</svg>
