<?xml version="1.0" encoding="utf-8" ?>
<svg xmlns="http://www.w3.org/2000/svg" xmlns:xlink="http://www.w3.org/1999/xlink" width="75" height="75">
	<clipPath id="cl_8">
		<rect width="75" height="75"/>
	</clipPath>
	<g clip-path="url(#cl_8)">
		<path fill="white" transform="translate(38 64)" d="M-24.9737 0L-24.9737 0Q-24.9737 -0.181943 -24.9558 -0.363009Q-24.938 -0.544076 -24.9025 -0.722523Q-24.867 -0.900969 -24.8142 -1.07508Q-24.7614 -1.24919 -24.6918 -1.41728Q-24.6221 -1.58537 -24.5364 -1.74583Q-24.4506 -1.90629 -24.3495 -2.05757Q-24.2484 -2.20885 -24.133 -2.34949Q-24.0176 -2.49014 -23.8889 -2.61879Q-23.7603 -2.74744 -23.6196 -2.86287Q-23.479 -2.97829 -23.3277 -3.07937Q-23.1764 -3.18045 -23.016 -3.26622Q-22.8555 -3.35199 -22.6874 -3.42161Q-22.5193 -3.49124 -22.3452 -3.54406Q-22.1711 -3.59687 -21.9927 -3.63237Q-21.8142 -3.66786 -21.6332 -3.6857Q-21.4521 -3.70353 -21.2701 -3.70353L21.2701 -3.70353Q21.4521 -3.70353 21.6332 -3.6857Q21.8142 -3.66786 21.9927 -3.63237Q22.1711 -3.59687 22.3452 -3.54406Q22.5193 -3.49124 22.6874 -3.42161Q22.8555 -3.35199 23.016 -3.26622Q23.1764 -3.18045 23.3277 -3.07937Q23.479 -2.97829 23.6196 -2.86287Q23.7603 -2.74744 23.8889 -2.61879Q24.0176 -2.49014 24.133 -2.34949Q24.2484 -2.20885 24.3495 -2.05757Q24.4506 -1.90629 24.5364 -1.74583Q24.6221 -1.58537 24.6918 -1.41728Q24.7614 -1.24919 24.8142 -1.07508Q24.867 -0.900969 24.9025 -0.722523Q24.938 -0.544076 24.9558 -0.363009Q24.9737 -0.181943 24.9737 0L24.9737 0Q24.9737 0.181943 24.9558 0.363009Q24.938 0.544076 24.9025 0.722523Q24.867 0.900969 24.8142 1.07508Q24.7614 1.24919 24.6918 1.41728Q24.6221 1.58537 24.5364 1.74583Q24.4506 1.90629 24.3495 2.05757Q24.2484 2.20885 24.133 2.34949Q24.0176 2.49014 23.8889 2.61879Q23.7603 2.74744 23.6196 2.86287Q23.479 2.97829 23.3277 3.07937Q23.1764 3.18045 23.016 3.26622Q22.8555 3.35199 22.6874 3.42161Q22.5193 3.49124 22.3452 3.54406Q22.1711 3.59687 21.9927 3.63237Q21.8142 3.66786 21.6332 3.6857Q21.4521 3.70353 21.2701 3.70353L-21.2701 3.70353Q-21.4521 3.70353 -21.6332 3.6857Q-21.8142 3.66786 -21.9927 3.63237Q-22.1711 3.59687 -22.3452 3.54406Q-22.5193 3.49124 -22.6874 3.42161Q-22.8555 3.35199 -23.016 3.26622Q-23.1764 3.18045 -23.3277 3.07937Q-23.479 2.97829 -23.6196 2.86287Q-23.7603 2.74744 -23.8889 2.61879Q-24.0176 2.49014 -24.133 2.34949Q-24.2484 2.20885 -24.3495 2.05757Q-24.4506 1.90629 -24.5364 1.74583Q-24.6221 1.58537 -24.6918 1.41728Q-24.7614 1.24919 -24.8142 1.07508Q-24.867 0.900969 -24.9025 0.722523Q-24.938 0.544076 -24.9558 0.363009Q-24.9737 0.181943 -24.9737 0Z"/>
		<path fill="white" transform="translate(38 61)" d="M-22.2168 1.86455L-22.2168 -1.86455Q-22.2168 -1.96281 -22.2072 -2.06059Q-22.1975 -2.15837 -22.1784 -2.25473Q-22.1592 -2.3511 -22.1307 -2.44512Q-22.1022 -2.53914 -22.0646 -2.62992Q-22.027 -2.72069 -21.9806 -2.80735Q-21.9343 -2.894 -21.8797 -2.97569Q-21.8252 -3.05739 -21.7628 -3.13334Q-21.7005 -3.20929 -21.631 -3.27877Q-21.5615 -3.34824 -21.4856 -3.41057Q-21.4096 -3.4729 -21.3279 -3.52749Q-21.2462 -3.58208 -21.1596 -3.62839Q-21.0729 -3.67471 -20.9822 -3.71231Q-20.8914 -3.74991 -20.7974 -3.77843Q-20.7033 -3.80695 -20.607 -3.82612Q-20.5106 -3.84529 -20.4128 -3.85492Q-20.3151 -3.86455 -20.2168 -3.86455L20.2168 -3.86455Q20.3151 -3.86455 20.4128 -3.85492Q20.5106 -3.84529 20.607 -3.82612Q20.7033 -3.80695 20.7974 -3.77843Q20.8914 -3.74991 20.9822 -3.71231Q21.0729 -3.67471 21.1596 -3.62839Q21.2462 -3.58208 21.3279 -3.52749Q21.4096 -3.4729 21.4856 -3.41057Q21.5615 -3.34824 21.631 -3.27877Q21.7005 -3.20929 21.7628 -3.13334Q21.8252 -3.05739 21.8797 -2.97569Q21.9343 -2.894 21.9806 -2.80735Q22.027 -2.72069 22.0646 -2.62992Q22.1022 -2.53914 22.1307 -2.44512Q22.1592 -2.3511 22.1784 -2.25473Q22.1975 -2.15837 22.2072 -2.06059Q22.2168 -1.96281 22.2168 -1.86455L22.2168 1.86455Q22.2168 1.96281 22.2072 2.06059Q22.1975 2.15837 22.1784 2.25473Q22.1592 2.3511 22.1307 2.44512Q22.1022 2.53914 22.0646 2.62992Q22.027 2.72069 21.9806 2.80735Q21.9343 2.894 21.8797 2.97569Q21.8252 3.05739 21.7628 3.13334Q21.7005 3.20929 21.631 3.27877Q21.5615 3.34824 21.4856 3.41057Q21.4096 3.4729 21.3279 3.52749Q21.2462 3.58208 21.1596 3.62839Q21.0729 3.67471 20.9822 3.71231Q20.8914 3.74991 20.7974 3.77843Q20.7033 3.80695 20.607 3.82612Q20.5106 3.84529 20.4128 3.85492Q20.3151 3.86455 20.2168 3.86455L-20.2168 3.86455Q-20.3151 3.86455 -20.4128 3.85492Q-20.5106 3.84529 -20.607 3.82612Q-20.7033 3.80695 -20.7974 3.77843Q-20.8914 3.74991 -20.9822 3.71231Q-21.0729 3.67471 -21.1596 3.62839Q-21.2462 3.58208 -21.3279 3.52749Q-21.4096 3.4729 -21.4856 3.41057Q-21.5615 3.34824 -21.631 3.27877Q-21.7005 3.20929 -21.7628 3.13334Q-21.8252 3.05739 -21.8797 2.97569Q-21.9343 2.894 -21.9806 2.80735Q-22.027 2.72069 -22.0646 2.62992Q-22.1022 2.53914 -22.1307 2.44512Q-22.1592 2.3511 -22.1784 2.25473Q-22.1975 2.15837 -22.2072 2.06059Q-22.2168 1.96281 -22.2168 1.86455Z"/>
		<rect fill="white" transform="translate(22 42)" x="-3.0811658" y="-12.398764" width="6.1623316" height="24.797527"/>
		<rect fill="white" transform="translate(32 42)" x="-3.0811658" y="-12.398764" width="6.1623316" height="24.797527"/>
		<rect fill="white" transform="translate(43 42)" x="-3.0811658" y="-12.398764" width="6.1623316" height="24.797527"/>
		<rect fill="white" transform="translate(53 42)" x="-3.0811658" y="-12.398764" width="6.1623316" height="24.797527"/>
		<path fill="white" transform="translate(38 14)" d="M-1.25764e-06 -6.5L-24.9168 6.5L24.9168 6.5L-1.25764e-06 -6.5Z"/>
		<rect fill="white" transform="translate(38 24)" x="-24.973669" y="-3.7035289" width="49.947338" height="7.4070578"/>
	</g>
</svg>
