<?xml version="1.0" encoding="utf-8" ?>
<svg xmlns="http://www.w3.org/2000/svg" xmlns:xlink="http://www.w3.org/1999/xlink" width="279" height="240">
	<clipPath id="cl_4">
		<rect width="278.52069" height="240"/>
	</clipPath>
	<g clip-path="url(#cl_4)">
		<path fill="white" transform="translate(41 147)" d="M-26.9396 0L-26.9396 0Q-26.9396 -0.191649 -26.9208 -0.382375Q-26.9021 -0.5731 -26.8647 -0.761067Q-26.8273 -0.949033 -26.7717 -1.13243Q-26.716 -1.31583 -26.6427 -1.49289Q-26.5693 -1.66995 -26.479 -1.83897Q-26.3886 -2.00798 -26.2822 -2.16733Q-26.1757 -2.32668 -26.0541 -2.47483Q-25.9325 -2.62298 -25.797 -2.75849Q-25.6615 -2.89401 -25.5134 -3.01559Q-25.3652 -3.13717 -25.2059 -3.24365Q-25.0465 -3.35012 -24.8775 -3.44046Q-24.7085 -3.5308 -24.5314 -3.60415Q-24.3544 -3.67749 -24.171 -3.73312Q-23.9876 -3.78875 -23.7996 -3.82614Q-23.6116 -3.86353 -23.4209 -3.88231Q-23.2302 -3.9011 -23.0385 -3.9011L23.0385 -3.9011Q23.2302 -3.9011 23.4209 -3.88231Q23.6116 -3.86353 23.7996 -3.82614Q23.9876 -3.78875 24.171 -3.73312Q24.3544 -3.67749 24.5314 -3.60415Q24.7085 -3.5308 24.8775 -3.44046Q25.0465 -3.35012 25.2059 -3.24365Q25.3652 -3.13717 25.5134 -3.01559Q25.6615 -2.89401 25.797 -2.75849Q25.9325 -2.62298 26.0541 -2.47483Q26.1757 -2.32668 26.2822 -2.16733Q26.3887 -2.00798 26.479 -1.83897Q26.5693 -1.66995 26.6427 -1.49289Q26.716 -1.31583 26.7717 -1.13243Q26.8273 -0.949033 26.8647 -0.761067Q26.9021 -0.5731 26.9208 -0.382375Q26.9396 -0.191649 26.9396 0L26.9396 0Q26.9396 0.191649 26.9208 0.382375Q26.9021 0.5731 26.8647 0.761067Q26.8273 0.949033 26.7717 1.13243Q26.716 1.31583 26.6427 1.49289Q26.5693 1.66995 26.479 1.83897Q26.3886 2.00798 26.2822 2.16733Q26.1757 2.32668 26.0541 2.47483Q25.9325 2.62298 25.797 2.75849Q25.6615 2.89401 25.5134 3.01559Q25.3652 3.13717 25.2059 3.24365Q25.0465 3.35012 24.8775 3.44046Q24.7085 3.5308 24.5314 3.60415Q24.3544 3.67749 24.171 3.73312Q23.9876 3.78875 23.7996 3.82614Q23.6116 3.86353 23.4209 3.88231Q23.2302 3.9011 23.0385 3.9011L-23.0385 3.9011Q-23.2302 3.9011 -23.4209 3.88231Q-23.6116 3.86353 -23.7996 3.82614Q-23.9876 3.78875 -24.171 3.73312Q-24.3544 3.67749 -24.5314 3.60415Q-24.7085 3.5308 -24.8775 3.44046Q-25.0465 3.35012 -25.2059 3.24365Q-25.3652 3.13717 -25.5134 3.01559Q-25.6615 2.89401 -25.797 2.75849Q-25.9325 2.62298 -26.0541 2.47483Q-26.1757 2.32668 -26.2822 2.16733Q-26.3887 2.00798 -26.479 1.83897Q-26.5693 1.66995 -26.6427 1.49289Q-26.716 1.31583 -26.7717 1.13243Q-26.8273 0.949033 -26.8647 0.761067Q-26.9021 0.5731 -26.9208 0.382375Q-26.9396 0.191649 -26.9396 0Z"/>
		<path fill="white" transform="translate(41 144)" d="M-23.9658 1.07071L-23.9658 -1.07071Q-23.9658 -1.2181 -23.9513 -1.36477Q-23.9369 -1.51144 -23.9081 -1.65599Q-23.8794 -1.80053 -23.8366 -1.94157Q-23.7938 -2.0826 -23.7374 -2.21876Q-23.681 -2.35493 -23.6115 -2.4849Q-23.5421 -2.61488 -23.4602 -2.73742Q-23.3783 -2.85997 -23.2848 -2.97389Q-23.1913 -3.08782 -23.0871 -3.19203Q-22.9829 -3.29625 -22.869 -3.38975Q-22.755 -3.48324 -22.6325 -3.56512Q-22.5099 -3.647 -22.38 -3.71648Q-22.25 -3.78595 -22.1138 -3.84235Q-21.9777 -3.89875 -21.8366 -3.94154Q-21.6956 -3.98432 -21.5511 -4.01307Q-21.4065 -4.04182 -21.2598 -4.05627Q-21.1132 -4.07071 -20.9658 -4.07071L20.9658 -4.07071Q21.1132 -4.07071 21.2598 -4.05627Q21.4065 -4.04182 21.5511 -4.01307Q21.6956 -3.98432 21.8366 -3.94154Q21.9777 -3.89875 22.1138 -3.84235Q22.25 -3.78595 22.38 -3.71648Q22.5099 -3.647 22.6325 -3.56512Q22.755 -3.48324 22.869 -3.38975Q22.9829 -3.29625 23.0871 -3.19203Q23.1913 -3.08782 23.2848 -2.97389Q23.3783 -2.85997 23.4602 -2.73743Q23.5421 -2.61488 23.6115 -2.4849Q23.681 -2.35493 23.7374 -2.21876Q23.7938 -2.0826 23.8366 -1.94157Q23.8794 -1.80053 23.9081 -1.65599Q23.9369 -1.51144 23.9513 -1.36477Q23.9658 -1.2181 23.9658 -1.07071L23.9658 1.07071Q23.9658 1.2181 23.9513 1.36477Q23.9369 1.51144 23.9081 1.65599Q23.8794 1.80053 23.8366 1.94157Q23.7938 2.0826 23.7374 2.21876Q23.681 2.35493 23.6115 2.4849Q23.5421 2.61488 23.4602 2.73742Q23.3783 2.85997 23.2848 2.97389Q23.1913 3.08782 23.0871 3.19203Q22.9829 3.29625 22.869 3.38975Q22.755 3.48324 22.6325 3.56512Q22.5099 3.647 22.38 3.71648Q22.25 3.78595 22.1138 3.84235Q21.9777 3.89875 21.8366 3.94154Q21.6956 3.98432 21.5511 4.01307Q21.4065 4.04182 21.2598 4.05627Q21.1132 4.07071 20.9658 4.07071L-20.9658 4.07071Q-21.1132 4.07071 -21.2598 4.05627Q-21.4065 4.04182 -21.5511 4.01307Q-21.6956 3.98432 -21.8366 3.94154Q-21.9777 3.89875 -22.1138 3.84235Q-22.25 3.78595 -22.38 3.71648Q-22.5099 3.647 -22.6325 3.56512Q-22.755 3.48324 -22.869 3.38975Q-22.9829 3.29625 -23.0871 3.19203Q-23.1913 3.08782 -23.2848 2.97389Q-23.3783 2.85997 -23.4602 2.73743Q-23.5421 2.61488 -23.6115 2.4849Q-23.681 2.35493 -23.7374 2.21876Q-23.7938 2.0826 -23.8366 1.94157Q-23.8794 1.80053 -23.9081 1.65599Q-23.9369 1.51144 -23.9513 1.36477Q-23.9658 1.2181 -23.9658 1.07071Z"/>
		<rect fill="white" transform="translate(25 122)" x="-3.3237183" y="-13.060205" width="6.6474366" height="26.120409"/>
		<rect fill="white" transform="translate(36 122)" x="-3.3237183" y="-13.060205" width="6.6474366" height="26.120409"/>
		<rect fill="white" transform="translate(47 122)" x="-3.3237183" y="-13.060205" width="6.6474366" height="26.120409"/>
		<rect fill="white" transform="translate(59 122)" x="-3.3237183" y="-13.060205" width="6.6474366" height="26.120409"/>
		<path fill="white" transform="translate(42 93)" d="M-1.29596e-06 -5.55102L-25.676 5.55102L25.676 5.55102L-1.29596e-06 -5.55102Z"/>
		<path fill="white" transform="translate(41 102)" d="M-27.0274 1.16327L-27.0274 -1.16327Q-27.0274 -1.31065 -27.0129 -1.45732Q-26.9985 -1.60399 -26.9697 -1.74854Q-26.941 -1.89308 -26.8982 -2.03412Q-26.8554 -2.17515 -26.799 -2.31132Q-26.7426 -2.44748 -26.6731 -2.57746Q-26.6037 -2.70743 -26.5218 -2.82998Q-26.4399 -2.95252 -26.3464 -3.06644Q-26.2529 -3.18037 -26.1487 -3.28459Q-26.0445 -3.3888 -25.9306 -3.4823Q-25.8166 -3.57579 -25.6941 -3.65767Q-25.5715 -3.73955 -25.4416 -3.80903Q-25.3116 -3.8785 -25.1754 -3.9349Q-25.0393 -3.9913 -24.8982 -4.03409Q-24.7572 -4.07687 -24.6126 -4.10562Q-24.4681 -4.13437 -24.3214 -4.14882Q-24.1748 -4.16327 -24.0274 -4.16327L24.0274 -4.16327Q24.1748 -4.16327 24.3214 -4.14882Q24.4681 -4.13437 24.6127 -4.10562Q24.7572 -4.07687 24.8982 -4.03409Q25.0393 -3.9913 25.1754 -3.9349Q25.3116 -3.8785 25.4416 -3.80903Q25.5715 -3.73955 25.6941 -3.65767Q25.8166 -3.57579 25.9306 -3.4823Q26.0445 -3.3888 26.1487 -3.28459Q26.2529 -3.18037 26.3464 -3.06645Q26.4399 -2.95252 26.5218 -2.82998Q26.6037 -2.70743 26.6731 -2.57746Q26.7426 -2.44748 26.799 -2.31132Q26.8554 -2.17515 26.8982 -2.03412Q26.941 -1.89308 26.9697 -1.74854Q26.9985 -1.60399 27.0129 -1.45732Q27.0274 -1.31065 27.0274 -1.16327L27.0274 1.16327Q27.0274 1.31065 27.0129 1.45732Q26.9985 1.60399 26.9697 1.74854Q26.941 1.89308 26.8982 2.03412Q26.8554 2.17515 26.799 2.31132Q26.7426 2.44748 26.6731 2.57746Q26.6037 2.70743 26.5218 2.82998Q26.4399 2.95252 26.3464 3.06644Q26.2529 3.18037 26.1487 3.28459Q26.0445 3.3888 25.9306 3.4823Q25.8166 3.57579 25.6941 3.65767Q25.5715 3.73955 25.4416 3.80903Q25.3116 3.8785 25.1754 3.9349Q25.0393 3.9913 24.8982 4.03409Q24.7572 4.07687 24.6126 4.10562Q24.4681 4.13437 24.3214 4.14882Q24.1748 4.16327 24.0274 4.16327L-24.0274 4.16327Q-24.1748 4.16327 -24.3214 4.14882Q-24.4681 4.13437 -24.6127 4.10562Q-24.7572 4.07687 -24.8982 4.03409Q-25.0393 3.9913 -25.1754 3.9349Q-25.3116 3.8785 -25.4416 3.80903Q-25.5715 3.73955 -25.6941 3.65767Q-25.8166 3.57579 -25.9306 3.4823Q-26.0445 3.3888 -26.1487 3.28459Q-26.2529 3.18037 -26.3464 3.06645Q-26.4399 2.95252 -26.5218 2.82998Q-26.6037 2.70743 -26.6731 2.57746Q-26.7426 2.44748 -26.799 2.31132Q-26.8554 2.17515 -26.8982 2.03412Q-26.941 1.89308 -26.9697 1.74854Q-26.9985 1.60399 -27.0129 1.45732Q-27.0274 1.31065 -27.0274 1.16327Z"/>
		<rect fill="white" transform="translate(120 120)" x="-1.3513689" y="-33.999992" width="2.7027378" height="67.999985"/>
		<path fill="white" transform="translate(169.026 87.2041)" d="M6.30176 13.8027Q6.30176 14.8838 6.60498 15.1431Q6.9082 15.4023 8.04199 15.4463Q8.12988 15.5342 8.13428 15.7495Q8.13867 15.9648 8.04199 16.0352Q6.24023 16 5.5459 16Q4.79004 16 3.02344 16.0352Q2.95312 15.9648 2.95312 15.7495Q2.95312 15.5342 3.02344 15.4463Q4.15723 15.4111 4.46484 15.1475Q4.77246 14.8838 4.77246 13.8027L4.77246 6.87695Q4.77246 5.99805 4.5835 5.54541Q4.39453 5.09277 3.91992 5.09277L3.04102 5.09277Q2.10938 5.09277 1.51172 5.52344Q0.914062 5.9541 0.667969 7Q0.290039 7 0.0527344 6.91211Q0.413086 5.36523 0.500977 4.30176Q0.500977 4.24902 0.580078 4.24902Q2.39941 4.38965 4.77246 4.38965L6.31934 4.38965Q8.70996 4.38965 10.3535 4.24902Q10.4062 4.24902 10.4062 4.30176Q10.4238 5.48828 10.6348 6.85938Q10.4326 6.94727 10.0283 6.94727Q9.80859 5.93652 9.19775 5.51465Q8.58691 5.09277 7.52344 5.09277L7.12793 5.09277Q6.66211 5.09277 6.48193 5.5498Q6.30176 6.00684 6.30176 6.92969L6.30176 13.8027ZM22.2979 13.8027Q22.2979 14.8838 22.5747 15.1431Q22.8516 15.4023 23.8623 15.4463Q23.9502 15.5342 23.9502 15.7495Q23.9502 15.9648 23.8623 16.0352Q22.0605 16 21.542 16Q20.9619 16 19.1953 16.0352Q19.125 15.9648 19.125 15.7495Q19.125 15.5342 19.1953 15.4463Q20.2061 15.4111 20.4873 15.1475Q20.7686 14.8838 20.7686 13.8027L20.7686 10.2256L14.6074 10.2256L14.6074 13.8027Q14.6074 14.8838 14.8887 15.1431Q15.1699 15.4023 16.1719 15.4463Q16.2422 15.5342 16.2466 15.7495Q16.251 15.9648 16.1719 16.0352Q14.3701 16 13.8516 16Q13.2715 16 11.5137 16.0352Q11.4258 15.9648 11.4258 15.7495Q11.4258 15.5342 11.5137 15.4463Q12.5244 15.4111 12.8013 15.1475Q13.0781 14.8838 13.0781 13.8027L13.0781 6.58691Q13.0781 5.50586 12.8013 5.24658Q12.5244 4.9873 11.5137 4.95215Q11.4258 4.88184 11.4258 4.66211Q11.4258 4.44238 11.5137 4.35449Q13.3154 4.38965 13.834 4.38965Q14.4141 4.38965 16.1719 4.35449Q16.2422 4.44238 16.2466 4.65771Q16.251 4.87305 16.1719 4.95215Q15.1611 4.9873 14.8843 5.24658Q14.6074 5.50586 14.6074 6.58691L14.6074 9.46973L20.7686 9.46973L20.7686 6.58691Q20.7686 5.50586 20.4873 5.24658Q20.2061 4.9873 19.1953 4.95215Q19.125 4.88184 19.125 4.66211Q19.125 4.44238 19.1953 4.35449Q20.9971 4.38965 21.5244 4.38965Q22.1045 4.38965 23.8623 4.35449Q23.9502 4.44238 23.9502 4.65771Q23.9502 4.87305 23.8623 4.95215Q22.8516 4.9873 22.5747 5.24658Q22.2979 5.50586 22.2979 6.58691L22.2979 13.8027ZM29.6543 9.50488Q30.7529 9.50488 31.0034 9.28955Q31.2539 9.07422 31.2891 8.27441Q31.3594 8.18652 31.5791 8.18652Q31.7988 8.18652 31.8867 8.27441Q31.8516 9.35547 31.8516 9.83008Q31.8516 10.1553 31.8867 11.4121Q31.7988 11.5 31.5835 11.5Q31.3682 11.5 31.2891 11.4121Q31.2539 10.9287 31.1836 10.7178Q31.1133 10.5068 30.7529 10.3442Q30.3926 10.1816 29.6543 10.1816L28.0195 10.1816L28.0195 14.5234Q28.0195 15.2969 28.6611 15.2969L31.1133 15.2969Q32.8271 15.2969 33.4688 12.9414Q33.7939 12.8711 34.1016 13.0293Q33.8818 14.4531 33.4336 16.0352Q31.9922 16 31.1309 16L27.2637 16Q25.8047 16.0176 24.917 16.0352Q24.8467 15.9648 24.8467 15.7495Q24.8467 15.5342 24.917 15.4463Q25.9277 15.4111 26.209 15.1475Q26.4902 14.8838 26.4902 13.8027L26.4902 6.58691Q26.4902 5.50586 26.209 5.24658Q25.9277 4.9873 24.917 4.95215Q24.8467 4.88184 24.8467 4.66211Q24.8467 4.44238 24.917 4.35449L27.2461 4.38965L31.834 4.38965Q32.2998 4.38965 32.7129 4.31934Q32.7832 4.31934 32.7832 4.37207Q32.9238 4.9873 33.1875 6.98242Q32.8975 7.12305 32.5898 7.07031Q32.2471 5.98926 31.8691 5.5498Q31.4912 5.11035 30.5596 5.11035L28.6611 5.11035Q28.3535 5.11035 28.1865 5.33447Q28.0195 5.55859 28.0195 5.90137L28.0195 9.50488L29.6543 9.50488Z"/>
		<path fill="white" transform="translate(169.026 87.2041)" d="M2.64551 37Q1.18652 37.0176 0.307617 37.0352Q0.219727 36.9648 0.219727 36.7495Q0.219727 36.5342 0.307617 36.4463Q1.31836 36.4111 1.59521 36.1475Q1.87207 35.8838 1.87207 34.8027L1.87207 27.5869Q1.87207 26.5059 1.59521 26.2466Q1.31836 25.9873 0.307617 25.9521Q0.219727 25.8818 0.219727 25.6621Q0.219727 25.4424 0.307617 25.3545Q2.10938 25.3896 2.62793 25.3896Q3.20801 25.3896 4.96582 25.3545Q5.03613 25.4424 5.03613 25.6577Q5.03613 25.873 4.96582 25.9521Q3.95508 25.9873 3.67822 26.2466Q3.40137 26.5059 3.40137 27.5869L3.40137 35.4004Q3.40137 35.8135 3.62549 36.0552Q3.84961 36.2969 4.24512 36.2969L5.56348 36.2969Q6.88184 36.2969 7.53662 35.6772Q8.19141 35.0576 8.49902 33.9414Q8.80664 33.8887 9.08789 34.0293Q8.91211 35.5938 8.62207 37.0352Q6.96094 37 6.47754 37L2.64551 37ZM12.9023 34.8027Q12.9023 35.8838 13.1836 36.1431Q13.4648 36.4023 14.4668 36.4463Q14.5371 36.5342 14.5415 36.7495Q14.5459 36.9648 14.4668 37.0352Q12.665 37 12.1465 37Q11.5664 37 9.80859 37.0352Q9.7207 36.9648 9.7207 36.7495Q9.7207 36.5342 9.80859 36.4463Q10.8193 36.4111 11.0962 36.1475Q11.373 35.8838 11.373 34.8027L11.373 27.5869Q11.373 26.5059 11.0962 26.2466Q10.8193 25.9873 9.80859 25.9521Q9.7207 25.8818 9.7207 25.6621Q9.7207 25.4424 9.80859 25.3545Q11.6104 25.3896 12.1289 25.3896Q12.709 25.3896 14.4668 25.3545Q14.5371 25.4424 14.5415 25.6577Q14.5459 25.873 14.4668 25.9521Q13.4561 25.9873 13.1792 26.2466Q12.9023 26.5059 12.9023 27.5869L12.9023 34.8027ZM18.6768 26.7432L18.6768 30.4082L20.0127 30.4082Q22.5703 30.4082 22.5703 28.3428Q22.5703 27.1035 21.8672 26.5366Q21.1641 25.9697 20.2412 25.9697Q19.4678 25.9697 19.1382 26.0488Q18.8086 26.1279 18.7427 26.2642Q18.6768 26.4004 18.6768 26.7432ZM18.6768 31.0234L18.6768 35.2334Q18.6768 36.4375 20.1709 36.4463Q22.0605 36.4463 22.7373 35.8047Q23.4141 35.1631 23.4141 34.0293Q23.4141 32.7109 22.5396 31.8672Q21.665 31.0234 19.916 31.0234L18.6768 31.0234ZM17.9033 25.3896Q18.2988 25.3896 19.0723 25.3721Q19.8457 25.3545 20.1533 25.3545Q24.0205 25.3545 24.0205 28.123Q24.0205 28.8262 23.5283 29.4766Q23.0361 30.127 22.3154 30.4873L22.3154 30.5225Q23.5723 30.8828 24.3281 31.6738Q25.084 32.4648 25.084 33.6865Q25.084 34.3193 24.8687 34.8774Q24.6533 35.4355 24.1699 35.9409Q23.6865 36.4463 22.7593 36.7407Q21.832 37.0352 20.5488 37.0352Q19.6523 37.0352 18.9316 37.0176Q18.2109 37 17.9209 37Q17.3408 37 15.583 37.0352Q15.4951 36.9648 15.4951 36.7495Q15.4951 36.5342 15.583 36.4463Q16.5938 36.4111 16.8706 36.1475Q17.1475 35.8838 17.1475 34.8027L17.1475 27.5869Q17.1475 26.5059 16.8706 26.2466Q16.5938 25.9873 15.583 25.9521Q15.4951 25.8818 15.4951 25.6621Q15.4951 25.4424 15.583 25.3545Q17.3848 25.3896 17.9033 25.3896ZM30.7178 25.873Q29.2236 25.873 29.2236 27.0244L29.2236 31.1465L30.085 31.1465Q31.5439 31.1465 32.3262 30.5532Q33.1084 29.96 33.1084 28.3955Q33.1084 25.873 30.7178 25.873ZM29.2236 34.8027Q29.2236 35.8838 29.5049 36.1431Q29.7861 36.4023 30.7881 36.4463Q30.8584 36.5342 30.8584 36.7495Q30.8584 36.9648 30.7881 37.0352Q28.9863 37 28.4678 37Q27.8877 37 26.1299 37.0352Q26.042 36.9648 26.042 36.7495Q26.042 36.5342 26.1299 36.4463Q27.1406 36.4111 27.4175 36.1475Q27.6943 35.8838 27.6943 34.8027L27.6943 27.5869Q27.6943 26.5059 27.4175 26.2466Q27.1406 25.9873 26.1299 25.9521Q26.042 25.8818 26.042 25.6621Q26.042 25.4424 26.1299 25.3545Q27.9316 25.3896 28.4502 25.3896Q28.8281 25.3896 29.6631 25.3281Q30.498 25.2666 30.7002 25.2666Q31.7637 25.2666 32.502 25.4292Q33.2402 25.5918 33.8115 26.1279Q34.7695 27.0244 34.7695 28.3779Q34.7695 29.6172 33.9873 30.3994Q33.2051 31.1816 32.3701 31.4541L34.6465 35.2334Q35.0596 35.9189 35.4375 36.2705Q35.8154 36.6221 36.3691 36.6221Q36.4922 36.8594 36.3867 37.0527Q36.1318 37.1758 35.6309 37.1758Q34.2422 37.1758 33.2578 35.5762L31.333 32.4473Q31.1133 32.0869 30.6914 31.9243Q30.2695 31.7617 29.2236 31.7617L29.2236 34.8027ZM41.124 31.9023L44.3057 31.9023L42.6182 27.0068L42.5039 27.0068L40.667 31.665Q40.6406 31.7178 40.6494 31.7617Q40.6582 31.8057 40.6846 31.832Q40.7109 31.8584 40.7725 31.876Q40.834 31.8936 40.9175 31.8979Q41.001 31.9023 41.124 31.9023ZM39.1729 35.5762Q39.1553 35.752 39.1201 35.8882Q39.085 36.0244 39.2212 36.1167Q39.3574 36.209 39.4365 36.2617Q39.5156 36.3145 39.7354 36.3584Q39.9551 36.4023 40.0781 36.4111Q40.2012 36.4199 40.4209 36.4463Q40.4912 36.5342 40.4912 36.7495Q40.4912 36.9648 40.4209 37.0352Q39.085 37 38.1182 37Q37.8457 37 36.5098 37.0352Q36.4219 36.9648 36.4219 36.7495Q36.4219 36.5342 36.5098 36.4463Q37.1953 36.3936 37.5908 36.165Q37.9863 35.9365 38.3115 35.1631L42.3984 25.5127Q42.7939 25.5127 43.3916 25.1523L47.1006 35.4531Q47.2061 35.7783 47.3599 35.9761Q47.5137 36.1738 47.7817 36.2705Q48.0498 36.3672 48.186 36.3848Q48.3223 36.4023 48.7178 36.4463Q48.8057 36.5342 48.8057 36.7495Q48.8057 36.9648 48.7178 37.0352Q47.3818 37 46.6611 37Q45.6328 37 44.3057 37.0352Q44.2354 36.9648 44.2354 36.7495Q44.2354 36.5342 44.3057 36.4463Q44.4111 36.4463 44.5825 36.4331Q44.7539 36.4199 44.8462 36.4111Q44.9385 36.4023 45.0835 36.3848Q45.2285 36.3672 45.2988 36.3496Q45.3691 36.332 45.4658 36.2969Q45.5625 36.2617 45.6021 36.209Q45.6416 36.1562 45.668 36.0815Q45.6943 36.0068 45.6855 35.9189Q45.6768 35.8311 45.6416 35.708L44.5957 32.6582L40.7988 32.6582Q40.4736 32.6582 40.355 32.7241Q40.2363 32.79 40.166 32.9658L39.1729 35.5762ZM53.7891 25.873Q52.2949 25.873 52.2949 27.0244L52.2949 31.1465L53.1562 31.1465Q54.6152 31.1465 55.3975 30.5532Q56.1797 29.96 56.1797 28.3955Q56.1797 25.873 53.7891 25.873ZM52.2949 34.8027Q52.2949 35.8838 52.5762 36.1431Q52.8574 36.4023 53.8594 36.4463Q53.9297 36.5342 53.9297 36.7495Q53.9297 36.9648 53.8594 37.0352Q52.0576 37 51.5391 37Q50.959 37 49.2012 37.0352Q49.1133 36.9648 49.1133 36.7495Q49.1133 36.5342 49.2012 36.4463Q50.2119 36.4111 50.4888 36.1475Q50.7656 35.8838 50.7656 34.8027L50.7656 27.5869Q50.7656 26.5059 50.4888 26.2466Q50.2119 25.9873 49.2012 25.9521Q49.1133 25.8818 49.1133 25.6621Q49.1133 25.4424 49.2012 25.3545Q51.0029 25.3896 51.5215 25.3896Q51.8994 25.3896 52.7344 25.3281Q53.5693 25.2666 53.7715 25.2666Q54.835 25.2666 55.5732 25.4292Q56.3115 25.5918 56.8828 26.1279Q57.8408 27.0244 57.8408 28.3779Q57.8408 29.6172 57.0586 30.3994Q56.2764 31.1816 55.4414 31.4541L57.7178 35.2334Q58.1309 35.9189 58.5088 36.2705Q58.8867 36.6221 59.4404 36.6221Q59.5635 36.8594 59.458 37.0527Q59.2031 37.1758 58.7021 37.1758Q57.3135 37.1758 56.3291 35.5762L54.4043 32.4473Q54.1846 32.0869 53.7627 31.9243Q53.3408 31.7617 52.2949 31.7617L52.2949 34.8027ZM65.5225 34.8027Q65.5225 35.8838 65.8301 36.1431Q66.1377 36.4023 67.2715 36.4463Q67.3418 36.5342 67.3418 36.7495Q67.3418 36.9648 67.2715 37.0352Q65.4697 37 64.7666 37Q64.0107 37 62.2441 37.0352Q62.1562 36.9648 62.1562 36.7495Q62.1562 36.5342 62.2441 36.4463Q63.3779 36.4111 63.6855 36.1475Q63.9932 35.8838 63.9932 34.8027L63.9932 32.5176Q63.9932 32.0342 63.9229 31.7881Q63.8525 31.542 63.6152 31.1289L61.251 27.1562Q60.9434 26.6377 60.6929 26.3872Q60.4424 26.1367 60.2139 26.0576Q59.9854 25.9785 59.5635 25.9521Q59.4756 25.8643 59.4756 25.6533Q59.4756 25.4424 59.5459 25.3545Q60.627 25.3896 61.3828 25.3896Q61.998 25.3896 63.4395 25.3545Q63.5273 25.4424 63.5273 25.6577Q63.5273 25.873 63.4395 25.9521Q62.6924 25.9961 62.5737 26.1807Q62.4551 26.3652 62.7891 26.9453L64.8809 30.6279Q65.0039 30.8477 65.083 30.8564Q65.1621 30.8652 65.2764 30.6631L67.2627 26.9014Q67.4033 26.6289 67.4297 26.4531Q67.4561 26.2773 67.355 26.1719Q67.2539 26.0664 67.0693 26.0181Q66.8848 25.9697 66.5684 25.9521Q66.4805 25.8818 66.4805 25.6621Q66.4805 25.4424 66.5684 25.3545Q68.0098 25.3896 68.2031 25.3896Q68.6162 25.3896 69.6973 25.3545Q69.7852 25.4424 69.7896 25.6577Q69.7939 25.873 69.6973 25.9521Q69.0469 26.0049 68.6997 26.229Q68.3525 26.4531 67.9922 27.1035L65.8389 30.9883Q65.6982 31.2432 65.6279 31.4717Q65.5576 31.7002 65.54 31.876Q65.5225 32.0518 65.5225 32.3594L65.5225 34.8027Z"/>
		<path fill="white" transform="translate(169.026 87.2041)" d="M5.95898 46.7676Q5.30859 46.7676 4.69775 47.084Q4.08691 47.4004 3.56396 48.0112Q3.04102 48.6221 2.71582 49.6943Q2.39062 50.7666 2.39062 52.1113Q2.39062 54.5986 3.65186 56.084Q4.91309 57.5693 6.66211 57.5693Q8.24414 57.5693 9.25049 56.1719Q10.2568 54.7744 10.2568 52.4189Q10.2568 49.7734 9.03516 48.2705Q7.81348 46.7676 5.95898 46.7676ZM11.9883 52.0762Q11.9883 54.3262 10.8721 55.9082Q10.1162 56.9893 8.94287 57.5825Q7.76953 58.1758 6.30176 58.1758Q3.92871 58.1758 2.29834 56.5938Q0.667969 55.0117 0.667969 52.4189Q0.667969 50.0371 1.89844 48.3496Q2.6543 47.3125 3.76611 46.7324Q4.87793 46.1523 6.19629 46.1523Q8.70117 46.1523 10.3447 47.7563Q11.9883 49.3604 11.9883 52.0762ZM17.5781 52.1816L15.9082 52.1816L15.9082 55.8027Q15.9082 56.8838 16.1851 57.1431Q16.4619 57.4023 17.4727 57.4463Q17.5605 57.5342 17.5605 57.7495Q17.5605 57.9648 17.4727 58.0352Q15.6709 58 15.1523 58Q14.5723 58 12.8057 58.0352Q12.7354 57.9648 12.7354 57.7495Q12.7354 57.5342 12.8057 57.4463Q13.8164 57.4111 14.0977 57.1475Q14.3789 56.8838 14.3789 55.8027L14.3789 48.5869Q14.3789 47.5059 14.0977 47.2466Q13.8164 46.9873 12.8057 46.9521Q12.7354 46.8818 12.7354 46.6621Q12.7354 46.4424 12.8057 46.3545L15.1348 46.3896L19.7314 46.3896Q20.2061 46.3896 20.5752 46.3193Q20.6367 46.3193 20.6455 46.3721Q20.8389 47.4092 21.0322 48.9824Q20.7949 49.0703 20.4785 49.0703Q20.2588 48.3672 20.0083 47.9893Q19.7578 47.6113 19.1997 47.3608Q18.6416 47.1104 17.7275 47.1104L16.5498 47.1104Q15.8994 47.1104 15.9082 47.7256L15.9082 51.5049L17.5781 51.5049Q18.6768 51.5049 18.9272 51.2896Q19.1777 51.0742 19.2217 50.2744Q19.292 50.1865 19.5073 50.1865Q19.7227 50.1865 19.8105 50.2744Q19.7754 51.3555 19.7754 51.8301Q19.7754 52.1553 19.8105 53.4121Q19.7227 53.5 19.5073 53.5Q19.292 53.5 19.2217 53.4121Q19.1865 52.9287 19.1118 52.7178Q19.0371 52.5068 18.6768 52.3442Q18.3164 52.1816 17.5781 52.1816ZM29.1445 47.7432L29.1445 51.4082L30.4805 51.4082Q33.0381 51.4082 33.0381 49.3428Q33.0381 48.1035 32.335 47.5366Q31.6318 46.9697 30.709 46.9697Q29.9355 46.9697 29.606 47.0488Q29.2764 47.1279 29.2104 47.2642Q29.1445 47.4004 29.1445 47.7432ZM29.1445 52.0234L29.1445 56.2334Q29.1445 57.4375 30.6387 57.4463Q32.5283 57.4463 33.2051 56.8047Q33.8818 56.1631 33.8818 55.0293Q33.8818 53.7109 33.0073 52.8672Q32.1328 52.0234 30.3838 52.0234L29.1445 52.0234ZM28.3711 46.3896Q28.7666 46.3896 29.54 46.3721Q30.3135 46.3545 30.6211 46.3545Q34.4883 46.3545 34.4883 49.123Q34.4883 49.8262 33.9961 50.4766Q33.5039 51.127 32.7832 51.4873L32.7832 51.5225Q34.04 51.8828 34.7959 52.6738Q35.5518 53.4648 35.5518 54.6865Q35.5518 55.3193 35.3364 55.8774Q35.1211 56.4355 34.6377 56.9409Q34.1543 57.4463 33.2271 57.7407Q32.2998 58.0352 31.0166 58.0352Q30.1201 58.0352 29.3994 58.0176Q28.6787 58 28.3887 58Q27.8086 58 26.0508 58.0352Q25.9629 57.9648 25.9629 57.7495Q25.9629 57.5342 26.0508 57.4463Q27.0615 57.4111 27.3384 57.1475Q27.6152 56.8838 27.6152 55.8027L27.6152 48.5869Q27.6152 47.5059 27.3384 47.2466Q27.0615 46.9873 26.0508 46.9521Q25.9629 46.8818 25.9629 46.6621Q25.9629 46.4424 26.0508 46.3545Q27.8525 46.3896 28.3711 46.3896ZM41.0273 52.9023L44.209 52.9023L42.5215 48.0068L42.4072 48.0068L40.5703 52.665Q40.5439 52.7178 40.5527 52.7617Q40.5615 52.8057 40.5879 52.832Q40.6143 52.8584 40.6758 52.876Q40.7373 52.8936 40.8208 52.8979Q40.9043 52.9023 41.0273 52.9023ZM39.0762 56.5762Q39.0586 56.752 39.0234 56.8882Q38.9883 57.0244 39.1245 57.1167Q39.2607 57.209 39.3398 57.2617Q39.4189 57.3145 39.6387 57.3584Q39.8584 57.4023 39.9814 57.4111Q40.1045 57.4199 40.3242 57.4463Q40.3945 57.5342 40.3945 57.7495Q40.3945 57.9648 40.3242 58.0352Q38.9883 58 38.0215 58Q37.749 58 36.4131 58.0352Q36.3252 57.9648 36.3252 57.7495Q36.3252 57.5342 36.4131 57.4463Q37.0986 57.3936 37.4941 57.165Q37.8896 56.9365 38.2148 56.1631L42.3018 46.5127Q42.6973 46.5127 43.2949 46.1523L47.0039 56.4531Q47.1094 56.7783 47.2632 56.9761Q47.417 57.1738 47.6851 57.2705Q47.9531 57.3672 48.0894 57.3848Q48.2256 57.4023 48.6211 57.4463Q48.709 57.5342 48.709 57.7495Q48.709 57.9648 48.6211 58.0352Q47.2852 58 46.5645 58Q45.5361 58 44.209 58.0352Q44.1387 57.9648 44.1387 57.7495Q44.1387 57.5342 44.209 57.4463Q44.3145 57.4463 44.4858 57.4331Q44.6572 57.4199 44.7495 57.4111Q44.8418 57.4023 44.9868 57.3848Q45.1318 57.3672 45.2021 57.3496Q45.2725 57.332 45.3691 57.2969Q45.4658 57.2617 45.5054 57.209Q45.5449 57.1562 45.5713 57.0815Q45.5977 57.0068 45.5889 56.9189Q45.5801 56.8311 45.5449 56.708L44.499 53.6582L40.7021 53.6582Q40.377 53.6582 40.2583 53.7241Q40.1396 53.79 40.0693 53.9658L39.0762 56.5762ZM52.2334 47.7432L52.2334 51.4082L53.5693 51.4082Q56.127 51.4082 56.127 49.3428Q56.127 48.1035 55.4238 47.5366Q54.7207 46.9697 53.7979 46.9697Q53.0244 46.9697 52.6948 47.0488Q52.3652 47.1279 52.2993 47.2642Q52.2334 47.4004 52.2334 47.7432ZM52.2334 52.0234L52.2334 56.2334Q52.2334 57.4375 53.7275 57.4463Q55.6172 57.4463 56.2939 56.8047Q56.9707 56.1631 56.9707 55.0293Q56.9707 53.7109 56.0962 52.8672Q55.2217 52.0234 53.4727 52.0234L52.2334 52.0234ZM51.46 46.3896Q51.8555 46.3896 52.6289 46.3721Q53.4023 46.3545 53.71 46.3545Q57.5771 46.3545 57.5771 49.123Q57.5771 49.8262 57.085 50.4766Q56.5928 51.127 55.8721 51.4873L55.8721 51.5225Q57.1289 51.8828 57.8848 52.6738Q58.6406 53.4648 58.6406 54.6865Q58.6406 55.3193 58.4253 55.8774Q58.21 56.4355 57.7266 56.9409Q57.2432 57.4463 56.3159 57.7407Q55.3887 58.0352 54.1055 58.0352Q53.209 58.0352 52.4883 58.0176Q51.7676 58 51.4775 58Q50.8975 58 49.1396 58.0352Q49.0518 57.9648 49.0518 57.7495Q49.0518 57.5342 49.1396 57.4463Q50.1504 57.4111 50.4272 57.1475Q50.7041 56.8838 50.7041 55.8027L50.7041 48.5869Q50.7041 47.5059 50.4272 47.2466Q50.1504 46.9873 49.1396 46.9521Q49.0518 46.8818 49.0518 46.6621Q49.0518 46.4424 49.1396 46.3545Q50.9414 46.3896 51.46 46.3896ZM64.292 51.5049Q65.3906 51.5049 65.6411 51.2896Q65.8916 51.0742 65.9268 50.2744Q65.9971 50.1865 66.2168 50.1865Q66.4365 50.1865 66.5244 50.2744Q66.4893 51.3555 66.4893 51.8301Q66.4893 52.1553 66.5244 53.4121Q66.4365 53.5 66.2212 53.5Q66.0059 53.5 65.9268 53.4121Q65.8916 52.9287 65.8213 52.7178Q65.751 52.5068 65.3906 52.3442Q65.0303 52.1816 64.292 52.1816L62.6572 52.1816L62.6572 56.5234Q62.6572 57.2969 63.2988 57.2969L65.751 57.2969Q67.4648 57.2969 68.1064 54.9414Q68.4316 54.8711 68.7393 55.0293Q68.5195 56.4531 68.0713 58.0352Q66.6299 58 65.7686 58L61.9014 58Q60.4424 58.0176 59.5547 58.0352Q59.4844 57.9648 59.4844 57.7495Q59.4844 57.5342 59.5547 57.4463Q60.5654 57.4111 60.8467 57.1475Q61.1279 56.8838 61.1279 55.8027L61.1279 48.5869Q61.1279 47.5059 60.8467 47.2466Q60.5654 46.9873 59.5547 46.9521Q59.4844 46.8818 59.4844 46.6621Q59.4844 46.4424 59.5547 46.3545L61.8838 46.3896L66.4717 46.3896Q66.9375 46.3896 67.3506 46.3193Q67.4209 46.3193 67.4209 46.3721Q67.5615 46.9873 67.8252 48.9824Q67.5352 49.123 67.2275 49.0703Q66.8848 47.9893 66.5068 47.5498Q66.1289 47.1104 65.1973 47.1104L63.2988 47.1104Q62.9912 47.1104 62.8242 47.3345Q62.6572 47.5586 62.6572 47.9014L62.6572 51.5049L64.292 51.5049ZM71.9033 58Q70.4443 58.0176 69.5654 58.0352Q69.4775 57.9648 69.4775 57.7495Q69.4775 57.5342 69.5654 57.4463Q70.5762 57.4111 70.853 57.1475Q71.1299 56.8838 71.1299 55.8027L71.1299 48.5869Q71.1299 47.5059 70.853 47.2466Q70.5762 46.9873 69.5654 46.9521Q69.4775 46.8818 69.4775 46.6621Q69.4775 46.4424 69.5654 46.3545Q71.3672 46.3896 71.8857 46.3896Q72.4658 46.3896 74.2236 46.3545Q74.2939 46.4424 74.2939 46.6577Q74.2939 46.873 74.2236 46.9521Q73.2129 46.9873 72.936 47.2466Q72.6592 47.5059 72.6592 48.5869L72.6592 56.4004Q72.6592 56.8135 72.8833 57.0552Q73.1074 57.2969 73.5029 57.2969L74.8213 57.2969Q76.1396 57.2969 76.7944 56.6772Q77.4492 56.0576 77.7568 54.9414Q78.0645 54.8887 78.3457 55.0293Q78.1699 56.5938 77.8799 58.0352Q76.2188 58 75.7354 58L71.9033 58Z"/>
	</g>
</svg>
