<?xml version="1.0" encoding="utf-8" ?>
<svg xmlns="http://www.w3.org/2000/svg" xmlns:xlink="http://www.w3.org/1999/xlink" width="102" height="75">
	<clipPath id="cl_4">
		<rect width="101.2606" height="74.569183"/>
	</clipPath>
	<g clip-path="url(#cl_4)">
		<path fill="white" transform="translate(19.5 9)" d="M5.95166 12.9248Q5.95166 13.9458 6.23804 14.1907Q6.52441 14.4355 7.59521 14.4771Q7.67822 14.5601 7.68237 14.7634Q7.68652 14.9668 7.59521 15.0332Q5.89355 15 5.23779 15Q4.52393 15 2.85547 15.0332Q2.78906 14.9668 2.78906 14.7634Q2.78906 14.5601 2.85547 14.4771Q3.92627 14.4438 4.2168 14.1948Q4.50732 13.9458 4.50732 12.9248L4.50732 6.38379Q4.50732 5.55371 4.32886 5.12622Q4.15039 4.69873 3.70215 4.69873L2.87207 4.69873Q1.99219 4.69873 1.42773 5.10547Q0.863281 5.51221 0.630859 6.5Q0.273926 6.5 0.0498047 6.41699Q0.390137 4.95605 0.473145 3.95166Q0.473145 3.90186 0.547852 3.90186Q2.26611 4.03467 4.50732 4.03467L5.96826 4.03467Q7.4292 4.03467 9.31348 3.95996Q9.76172 3.94336 10.1436 3.82715Q10.5254 3.71094 10.9321 3.51172Q11.3389 3.3125 11.3555 3.3042Q11.5796 3.3042 11.5796 3.47021Q11.5132 4.15088 11.5049 5.25488L11.4966 8.91553Q11.5132 9.09814 11.6626 8.91553Q12.9077 7.5376 14.5513 7.5376Q15.5225 7.5376 15.9624 8.11865Q16.4189 8.71631 16.4189 10.3931L16.4189 12.9248Q16.4189 13.9292 16.614 14.1658Q16.8091 14.4023 17.5645 14.4771Q17.6309 14.5601 17.6309 14.7634Q17.6309 14.9668 17.5645 15.0332Q16.1035 15 15.7549 15Q15.4478 15 14.0283 15.0332Q13.9619 14.9502 13.9578 14.7468Q13.9536 14.5435 14.0283 14.4771Q14.7256 14.4106 14.9041 14.1699Q15.0825 13.9292 15.0825 12.9248L15.0825 10.3433Q15.0825 9.43848 14.875 9.03174Q14.5679 8.41748 13.9702 8.41748Q12.8164 8.41748 11.7954 9.42188Q11.5049 9.7373 11.5049 10.1357L11.5049 12.9248Q11.5049 13.647 11.592 13.95Q11.6792 14.2529 11.8618 14.3442Q12.0444 14.4355 12.5259 14.4771Q12.6006 14.5518 12.6006 14.7551Q12.6006 14.9585 12.5259 15.0332Q11.0981 15 10.8491 15Q10.3843 15 8.98145 15.0332Q8.90674 14.9585 8.90674 14.7551Q8.90674 14.5518 8.98145 14.4771Q9.40479 14.4438 9.59155 14.4023Q9.77832 14.3608 9.93604 14.199Q10.0938 14.0371 10.1311 13.7549Q10.1685 13.4727 10.1685 12.9248L10.1685 5.76953Q10.1685 5.49561 10.073 5.30054Q9.97754 5.10547 9.76587 4.99341Q9.5542 4.88135 9.36743 4.80664Q9.18066 4.73193 8.83203 4.71533Q8.4834 4.69873 8.28003 4.69043Q8.07666 4.68213 7.66577 4.69043Q7.25488 4.69873 7.10547 4.69873L6.73193 4.69873Q6.29199 4.69873 6.12183 5.13037Q5.95166 5.56201 5.95166 6.43359L5.95166 12.9248ZM19.9219 10.2021L23.0015 10.1523Q23.2588 10.1523 23.2505 9.91992Q23.2505 8.94873 22.8354 8.54199Q22.4204 8.13525 21.8394 8.13525Q21.6152 8.13525 21.3994 8.19336Q21.1836 8.25146 20.8682 8.43823Q20.5527 8.625 20.2954 9.08154Q20.0381 9.53809 19.9219 10.2021ZM24.3794 13.4229Q24.6699 13.4395 24.7363 13.6885Q23.5991 15.166 21.8394 15.166Q20.1543 15.166 19.2412 14.0786Q18.4443 13.1572 18.4443 11.5635Q18.4443 9.76221 19.5234 8.6665Q20.6025 7.5708 21.8394 7.5708Q24.7114 7.5708 24.7114 10.5259Q24.7114 10.8164 24.396 10.8164L19.8721 10.7832Q19.8721 12.2109 20.4116 13.1157Q21.1587 14.3359 22.271 14.3359Q22.9849 14.3359 23.4373 14.1326Q23.8896 13.9292 24.3794 13.4229Z"/>
		<path fill="white" transform="translate(19.5 9)" d="M2.49854 34Q1.12061 34.0166 0.290527 34.0332Q0.20752 33.9668 0.20752 33.7634Q0.20752 33.5601 0.290527 33.4771Q1.24512 33.4438 1.50659 33.1948Q1.76807 32.9458 1.76807 31.9248L1.76807 25.1099Q1.76807 24.0889 1.50659 23.844Q1.24512 23.5991 0.290527 23.5659Q0.20752 23.4995 0.20752 23.292Q0.20752 23.0845 0.290527 23.0015Q1.99219 23.0347 2.48193 23.0347Q3.02979 23.0347 4.68994 23.0015Q4.75635 23.0845 4.75635 23.2878Q4.75635 23.4912 4.68994 23.5659Q3.73535 23.5991 3.47388 23.844Q3.2124 24.0889 3.2124 25.1099L3.2124 32.4893Q3.2124 32.8794 3.42407 33.1077Q3.63574 33.3359 4.00928 33.3359L5.25439 33.3359Q6.49951 33.3359 7.11792 32.7507Q7.73633 32.1655 8.02686 31.1113Q8.31738 31.0615 8.58301 31.1943Q8.41699 32.6719 8.14307 34.0332Q6.57422 34 6.11768 34L2.49854 34ZM10.4673 23.8149Q10.4673 23.5078 10.7578 23.2546Q11.0483 23.0015 11.3555 23.0015Q11.6792 23.0015 11.9241 23.2837Q12.1689 23.5659 12.1689 23.8813Q12.1689 24.1719 11.8992 24.4375Q11.6294 24.7031 11.2891 24.7031Q10.9819 24.7031 10.7246 24.4209Q10.4673 24.1387 10.4673 23.8149ZM12.0195 31.9248Q12.0195 32.9458 12.2229 33.1824Q12.4263 33.4189 13.2397 33.4771Q13.3228 33.5601 13.3228 33.7634Q13.3228 33.9668 13.2397 34.0332Q11.7788 34 11.3555 34Q10.8823 34 9.44629 34.0332Q9.37988 33.9668 9.37988 33.7634Q9.37988 33.5601 9.44629 33.4771Q10.2598 33.4106 10.4673 33.1782Q10.6748 32.9458 10.6748 31.9248L10.6748 28.6128Q10.6748 27.8989 10.4797 27.7122Q10.2847 27.5254 9.5708 27.459Q9.47119 27.1685 9.5376 26.9775Q11.1147 26.77 11.8618 26.4878Q12.0859 26.4878 12.0859 26.604Q12.0859 26.6455 12.0776 26.7244Q12.0693 26.8032 12.061 27.0398Q12.0527 27.2764 12.0403 27.4963Q12.0278 27.7163 12.0237 28.0068Q12.0195 28.2974 12.0195 28.5381L12.0195 31.9248ZM16.502 27.8325Q16.2114 28.0898 16.2197 28.5464L16.2197 32.7964Q16.8672 33.5933 17.4399 33.5933Q18.6104 33.5933 19.2246 32.6511Q19.8389 31.709 19.8389 30.1899Q19.8389 28.9697 19.2869 28.1272Q18.7349 27.2847 17.9463 27.2847Q17.1162 27.2847 16.502 27.8325ZM16.3857 27.3013Q17.2324 26.5376 18.2866 26.5376Q19.457 26.5376 20.3784 27.4714Q21.2998 28.4053 21.2998 29.8828Q21.2998 31.7837 20.1252 32.9749Q18.9507 34.166 17.5396 34.166Q16.5435 34.166 16.0454 33.751Q15.9043 33.6348 15.8088 33.6389Q15.7134 33.6431 15.5806 33.7925Q15.5225 33.8589 15.4353 33.9502Q15.3481 34.0415 15.3066 34.0789Q15.2651 34.1162 15.1821 34.2075Q14.9414 34.2075 14.8086 34Q14.875 33.6763 14.875 32.7964L14.875 24.4956Q14.875 23.9478 14.8501 23.678Q14.8252 23.4082 14.6384 23.2795Q14.4517 23.1509 14.3479 23.1426Q14.2441 23.1343 13.7876 23.1011Q13.5967 22.9102 13.6797 22.5947Q15.1904 22.4785 16.062 22.1299Q16.2861 22.1299 16.2861 22.3042Q16.2197 22.9849 16.2197 24.0889L16.2197 27.2183Q16.2197 27.4507 16.3857 27.3013ZM24.9688 27.9155Q24.9688 27.9985 24.9937 28.0317Q25.0186 28.0649 25.1016 27.9487Q25.4419 27.3677 25.9441 26.9526Q26.4463 26.5376 26.9858 26.5376Q27.4756 26.5376 27.7412 26.7991Q28.0068 27.0605 28.0068 27.3511Q28.0068 27.6748 27.762 27.9404Q27.5171 28.2061 27.21 28.2061Q27.0938 28.2061 26.9734 28.1438Q26.853 28.0815 26.7949 28.0234Q26.7368 27.9653 26.6414 27.8533Q26.5459 27.7412 26.5127 27.708Q26.3965 27.5918 26.1558 27.5918Q25.9482 27.5918 25.3755 28.4219Q24.9688 29.0361 24.9688 29.5591L24.9688 31.9248Q24.9688 32.9458 25.197 33.1741Q25.4253 33.4023 26.3633 33.4771Q26.4463 33.5601 26.4463 33.7634Q26.4463 33.9668 26.3633 34.0332Q24.9023 34 24.3047 34Q23.7983 34 22.3623 34.0332Q22.2959 33.9668 22.2959 33.7634Q22.2959 33.5601 22.3623 33.4771Q23.1924 33.4272 23.4082 33.1865Q23.624 32.9458 23.624 31.9248L23.624 28.6128Q23.624 27.8989 23.429 27.7122Q23.2339 27.5254 22.52 27.459Q22.4204 27.1685 22.4868 26.9775Q23.8149 26.8115 24.6284 26.4878Q24.7612 26.4878 24.8276 26.6206Q24.9688 26.9277 24.9688 27.9155ZM33.2197 30.0405L31.875 30.3975Q30.2563 30.8042 30.2646 32.2651Q30.2646 32.7217 30.5759 33.0994Q30.8872 33.4771 31.4849 33.4771Q32.0825 33.4771 32.979 32.7383Q33.2197 32.5723 33.2197 32.2983L33.2197 30.0405ZM33.2197 33.1865L33.1865 33.1865L32.8462 33.4521Q32.2817 33.8921 31.9248 34.0291Q31.5679 34.166 30.9951 34.166Q30.0239 34.166 29.4387 33.7261Q28.8535 33.2861 28.8535 32.3315Q28.8535 31.4849 29.6255 30.8374Q30.3975 30.1899 31.6592 29.8662L33.1201 29.5093Q33.2197 29.4761 33.2197 29.3101Q33.2197 27.1021 31.8418 27.1021Q31.2773 27.1021 30.854 27.2805Q30.4307 27.459 30.4307 27.8159Q30.4307 28.0566 30.4639 28.1479Q30.5137 28.2476 30.5137 28.4551Q30.5137 28.646 30.3103 28.8328Q30.1069 29.0195 29.7666 29.0195Q29.1689 29.0195 29.1772 28.4219Q29.1772 27.7246 30.0613 27.1311Q30.9453 26.5376 31.9829 26.5376Q34.5479 26.5376 34.5479 29.4097L34.5479 31.9414Q34.5479 32.4312 34.5728 32.6885Q34.5977 32.9458 34.7595 33.1658Q34.9214 33.3857 35.2285 33.3857Q35.436 33.3857 35.5854 33.2529Q35.7349 33.1201 35.7515 33.1201Q35.8013 33.1201 35.8884 33.2197Q35.9756 33.3193 35.9756 33.4023Q35.9756 33.4521 35.7971 33.6306Q35.6187 33.8091 35.2617 33.9875Q34.9048 34.166 34.5312 34.166Q33.5103 34.1743 33.2197 33.1865ZM39.0469 27.9155Q39.0469 27.9985 39.0718 28.0317Q39.0967 28.0649 39.1797 27.9487Q39.52 27.3677 40.0222 26.9526Q40.5244 26.5376 41.064 26.5376Q41.5537 26.5376 41.8193 26.7991Q42.085 27.0605 42.085 27.3511Q42.085 27.6748 41.8401 27.9404Q41.5952 28.2061 41.2881 28.2061Q41.1719 28.2061 41.0515 28.1438Q40.9312 28.0815 40.873 28.0234Q40.8149 27.9653 40.7195 27.8533Q40.624 27.7412 40.5908 27.708Q40.4746 27.5918 40.2339 27.5918Q40.0264 27.5918 39.4536 28.4219Q39.0469 29.0361 39.0469 29.5591L39.0469 31.9248Q39.0469 32.9458 39.2751 33.1741Q39.5034 33.4023 40.4414 33.4771Q40.5244 33.5601 40.5244 33.7634Q40.5244 33.9668 40.4414 34.0332Q38.9805 34 38.3828 34Q37.8765 34 36.4404 34.0332Q36.374 33.9668 36.374 33.7634Q36.374 33.5601 36.4404 33.4771Q37.2705 33.4272 37.4863 33.1865Q37.7021 32.9458 37.7021 31.9248L37.7021 28.6128Q37.7021 27.8989 37.5071 27.7122Q37.312 27.5254 36.5981 27.459Q36.4985 27.1685 36.5649 26.9775Q37.8931 26.8115 38.7065 26.4878Q38.8394 26.4878 38.9058 26.6206Q39.0469 26.9277 39.0469 27.9155ZM45.9531 36.7227Q45.2725 37.9429 44.3013 37.9429Q43.9609 37.9429 43.7327 37.7644Q43.5044 37.5859 43.5044 37.312Q43.5044 37.0879 43.7161 36.8347Q43.9277 36.5815 44.2515 36.5815Q44.3345 36.5815 44.4797 36.6064Q44.625 36.6313 44.7412 36.6313Q45.3223 36.6313 45.5962 36.1416Q46.0029 35.3115 46.2603 34.5811Q46.4678 34 46.0195 32.979L44.0938 28.5049Q43.8447 27.9321 43.6912 27.6997Q43.5376 27.4673 43.3425 27.3677Q43.1475 27.2681 42.7573 27.2349Q42.6909 27.1685 42.6909 26.9651Q42.6909 26.7617 42.7573 26.6704Q43.438 26.7036 44.1353 26.7036Q44.7993 26.7036 46.0527 26.6704Q46.1191 26.7534 46.1191 26.9609Q46.1191 27.1685 46.0527 27.2349Q45.7539 27.2598 45.5837 27.3137Q45.4136 27.3677 45.3306 27.4299Q45.2476 27.4922 45.26 27.6375Q45.2725 27.7827 45.314 27.8948Q45.3555 28.0068 45.4551 28.2476Q45.48 28.3057 45.4966 28.3389L47.0073 31.875Q47.0571 31.9995 47.1111 32.0576Q47.165 32.1157 47.2148 32.1116Q47.2646 32.1074 47.3145 32.0535Q47.3643 31.9995 47.4141 31.8916L49.0991 27.9985Q49.29 27.5918 49.041 27.4382Q48.792 27.2847 48.2773 27.2349Q48.1943 27.1685 48.1943 26.9651Q48.1943 26.7617 48.2773 26.6704Q49.5391 26.7036 49.8296 26.7036Q50.1865 26.7036 51.0332 26.6704Q51.1162 26.7534 51.1162 26.9609Q51.1162 27.1685 51.0332 27.2349Q50.5933 27.2681 50.228 27.5918Q49.8628 27.9155 49.6553 28.3223Q48.5679 30.5967 46.6504 35.2617Q46.2935 36.1084 45.9531 36.7227Z"/>
		<path fill="white" transform="translate(19.5 9)" d="M5.62793 42.3916Q5.01367 42.3916 4.43677 42.6904Q3.85986 42.9893 3.36597 43.5662Q2.87207 44.1431 2.56494 45.1558Q2.25781 46.1685 2.25781 47.4385Q2.25781 49.7876 3.44897 51.1904Q4.64014 52.5933 6.29199 52.5933Q7.78613 52.5933 8.73657 51.2734Q9.68701 49.9536 9.68701 47.729Q9.68701 45.2305 8.5332 43.811Q7.37939 42.3916 5.62793 42.3916ZM11.3223 47.4053Q11.3223 49.5303 10.2681 51.0244Q9.5542 52.0454 8.44604 52.6057Q7.33789 53.166 5.95166 53.166Q3.71045 53.166 2.17065 51.6719Q0.630859 50.1777 0.630859 47.729Q0.630859 45.4795 1.79297 43.8857Q2.50684 42.9062 3.55688 42.3584Q4.60693 41.8105 5.85205 41.8105Q8.21777 41.8105 9.77002 43.3254Q11.3223 44.8403 11.3223 47.4053ZM14.8999 50.9248Q14.8999 51.9458 15.124 52.1824Q15.3481 52.4189 16.2446 52.4771Q16.311 52.5601 16.311 52.7634Q16.311 52.9668 16.2446 53.0332Q14.7837 53 14.2441 53Q13.8872 53 12.4512 53.0332Q12.3682 52.9668 12.3682 52.7634Q12.3682 52.5601 12.4512 52.4771Q13.1816 52.4272 13.3726 52.1865Q13.5635 51.9458 13.5635 50.9248L13.5635 46.3677L12.3848 46.3677Q12.3018 46.3677 12.3018 46.2681L12.3018 46.0439Q12.3018 45.7036 12.6919 45.7036L13.5635 45.7036L13.5635 45.0229Q13.5635 43.1719 14.4724 42.1509Q15.3813 41.1299 16.5684 41.1299Q17.5894 41.1299 18.0957 41.4951Q18.6436 41.9019 18.6436 42.3584Q18.6436 42.6157 18.407 42.8357Q18.1704 43.0557 17.9463 43.0557Q17.5063 43.0557 17.2656 42.5078Q17.0996 42.0679 16.8672 41.8894Q16.6348 41.7109 16.2446 41.7109Q14.8999 41.7109 14.8999 44.7407L14.8999 45.7036L16.7427 45.7036Q16.8755 45.7036 16.8755 45.8115L16.8755 46.1519Q16.8755 46.376 16.4854 46.3677L14.8999 46.3677L14.8999 50.9248ZM24.6865 43.313L24.6865 46.7744L25.9482 46.7744Q28.3638 46.7744 28.3638 44.8237Q28.3638 43.6533 27.6997 43.1179Q27.0356 42.5825 26.1641 42.5825Q25.4336 42.5825 25.1223 42.6572Q24.811 42.7319 24.7488 42.8606Q24.6865 42.9893 24.6865 43.313ZM24.6865 47.3555L24.6865 51.3315Q24.6865 52.4688 26.0977 52.4771Q27.8823 52.4771 28.5215 51.8711Q29.1606 51.2651 29.1606 50.1943Q29.1606 48.9492 28.3347 48.1523Q27.5088 47.3555 25.8569 47.3555L24.6865 47.3555ZM23.9561 42.0347Q24.3296 42.0347 25.0601 42.0181Q25.7905 42.0015 26.0811 42.0015Q29.7334 42.0015 29.7334 44.6162Q29.7334 45.2803 29.2686 45.8945Q28.8037 46.5088 28.123 46.8491L28.123 46.8823Q29.3101 47.2227 30.0239 47.9697Q30.7378 48.7168 30.7378 49.8706Q30.7378 50.4683 30.5344 50.9954Q30.3311 51.5225 29.8745 51.9998Q29.418 52.4771 28.5422 52.7551Q27.6665 53.0332 26.4546 53.0332Q25.6079 53.0332 24.9272 53.0166Q24.2466 53 23.9727 53Q23.4248 53 21.7646 53.0332Q21.6816 52.9668 21.6816 52.7634Q21.6816 52.5601 21.7646 52.4771Q22.7192 52.4438 22.9807 52.1948Q23.2422 51.9458 23.2422 50.9248L23.2422 44.1099Q23.2422 43.0889 22.9807 42.844Q22.7192 42.5991 21.7646 42.5659Q21.6816 42.4995 21.6816 42.292Q21.6816 42.0845 21.7646 42.0015Q23.4663 42.0347 23.9561 42.0347ZM36.4155 49.0405L35.0708 49.3975Q33.4521 49.8042 33.4604 51.2651Q33.4604 51.7217 33.7717 52.0994Q34.083 52.4771 34.6807 52.4771Q35.2783 52.4771 36.1748 51.7383Q36.4155 51.5723 36.4155 51.2983L36.4155 49.0405ZM36.4155 52.1865L36.3823 52.1865L36.042 52.4521Q35.4775 52.8921 35.1206 53.0291Q34.7637 53.166 34.1909 53.166Q33.2197 53.166 32.6345 52.7261Q32.0493 52.2861 32.0493 51.3315Q32.0493 50.4849 32.8213 49.8374Q33.5933 49.1899 34.855 48.8662L36.3159 48.5093Q36.4155 48.4761 36.4155 48.3101Q36.4155 46.1021 35.0376 46.1021Q34.4731 46.1021 34.0498 46.2805Q33.6265 46.459 33.6265 46.8159Q33.6265 47.0566 33.6597 47.1479Q33.7095 47.2476 33.7095 47.4551Q33.7095 47.646 33.5061 47.8328Q33.3027 48.0195 32.9624 48.0195Q32.3647 48.0195 32.373 47.4219Q32.373 46.7246 33.2571 46.1311Q34.1411 45.5376 35.1787 45.5376Q37.7437 45.5376 37.7437 48.4097L37.7437 50.9414Q37.7437 51.4312 37.7686 51.6885Q37.7935 51.9458 37.9553 52.1658Q38.1172 52.3857 38.4243 52.3857Q38.6318 52.3857 38.7812 52.2529Q38.9307 52.1201 38.9473 52.1201Q38.9971 52.1201 39.0842 52.2197Q39.1714 52.3193 39.1714 52.4023Q39.1714 52.4521 38.9929 52.6306Q38.8145 52.8091 38.4575 52.9875Q38.1006 53.166 37.7271 53.166Q36.7061 53.1743 36.4155 52.1865ZM42.1514 46.8325Q41.8608 47.0898 41.8691 47.5464L41.8691 51.7964Q42.5166 52.5933 43.0894 52.5933Q44.2598 52.5933 44.874 51.6511Q45.4883 50.709 45.4883 49.1899Q45.4883 47.9697 44.9363 47.1272Q44.3843 46.2847 43.5957 46.2847Q42.7656 46.2847 42.1514 46.8325ZM42.0352 46.3013Q42.8818 45.5376 43.936 45.5376Q45.1064 45.5376 46.0278 46.4714Q46.9492 47.4053 46.9492 48.8828Q46.9492 50.7837 45.7747 51.9749Q44.6001 53.166 43.189 53.166Q42.1929 53.166 41.6948 52.751Q41.5537 52.6348 41.4583 52.6389Q41.3628 52.6431 41.23 52.7925Q41.1719 52.8589 41.0847 52.9502Q40.9976 53.0415 40.9561 53.0789Q40.9146 53.1162 40.8315 53.2075Q40.5908 53.2075 40.458 53Q40.5244 52.6763 40.5244 51.7964L40.5244 43.4956Q40.5244 42.9478 40.4995 42.678Q40.4746 42.4082 40.2878 42.2795Q40.1011 42.1509 39.9973 42.1426Q39.8936 42.1343 39.437 42.1011Q39.2461 41.9102 39.3291 41.5947Q40.8398 41.4785 41.7114 41.1299Q41.9355 41.1299 41.9355 41.3042Q41.8691 41.9849 41.8691 43.0889L41.8691 46.2183Q41.8691 46.4507 42.0352 46.3013ZM49.7632 48.2021L52.8428 48.1523Q53.1001 48.1523 53.0918 47.9199Q53.0918 46.9487 52.6768 46.542Q52.2617 46.1353 51.6807 46.1353Q51.4565 46.1353 51.2407 46.1934Q51.0249 46.2515 50.7095 46.4382Q50.394 46.625 50.1367 47.0815Q49.8794 47.5381 49.7632 48.2021ZM54.2207 51.4229Q54.5112 51.4395 54.5776 51.6885Q53.4404 53.166 51.6807 53.166Q49.9956 53.166 49.0825 52.0786Q48.2856 51.1572 48.2856 49.5635Q48.2856 47.7622 49.3647 46.6665Q50.4438 45.5708 51.6807 45.5708Q54.5527 45.5708 54.5527 48.5259Q54.5527 48.8164 54.2373 48.8164L49.7134 48.7832Q49.7134 50.2109 50.2529 51.1157Q51 52.3359 52.1123 52.3359Q52.8262 52.3359 53.2786 52.1326Q53.731 51.9292 54.2207 51.4229ZM56.8687 50.9248L56.8687 43.4956Q56.8687 42.9478 56.8396 42.678Q56.8105 42.4082 56.6238 42.2795Q56.437 42.1509 56.3374 42.1426Q56.2378 42.1343 55.7729 42.1011Q55.582 41.9102 55.6733 41.5947Q57.1841 41.4785 58.0557 41.1299Q58.2798 41.1299 58.2798 41.3042Q58.2134 41.9849 58.2051 43.0889L58.2051 50.9248Q58.2051 51.9458 58.4209 52.1907Q58.6367 52.4355 59.4336 52.4771Q59.5 52.5601 59.5 52.7634Q59.5 52.9668 59.4336 53.0332Q57.9727 53 57.541 53Q57.0679 53 55.6401 53.0332Q55.5571 52.9668 55.5571 52.7634Q55.5571 52.5601 55.6401 52.4771Q56.437 52.4438 56.6528 52.1948Q56.8687 51.9458 56.8687 50.9248Z"/>
	</g>
</svg>
